<?xml version="1.0" standalone="no"?>
<!DOCTYPE svg PUBLIC "-//W3C//DTD SVG 20010904//EN"
 "http://www.w3.org/TR/2001/REC-SVG-20010904/DTD/svg10.dtd">
<svg version="1.0" xmlns="http://www.w3.org/2000/svg"
 width="2000.000000pt" height="2000.000000pt" viewBox="0 0 2000.000000 2000.000000"
 preserveAspectRatio="xMidYMid meet">

<g transform="translate(0.000000,2000.000000) scale(0.100000,-0.100000)"
fill="#000000" stroke="none">
<path d="M2700 18624 c-146 -39 -261 -166 -289 -318 -16 -86 -15 -7384 0
-7458 7 -29 20 -72 30 -96 23 -52 109 -145 166 -179 97 -56 -156 -53 3780 -53
l3632 0 -71 -147 c-96 -203 -336 -762 -478 -1118 -286 -715 -400 -1127 -402
-1445 0 -167 17 -255 73 -370 76 -155 219 -273 435 -359 194 -78 341 -108 744
-152 201 -21 380 -42 398 -45 l32 -5 0 -884 c0 -583 -3 -885 -10 -885 -6 0
-10 71 -10 194 0 164 -3 197 -16 210 -14 14 -135 16 -1181 16 l-1166 0 4 1377
4 1378 -23 42 c-35 66 -79 110 -140 140 l-57 28 -265 2 c-635 7 -4937 33
-5345 33 -520 0 -513 1 -601 -86 -95 -95 -85 86 -100 -1889 -7 -957 -13 -1740
-13 -1741 -1 -1 -23 1 -50 4 -107 10 -360 -48 -381 -88 -5 -10 -10 -72 -10
-138 0 -196 45 -330 142 -416 42 -38 45 -45 32 -58 -14 -13 -5 -73 79 -539 52
-288 92 -527 90 -531 -2 -5 -60 -8 -129 -8 l-124 0 0 -140 0 -140 393 -2 392
-3 3 -407 2 -408 325 0 325 0 2 408 3 407 3443 3 3442 2 0 -410 0 -410 330 0
330 0 0 410 0 410 515 0 515 0 0 140 0 140 -385 0 -385 0 0 120 c0 66 3 120 8
120 4 0 35 -9 69 -20 204 -64 704 -131 1148 -155 230 -12 245 -14 245 -40 0
-12 -16 -83 -35 -156 -30 -116 -37 -163 -50 -359 -8 -124 -26 -378 -40 -566
-14 -188 -25 -386 -25 -440 0 -125 21 -292 65 -532 88 -467 145 -852 145 -970
l0 -42 2856 0 2856 0 -7 78 c-18 200 -78 398 -225 742 -109 255 -161 396 -185
504 -18 83 -18 139 5 371 12 121 2 268 -26 412 l-17 84 106 107 c132 133 191
204 217 258 11 23 29 49 40 59 76 69 25 363 -97 553 -60 95 -68 125 -68 257 1
171 39 304 207 715 124 302 222 564 274 727 25 81 116 324 201 538 236 594
241 609 262 687 23 84 35 173 52 378 45 557 -150 1149 -536 1628 -37 46 -66
85 -64 86 2 2 36 9 74 15 352 60 665 290 811 596 54 113 82 214 93 339 23 241
-46 500 -182 679 -109 145 -325 280 -532 332 -96 25 -153 32 -442 55 -224 18
-346 61 -448 158 -74 70 -113 122 -209 276 -156 249 -246 353 -386 445 -296
194 -673 237 -1040 120 -114 -37 -280 -120 -286 -143 -3 -12 -33 -39 -67 -61
-94 -60 -274 -244 -344 -351 -164 -250 -231 -485 -220 -768 9 -236 73 -425
202 -593 54 -72 55 -73 31 -79 -26 -6 -43 1 -277 122 -224 116 -372 149 -629
141 -188 -6 -273 -24 -520 -106 -358 -120 -572 -149 -877 -119 -146 14 -195 3
-282 -63 l-54 -41 -281 21 c-155 12 -318 24 -363 27 -72 6 -83 9 -83 25 0 10
56 387 125 838 69 450 125 829 125 841 0 21 3 22 38 14 20 -5 80 -9 132 -9 78
0 102 4 135 22 58 30 121 103 158 181 30 63 32 74 32 177 0 102 -3 115 -32
175 -17 37 -91 141 -171 242 l-141 177 21 123 c38 221 24 574 -28 719 -53 148
-159 335 -261 462 l-63 78 0 2504 c0 1816 -3 2519 -11 2557 -32 149 -150 275
-294 313 -53 13 -514 15 -4435 14 -3818 0 -4382 -2 -4430 -15z m8890 -112 c63
-33 125 -96 152 -156 l23 -51 3 -2473 2 -2473 -117 107 c-281 257 -494 394
-666 430 -75 16 -122 11 -177 -16 -64 -33 -100 -95 -100 -175 0 -25 -1 -45 -3
-45 -12 0 -148 60 -239 106 l-108 54 0 197 c0 169 -2 199 -17 215 -15 17 -41
18 -406 18 -349 0 -392 -2 -409 -17 -17 -15 -18 -41 -18 -409 0 -344 2 -395
16 -408 13 -14 58 -16 339 -16 l324 0 30 -96 c27 -88 45 -119 192 -340 155
-233 162 -245 150 -272 -7 -15 -53 -96 -104 -180 l-92 -152 -3 97 c-2 85 -5
100 -23 116 -19 15 -54 17 -403 17 -329 0 -385 -2 -404 -16 l-22 -15 0 -392
c0 -229 4 -398 10 -407 8 -13 61 -16 342 -20 l333 -5 7 -53 c13 -90 68 -237
125 -337 30 -53 57 -111 60 -130 7 -44 -26 -116 -144 -305 -49 -80 -107 -178
-129 -217 l-39 -73 -3662 0 c-3634 0 -3663 0 -3716 20 -67 25 -132 87 -166
159 l-26 56 0 3720 c0 3635 0 3721 19 3769 32 83 116 159 206 187 14 4 2003 7
4420 6 l4395 -2 45 -23z m-1330 -4503 c0 -77 -3 -139 -7 -137 -5 2 -39 18 -77
36 -147 69 -155 48 -81 -198 31 -102 58 -191 60 -197 3 -10 -55 -13 -270 -13
l-275 0 0 325 0 325 325 0 325 0 0 -141z m793 -234 c110 -45 285 -161 268
-178 -5 -5 -39 -8 -74 -5 -90 5 -196 59 -276 139 -34 33 -61 65 -61 71 0 14
74 0 143 -27z m-813 -25 c0 -5 7 -6 17 -3 12 5 14 3 8 -7 -6 -10 -4 -12 7 -8
8 4 20 3 26 -1 8 -5 -1 -19 -25 -42 -20 -19 -31 -26 -24 -16 10 13 10 17 1 17
-6 0 -14 -9 -17 -21 -10 -37 -23 2 -16 49 5 38 3 44 -16 49 -11 3 -21 9 -21
14 0 5 14 3 30 -6 17 -9 30 -20 30 -25z m-31 -17 c0 -25 -1 -26 -9 -8 -12 27
-12 35 0 35 6 0 10 -12 9 -27z m656 -36 c50 -63 165 -148 243 -178 32 -12 90
-24 132 -26 63 -5 84 -2 127 17 29 12 56 20 62 19 21 -8 253 -225 327 -307
126 -138 157 -180 227 -301 83 -144 135 -273 147 -364 20 -161 22 -358 6 -466
-9 -57 -17 -106 -19 -108 -5 -4 -1269 1592 -1286 1624 -16 30 -28 143 -15 142
5 0 27 -24 49 -52z m-312 -82 c70 -33 127 -65 127 -71 0 -25 -86 -138 -134
-176 -54 -44 -163 -98 -195 -98 -11 0 -22 8 -25 18 -2 9 -21 69 -40 133 -20
63 -36 118 -36 121 0 3 19 17 43 31 23 14 60 44 82 66 21 23 42 40 46 39 3 -2
63 -30 132 -63z m282 -190 c28 -36 49 -72 49 -80 -1 -8 1 -13 5 -12 16 5 156
-162 144 -173 -2 -3 -10 3 -17 13 -16 21 -27 22 -20 2 4 -10 0 -15 -12 -16
-11 0 -28 -2 -40 -4 -27 -6 -114 -55 -114 -65 0 -5 -14 -23 -31 -40 -17 -17
-29 -34 -26 -37 4 -3 1 -15 -5 -27 -16 -30 -19 -46 -23 -181 -2 -66 -4 -124
-4 -128 -1 -5 -6 -5 -11 -2 -6 4 -8 11 -5 16 4 5 2 9 -3 9 -16 0 -94 128 -86
141 4 7 3 9 -4 5 -6 -3 -22 8 -35 26 -38 51 -40 59 -20 52 10 -4 -3 14 -29 40
-47 46 -55 60 -40 69 4 2 1 2 -5 1 -16 -4 -36 33 -27 48 4 7 3 8 -4 4 -7 -4
-22 10 -38 33 -26 40 -25 67 3 57 8 -3 12 -2 9 2 -8 14 79 51 95 41 8 -5 21
-8 29 -8 8 0 5 4 -7 9 -13 5 -23 12 -23 16 0 3 7 3 16 0 8 -3 13 -2 9 3 -3 5
9 20 27 32 18 12 39 29 46 37 6 9 12 11 12 4 0 -6 -10 -18 -22 -26 -12 -9 -18
-16 -14 -16 15 0 46 32 46 47 0 8 5 11 12 7 7 -5 8 -3 3 5 -4 8 3 23 18 39 13
15 36 44 50 65 14 23 28 34 32 28 3 -6 -1 -14 -9 -17 -9 -3 -16 -16 -15 -28 0
-14 2 -16 6 -6 13 36 25 41 52 25 25 -16 26 -16 6 2 -30 27 -49 53 -39 53 5 0
32 -30 59 -65z m246 -391 c17 -9 59 -67 118 -163 50 -82 91 -152 91 -156 0
-16 -155 2 -195 22 -79 41 -164 153 -181 241 -5 24 -1 33 23 49 15 11 35 23
43 26 19 7 68 -2 101 -19z m-111 -334 c78 -62 144 -84 270 -90 l115 -5 28 -84
c28 -81 30 -99 60 -610 18 -289 36 -532 41 -540 6 -9 21 -12 46 -8 38 5 39 4
234 -193 124 -124 196 -204 196 -217 0 -11 -58 -403 -130 -870 -155 -1017
-147 -955 -126 -972 11 -9 84 -18 234 -28 278 -18 531 -39 536 -44 2 -2 9 -49
15 -104 10 -87 38 -237 57 -302 5 -18 1 -23 -17 -27 -13 -3 -368 -46 -789 -96
-1050 -123 -1001 -117 -1022 -137 -16 -17 -15 -29 7 -213 22 -184 93 -792 98
-835 1 -14 -5 -21 -23 -23 -48 -7 -50 -15 -50 -174 l0 -150 -37 6 c-21 3 -186
22 -368 41 -344 37 -412 48 -583 97 -273 78 -451 198 -532 358 -159 314 -39
857 441 2008 323 773 437 1012 657 1372 127 208 155 268 156 339 0 59 -9 84
-94 241 -22 41 -52 111 -67 155 -24 71 -27 95 -27 215 1 119 4 145 28 218 47
144 84 216 249 485 l66 108 91 -136 91 -137 20 -119 20 -119 -39 -98 c-64
-159 -84 -249 -89 -404 -4 -109 -2 -152 12 -208 27 -109 68 -146 110 -100 17
19 17 22 -3 92 -30 103 -35 170 -22 268 14 111 42 212 93 335 l40 100 -28 175
c-15 96 -39 220 -52 275 -25 105 -44 254 -36 285 4 15 14 6 45 -40 21 -33 56
-73 78 -90z m555 -146 c28 -37 69 -90 93 -119 41 -50 53 -73 32 -60 -5 3 -10
1 -10 -5 0 -7 6 -10 14 -7 16 6 41 -17 33 -31 -3 -4 -1 -14 5 -22 8 -12 9 -11
4 4 -7 19 -6 20 14 1 11 -10 18 -25 15 -32 -2 -8 -1 -12 4 -9 4 3 19 -6 31
-19 13 -14 21 -25 18 -25 -3 0 13 -19 34 -42 21 -23 37 -47 34 -54 -3 -7 5
-14 16 -17 13 -4 17 -10 12 -18 -4 -7 -3 -10 3 -6 10 6 117 -127 118 -147 2
-20 17 -46 25 -41 8 5 52 -41 105 -110 17 -22 41 -53 55 -70 37 -44 80 -103
80 -109 0 -3 -3 -5 -7 -3 -9 2 -13 -7 -13 -25 0 -7 5 -5 11 5 10 18 12 18 30
1 20 -18 27 -40 9 -29 -5 3 -10 1 -10 -5 0 -7 8 -9 21 -5 16 5 20 3 17 -11 -2
-10 2 -19 7 -19 23 -1 36 -18 30 -38 -4 -15 -3 -18 3 -9 13 19 55 -42 55 -80
0 -19 3 -24 9 -16 4 7 8 9 9 3 0 -5 3 -21 7 -35 9 -36 8 -130 -2 -165 -7 -27
-9 -28 -16 -10 -6 15 -7 11 -7 -16 1 -20 -4 -42 -10 -50 -27 -33 -85 -93 -77
-79 6 10 3 10 -7 -2 -26 -27 -63 -37 -126 -34 -103 5 -128 24 -383 281 -129
131 -229 235 -223 231 9 -5 11 -2 7 8 -3 9 -10 13 -15 10 -5 -3 -10 16 -10 43
-1 26 -4 82 -6 123 -3 41 -7 107 -9 145 -2 39 -8 128 -14 198 -6 71 -10 145
-9 165 1 72 -20 268 -35 315 -8 27 -12 56 -9 65 4 9 2 13 -4 9 -6 -4 -13 2
-16 13 -9 34 6 22 58 -46z m-1268 -246 c-4 -157 -8 -196 -30 -278 -14 -52 -28
-116 -32 -142 l-6 -48 -290 0 -289 0 0 325 0 325 325 0 326 0 -4 -182z m5403
-1456 c117 -229 295 -417 516 -546 121 -70 207 -195 208 -302 1 -54 -4 -72
-42 -144 -117 -223 -105 -456 32 -639 l26 -35 -48 -28 c-56 -33 -172 -79 -262
-104 -50 -14 -103 -18 -225 -19 -141 0 -169 3 -235 23 -195 62 -339 168 -452
336 -225 330 -196 838 70 1216 64 91 183 212 275 281 43 33 80 59 82 59 2 0
27 -44 55 -98z m-1132 -1497 c134 -28 252 -76 422 -170 63 -35 127 -67 142
-70 l28 -7 -29 -42 c-39 -56 -100 -180 -115 -230 -13 -47 -2 -231 15 -246 18
-17 58 -78 54 -83 -3 -4 -2 -5 1 -2 9 6 86 -34 80 -43 -2 -4 8 -8 22 -9 14 0
31 -8 36 -15 10 -14 56 -31 56 -22 0 3 -10 9 -22 15 -20 8 -19 9 7 3 91 -18
283 2 376 40 19 7 40 11 48 8 9 -3 11 0 6 8 -6 10 -2 12 13 8 12 -4 20 -3 18
0 -2 4 35 26 81 50 46 23 82 38 79 34 -2 -4 4 -8 14 -8 13 0 16 4 10 12 -16
18 2 25 25 10 18 -12 22 -12 22 -1 0 8 -4 12 -8 9 -4 -2 -10 0 -13 5 -4 5 10
19 30 32 20 12 48 33 63 47 43 40 78 62 85 54 4 -4 6 -2 4 4 -1 6 18 34 45 62
26 28 47 45 47 37 0 -7 -5 -16 -10 -18 -6 -3 -5 -4 2 -3 7 1 15 17 19 35 4 18
12 38 19 44 6 7 10 8 8 2 -2 -5 1 -12 7 -15 5 -3 10 2 11 10 0 19 15 70 20 70
2 0 14 -5 28 -11 16 -8 22 -17 18 -28 -5 -13 -3 -14 9 -4 11 9 25 10 52 2 39
-11 42 -29 4 -29 -18 0 -19 2 -7 10 17 11 10 13 -14 4 -9 -3 -13 -10 -10 -15
3 -5 1 -9 -5 -9 -5 0 -17 -3 -27 -7 -12 -4 -15 -3 -10 5 4 7 2 12 -3 12 -6 0
-11 -7 -11 -15 0 -10 -10 -15 -30 -15 -16 0 -30 -4 -30 -10 0 -5 6 -7 13 -5 8
4 13 -6 14 -30 3 -56 5 -63 24 -58 9 3 20 0 23 -6 4 -6 13 -11 19 -11 9 0 8 3
-1 8 -16 11 96 46 144 46 19 0 34 3 34 7 0 10 106 20 258 25 91 3 132 1 132
-6 0 -6 4 -9 9 -6 12 8 132 -23 150 -38 8 -6 16 -10 18 -8 10 7 33 1 28 -8 -3
-5 0 -7 8 -4 16 6 68 -12 66 -23 -3 -20 2 -27 11 -13 8 13 10 13 10 -1 0 -9 7
-29 14 -45 8 -15 13 -31 10 -36 -3 -4 -1 -8 3 -8 14 0 45 -60 39 -76 -7 -17 3
-44 15 -44 6 0 5 9 -1 20 -21 39 5 19 40 -31 19 -27 59 -70 88 -95 28 -25 52
-52 52 -59 0 -8 4 -17 10 -20 6 -4 7 1 3 12 -6 16 -5 17 13 3 10 -8 28 -22 39
-31 11 -10 23 -18 27 -19 22 -2 37 -13 31 -23 -3 -5 -1 -7 5 -4 15 10 43 -3
35 -16 -3 -6 -1 -7 6 -3 11 7 81 -13 81 -24 0 -3 12 -7 26 -8 14 -1 31 -5 37
-9 7 -4 18 -8 27 -9 8 -1 44 -7 80 -13 36 -7 76 -13 90 -14 14 -2 39 -16 55
-33 48 -48 115 -132 115 -143 0 -6 5 -11 11 -11 6 0 8 -8 4 -19 -4 -14 -1 -19
12 -17 22 1 164 -209 156 -230 -3 -9 0 -14 8 -12 8 2 13 -4 13 -14 -1 -10 2
-15 7 -12 5 3 9 -1 9 -10 0 -8 3 -16 8 -18 14 -6 103 -199 96 -210 -4 -6 -3
-8 3 -5 13 8 25 -35 17 -60 -4 -14 -3 -15 4 -4 7 10 14 0 27 -38 9 -28 14 -55
10 -61 -3 -5 -2 -10 4 -10 12 0 60 -152 65 -203 2 -19 6 -39 10 -45 4 -7 4
-29 1 -49 -3 -26 -3 -32 3 -18 11 24 23 -56 27 -175 2 -41 6 -97 9 -125 3 -27
3 -42 -1 -33 -5 9 -9 -47 -10 -125 -1 -78 -8 -182 -17 -232 -9 -49 -18 -106
-21 -125 -3 -19 -13 -43 -23 -54 -9 -11 -11 -16 -4 -12 9 5 7 -5 -4 -36 -21
-52 -23 -55 -32 -41 -4 6 -7 -8 -8 -30 0 -23 -9 -60 -19 -82 -10 -22 -19 -42
-20 -45 -10 -39 -31 -78 -38 -73 -6 4 -7 1 -3 -6 9 -14 -33 -123 -44 -116 -5
3 -6 -4 -3 -15 3 -12 0 -20 -6 -20 -7 0 -10 -3 -7 -8 2 -4 -3 -23 -11 -42 -9
-19 -17 -39 -19 -45 -21 -67 -38 -104 -46 -99 -5 3 -9 0 -7 -7 4 -32 -2 -58
-16 -72 -8 -8 -12 -16 -10 -19 2 -2 -13 -46 -34 -97 -22 -54 -41 -88 -45 -80
-3 8 -3 4 0 -8 3 -12 -6 -44 -21 -74 -14 -29 -25 -58 -25 -65 0 -29 -73 -251
-88 -268 -9 -11 -11 -16 -5 -12 9 5 11 2 7 -8 -3 -9 -9 -14 -13 -12 -3 2 -7
-8 -7 -22 -1 -15 -9 -45 -19 -67 -10 -22 -19 -46 -21 -54 -1 -8 -6 -17 -11
-20 -8 -6 -11 -14 -19 -55 -2 -11 -7 -22 -11 -25 -5 -3 -8 -10 -8 -16 0 -21
-68 -175 -77 -175 -6 0 -8 -6 -5 -13 3 -7 -2 -29 -11 -48 -8 -18 -16 -36 -17
-39 -1 -3 -7 -18 -14 -35 -15 -35 -55 -140 -78 -204 -11 -31 -18 -39 -24 -30
-6 9 -7 1 -3 -18 4 -22 3 -33 -5 -33 -7 0 -9 -4 -6 -10 3 -5 1 -10 -5 -10 -6
0 -9 -4 -6 -8 4 -8 -34 -162 -50 -202 -3 -8 -8 -31 -10 -50 -8 -74 -12 -90
-25 -106 -7 -9 -14 -23 -15 -31 -2 -9 -8 -29 -15 -45 -9 -22 -14 -26 -21 -16
-6 9 -7 6 -3 -9 4 -14 2 -23 -5 -23 -6 0 -9 -3 -7 -7 8 -14 -12 -53 -25 -49
-7 1 -10 1 -5 -1 4 -3 7 -9 7 -14 0 -6 -3 -8 -7 -6 -5 3 -9 -7 -10 -21 0 -14
-8 -31 -17 -37 -9 -7 -13 -14 -10 -18 3 -3 -4 -24 -16 -47 -12 -24 -20 -53
-17 -65 3 -18 0 -22 -12 -18 -11 4 -9 0 4 -10 26 -21 94 -22 101 -2 4 8 11 12
17 8 6 -3 7 -1 3 5 -7 12 28 85 36 76 3 -3 6 7 6 21 0 14 7 34 16 44 9 10 13
20 10 24 -3 3 2 16 11 29 11 14 15 16 12 6 -4 -10 -2 -20 3 -23 6 -4 10 -13
10 -21 0 -8 -4 -12 -10 -9 -6 3 -7 -1 -3 -10 4 -11 8 -13 13 -5 9 15 43 -37
34 -53 -4 -7 -4 -9 1 -5 11 11 47 -50 39 -65 -4 -7 -4 -9 1 -5 17 16 87 -165
78 -201 -3 -12 -1 -21 6 -21 7 0 11 -25 11 -69 l0 -69 -34 -12 c-19 -6 -65 -9
-102 -7 -38 2 -76 1 -84 -4 -9 -4 -95 -10 -192 -13 -97 -3 -183 -9 -191 -12
-8 -3 -151 -6 -318 -7 -167 -1 -306 -5 -309 -9 -3 -3 -47 -8 -98 -10 -50 -1
-92 -6 -92 -9 0 -6 -114 -43 -135 -44 -5 0 -12 -2 -15 -5 -3 -3 -39 -18 -80
-34 -41 -15 -88 -34 -105 -41 -74 -33 -134 -52 -128 -42 4 7 0 6 -10 -1 -9 -8
-25 -11 -38 -7 -14 5 -19 3 -15 -3 9 -15 -15 -26 -129 -56 -55 -15 -107 -30
-115 -33 -8 -3 -17 -7 -20 -7 -3 -1 -9 -4 -15 -8 -19 -11 -267 -69 -284 -66
-10 2 -24 -2 -32 -8 -22 -17 -175 -45 -205 -38 -19 5 -25 4 -20 -5 4 -6 4 -11
-1 -9 -4 1 -39 -3 -78 -10 -38 -6 -77 -11 -85 -12 -8 0 -71 -7 -140 -15 -69
-8 -153 -14 -188 -12 -34 2 -65 0 -69 -6 -5 -9 -29 -6 -68 8 -16 6 -17 5 -5
-4 11 -9 -26 -11 -150 -8 -272 6 -458 17 -486 27 -14 6 -30 8 -34 5 -5 -3 -39
-3 -75 1 -37 4 -62 10 -57 13 6 3 -13 6 -41 7 -76 1 -178 14 -197 24 -10 5
-20 7 -23 4 -8 -9 -191 27 -214 42 -12 8 -28 14 -35 13 -7 0 -4 -4 7 -9 30
-13 7 -11 -65 6 -36 8 -78 17 -95 20 -16 3 -37 8 -45 11 -8 3 -26 7 -39 9 -13
2 -31 6 -40 10 -9 4 -28 8 -42 10 -14 2 -38 10 -54 18 -15 8 -34 12 -43 9 -10
-4 -13 -2 -8 5 5 8 -1 11 -16 10 -13 -1 -41 5 -63 12 -50 17 -44 16 -82 25
-19 4 -30 12 -26 18 3 5 1 7 -4 4 -30 -19 -194 80 -193 116 0 7 7 3 15 -7 8
-11 15 -15 15 -9 0 13 -25 35 -32 28 -3 -3 -11 1 -18 10 -8 10 -9 15 -1 15 6
0 11 5 11 11 0 6 -6 9 -14 6 -40 -16 -45 99 -10 233 34 127 34 127 41 188 3
28 10 52 15 52 5 0 6 -5 2 -12 -5 -7 -3 -8 6 -3 8 5 224 9 481 9 257 1 462 -2
456 -6 -8 -5 -6 -8 6 -8 9 0 17 5 17 11 0 6 30 10 83 10 45 0 145 4 222 9 77
5 185 11 241 13 55 2 105 7 111 10 10 6 181 18 300 21 28 0 49 4 46 9 -2 4 20
7 49 8 29 0 62 2 73 5 40 8 475 63 530 67 17 1 35 5 40 8 6 4 37 10 70 14 32
4 66 8 75 10 81 18 83 18 75 4 -6 -10 -3 -9 11 2 10 9 62 24 114 34 52 10 196
42 320 72 124 31 232 56 240 57 8 0 17 3 20 6 4 5 74 28 92 30 4 1 36 13 70
27 35 14 70 26 78 27 8 1 34 12 58 24 23 13 42 20 42 18 0 -3 27 10 60 29 54
30 62 33 85 21 13 -7 21 -17 17 -21 -4 -5 -2 -5 4 -2 7 4 37 -2 68 -12 49 -16
64 -17 119 -7 34 7 74 20 88 29 14 9 29 14 34 10 4 -5 5 -3 2 3 -6 11 68 91
81 87 4 -2 7 0 7 5 0 16 17 32 27 26 7 -4 8 -2 4 5 -9 13 18 43 29 33 5 -4 5
-2 2 4 -9 16 13 32 40 29 14 -1 19 3 16 12 -4 10 -9 11 -19 2 -26 -21 -14 6
16 39 17 18 30 35 30 38 0 8 38 42 43 38 3 -3 8 0 13 7 4 8 3 10 -4 5 -7 -4
-12 -4 -12 1 1 12 48 63 59 63 5 0 13 5 17 12 4 7 3 8 -4 4 -17 -10 -15 9 2
23 11 9 15 9 18 -1 3 -8 7 -6 11 6 4 10 3 15 -3 11 -17 -10 -11 12 7 26 11 10
14 10 9 2 -11 -19 -1 -16 15 4 10 11 10 14 2 9 -19 -11 -16 2 8 35 11 16 24
27 29 24 5 -3 12 0 16 6 5 8 3 9 -6 4 -8 -5 -11 -3 -8 6 3 8 11 13 17 11 7 -1
10 2 6 7 -11 19 24 58 50 55 14 -1 23 2 20 6 -3 5 -12 7 -20 3 -24 -8 -18 5
28 65 36 47 71 95 119 166 4 6 13 4 24 -5 16 -13 16 -12 3 8 -12 20 -11 25 8
45 12 13 23 28 24 33 4 22 32 54 41 49 6 -4 8 -1 6 7 -5 13 69 131 97 154 6 6
22 29 35 53 14 25 29 41 37 38 7 -3 13 -1 13 4 0 6 -6 10 -12 10 -9 0 -10 2
-2 8 6 4 13 25 15 47 l4 40 -42 3 c-33 2 -47 -2 -60 -17 -13 -16 -19 -18 -26
-8 -6 8 -7 4 -4 -11 4 -18 2 -22 -9 -18 -8 3 -12 1 -9 -4 10 -17 -14 -50 -33
-44 -13 5 -14 4 -4 -4 12 -8 12 -13 0 -31 -7 -12 -18 -19 -24 -17 -7 3 -10 -3
-7 -15 3 -11 -1 -21 -11 -25 -9 -3 -16 -11 -16 -18 0 -6 -9 -22 -20 -36 -16
-20 -19 -21 -14 -5 4 11 4 17 -1 13 -4 -4 -8 -18 -9 -30 -1 -13 -7 -22 -15
-20 -7 1 -9 -2 -6 -8 4 -6 -1 -18 -11 -25 -11 -8 -15 -15 -11 -15 5 0 -2 -13
-15 -29 -12 -16 -50 -68 -83 -116 -33 -48 -66 -94 -73 -103 -15 -18 -14 -15 4
36 6 13 4 14 -6 5 -7 -6 -13 -25 -14 -42 -1 -17 -6 -35 -12 -41 -8 -8 -10 -2
-9 20 1 17 -1 33 -5 35 -3 2 -6 -17 -6 -42 1 -36 -3 -49 -21 -60 -16 -11 -23
-11 -29 -2 -5 8 -3 9 6 4 9 -5 11 -4 6 4 -4 6 -12 9 -17 5 -5 -3 -7 -9 -5 -13
3 -4 1 -13 -4 -21 -5 -8 -5 -19 1 -26 6 -8 3 -16 -8 -25 -17 -13 -17 -13 -3 6
14 19 14 19 -3 6 -10 -8 -16 -19 -14 -25 2 -6 0 -15 -5 -21 -5 -5 -46 -59 -91
-120 -50 -66 -90 -109 -99 -109 -10 1 -14 -4 -11 -12 7 -20 -104 -145 -122
-137 -8 3 -15 1 -15 -5 0 -6 5 -12 12 -14 8 -3 7 -6 -4 -10 -12 -5 -15 0 -13
25 1 18 -2 37 -6 42 -4 6 -10 44 -13 85 -3 41 -10 91 -16 110 -5 19 -15 62
-21 95 -6 33 -17 81 -25 106 -9 25 -16 52 -17 60 -2 8 -6 20 -10 27 -5 7 -6
22 -3 35 3 12 3 16 0 8 -8 -16 -42 75 -54 139 -4 25 -8 38 -10 30 -2 -15 -21
33 -22 58 -1 6 -5 12 -9 12 -4 0 -11 15 -14 32 -4 18 -12 39 -17 46 -6 6 -7
12 -4 12 4 0 0 7 -9 16 -9 10 -14 25 -12 36 3 11 1 16 -6 11 -7 -4 -8 0 -3 13
4 10 4 15 0 11 -11 -10 -44 60 -38 80 4 11 3 14 -3 7 -5 -8 -17 3 -35 33 -16
24 -22 41 -15 37 6 -4 2 4 -10 17 -50 56 -102 133 -96 143 3 6 2 8 -2 3 -12
-10 -65 42 -59 58 3 7 1 16 -5 20 -7 4 -8 -1 -4 -12 4 -10 -27 12 -69 50 -42
37 -80 67 -84 67 -19 1 -55 40 -48 51 5 9 2 10 -11 6 -11 -5 -34 3 -64 22 -56
36 -225 121 -238 121 -6 0 -16 7 -23 15 -7 8 -16 13 -20 10 -11 -7 -60 16 -60
27 0 4 -3 7 -7 7 -22 -4 -43 3 -58 17 -9 9 -18 14 -21 11 -8 -8 -89 20 -87 31
1 5 -7 7 -19 4 -16 -4 -19 -2 -13 8 5 9 4 11 -3 6 -6 -4 -30 -1 -53 5 -34 11
-38 14 -23 21 14 6 12 7 -8 3 -15 -3 -55 2 -90 11 -35 8 -72 17 -83 18 -11 2
-24 4 -28 5 -5 0 -5 7 -1 14 6 8 3 8 -9 -1 -13 -11 -38 -12 -136 -3 -66 6
-145 11 -176 11 l-57 0 170 109 c335 214 574 395 753 571 143 140 194 217 260
392 81 214 160 387 181 394 10 3 18 10 18 15 0 6 -6 7 -12 3 -16 -10 20 46 55
85 15 17 23 31 18 31 -5 0 -16 -10 -26 -22 -15 -21 -15 -20 1 7 39 68 40 69
58 43 9 -12 16 -18 16 -13 0 6 -6 18 -14 27 -7 10 -11 31 -8 50 4 28 6 30 13
13 6 -16 8 -16 8 -3 1 17 -52 68 -71 68 -5 0 -22 -13 -38 -29 -16 -16 -32 -26
-36 -22 -4 3 -4 -1 -2 -9 3 -8 1 -23 -4 -34 -8 -15 -12 -16 -20 -5 -7 10 -7 7
-3 -9 7 -25 -11 -56 -28 -45 -6 3 -7 1 -3 -5 12 -20 -6 -63 -31 -73 -20 -7
-24 -14 -19 -32 6 -23 -32 -119 -44 -112 -4 3 -7 -7 -7 -21 0 -13 -8 -33 -17
-43 -9 -10 -14 -20 -11 -23 3 -2 -6 -31 -19 -63 -13 -32 -25 -54 -28 -49 -3 5
-3 4 -2 -3 5 -19 -17 -74 -26 -68 -4 3 -6 -5 -2 -17 4 -15 2 -19 -8 -13 -8 5
-11 3 -8 -6 12 -36 -59 -179 -88 -179 -9 0 -12 5 -9 10 3 6 1 10 -5 10 -7 0
-9 -7 -6 -16 3 -9 3 -21 -1 -27 -4 -7 -8 -18 -9 -25 -3 -17 -24 -42 -36 -42
-5 0 -7 4 -4 8 3 5 -1 9 -9 9 -11 0 -12 -4 -3 -14 9 -11 0 -24 -41 -64 -28
-27 -56 -47 -61 -44 -5 3 -7 -1 -4 -9 3 -8 -3 -19 -15 -26 l-21 -11 0 448 c1
413 -1 449 -17 460 -13 10 -235 13 -1064 13 l-1047 0 -6 28 c-5 28 -12 84 -22
182 -3 30 -8 69 -10 85 -10 80 -11 132 -2 149 7 13 12 15 18 7 5 -9 9 -8 13 4
4 9 3 13 -3 10 -17 -11 -11 7 15 41 18 24 30 31 43 27 15 -6 15 -5 4 10 -15
18 -7 41 10 31 6 -4 8 -2 5 3 -7 12 79 123 95 123 5 0 7 4 4 8 -6 10 54 71 69
71 5 0 11 5 13 13 2 9 0 8 -7 -2 -6 -8 -11 -10 -11 -5 0 6 19 29 42 50 23 22
38 34 33 26 -5 -10 -4 -12 4 -7 6 4 9 11 6 16 -5 9 132 151 143 147 4 -1 8 1
10 5 2 4 9 23 17 42 13 30 13 36 -1 47 -8 7 -12 19 -9 27 4 12 3 12 -9 3 -11
-9 -15 -8 -19 3 -3 8 -2 17 4 20 5 2 5 4 -2 3 -6 -2 -9 -6 -7 -10 2 -4 -13
-17 -32 -28 -19 -12 -40 -28 -46 -37 -7 -9 -16 -12 -25 -7 -8 5 -11 4 -6 0 10
-12 -63 -86 -77 -78 -6 3 -8 3 -4 -2 8 -8 -6 -27 -127 -162 -44 -49 -100 -118
-124 -152 -75 -104 -75 -103 -95 70 -10 82 -15 157 -12 166 4 9 2 19 -3 22 -5
4 -12 40 -15 81 -4 41 -11 102 -16 135 -6 40 -5 63 2 72 7 9 7 13 0 13 -6 0
-14 17 -18 38 -4 20 -11 46 -17 57 -6 11 -10 23 -9 28 1 4 -6 3 -15 -2 -18
-10 -257 -40 -369 -46 l-61 -3 -21 91 c-39 170 -48 247 -28 247 6 0 5 4 -3 9
-8 5 -11 16 -8 24 3 8 0 20 -6 27 -9 9 -1 22 38 56 73 65 98 70 269 54 295
-27 498 4 917 139 169 55 289 83 394 95 67 7 252 -4 323 -19z m1999 -275 c61
-39 124 -57 243 -70 127 -14 147 -18 204 -46 42 -21 116 -74 103 -74 -2 0 -55
13 -118 29 -63 16 -166 34 -229 40 -118 12 -193 26 -314 62 l-69 21 59 34 c32
18 62 34 66 34 4 0 29 -14 55 -30z m-3430 -1125 c39 -330 72 -612 72 -627 l1
-28 -240 0 -240 0 -4 23 c-9 37 -136 1123 -136 1155 l0 30 98 11 c53 7 144 18
202 26 58 7 121 12 140 12 l35 -2 72 -600z m-581 -55 c38 -325 68 -593 65
-595 -2 -3 -111 -5 -242 -5 l-237 0 -5 33 c-14 84 -130 1097 -126 1101 6 6
381 53 434 55 l40 1 71 -590z m-7096 515 c1455 -9 2664 -18 2686 -21 61 -7
128 -56 155 -111 l22 -46 -12 -1778 c-9 -1337 -15 -1787 -24 -1813 -17 -48
-61 -95 -112 -117 -42 -19 -83 -19 -2207 -4 -1189 8 -2301 15 -2470 15 l-308
0 0 66 0 66 588 -6 c323 -4 1387 -11 2364 -17 1633 -10 1781 -10 1826 5 67 23
125 75 159 144 l28 57 6 920 c4 506 7 1227 8 1602 2 675 2 683 -19 730 -34 77
-94 131 -174 155 -27 8 -2719 29 -4961 40 l-660 3 -53 -24 c-68 -31 -128 -98
-147 -165 -12 -43 -16 -301 -25 -1581 l-11 -1529 -43 -46 c-23 -25 -55 -67
-70 -93 -16 -26 -29 -47 -31 -45 -1 2 3 781 9 1733 11 1640 13 1732 30 1764
22 42 62 79 101 97 40 18 170 18 3345 -1z m6463 -132 c9 -76 37 -311 62 -523
25 -212 48 -402 51 -422 l6 -38 -246 0 c-190 0 -246 3 -246 13 0 6 -27 245
-61 530 -34 284 -60 520 -57 522 6 7 372 52 429 54 l46 1 16 -137z m-534 -444
c34 -279 61 -514 61 -523 0 -15 -23 -16 -242 -14 l-242 3 -59 493 c-32 272
-56 496 -54 498 8 8 462 61 469 55 4 -3 34 -234 67 -512z m-5657 346 c2052
-12 2209 -15 2243 -31 43 -20 80 -66 92 -114 11 -46 -4 -3057 -16 -3137 -11
-76 -37 -114 -96 -143 l-45 -22 -2398 16 c-2396 15 -2398 15 -2488 37 -94 23
-234 30 -315 16 l-47 -8 -32 58 c-55 97 -262 283 -315 283 -9 0 -32 -11 -52
-25 -20 -13 -38 -23 -40 -21 -2 2 2 671 7 1487 11 1396 12 1486 29 1525 19 43
63 81 109 94 15 4 281 5 592 3 311 -2 1558 -10 2772 -18z m10222 -950 c-4 -8
-8 -15 -10 -15 -2 0 -4 7 -4 15 0 8 4 15 10 15 5 0 7 -7 4 -15z m-274 -619 c0
-2 -8 -10 -17 -17 -16 -13 -17 -12 -4 4 13 16 21 21 21 13z m-193 -1191 c124
-41 273 -98 331 -127 92 -44 119 -63 193 -137 258 -258 483 -686 563 -1073 20
-98 20 -123 -4 -175 -121 -268 -918 -513 -2105 -647 -549 -62 -810 -77 -1423
-83 -746 -7 -1218 16 -1747 88 -395 54 -482 87 -754 287 -367 271 -520 522
-427 700 l17 32 64 -74 c70 -80 204 -193 330 -277 95 -64 360 -199 390 -199
29 0 45 19 45 53 0 26 -7 32 -94 72 -216 100 -377 207 -525 350 -153 148 -239
275 -272 404 -30 116 -3 177 90 205 l41 12 98 -96 c140 -136 343 -275 563
-385 101 -51 134 -53 145 -10 8 34 -7 50 -80 87 -34 16 -119 64 -189 106 -98
58 -126 79 -121 91 87 198 45 337 -131 427 l-50 26 75 -5 c102 -7 236 -52 407
-136 226 -112 299 -130 524 -131 104 0 119 2 144 22 24 19 27 26 23 67 -3 31
-17 66 -43 105 -53 83 -91 171 -105 243 -16 81 -10 94 23 45 77 -117 286 -167
431 -104 l45 20 84 -87 c47 -48 97 -107 112 -130 15 -23 37 -43 49 -46 47 -9
831 -13 971 -4 476 30 925 98 1101 167 27 11 141 64 254 117 365 172 616 269
709 274 13 0 125 -33 248 -74z m-3844 3 c42 -10 222 -127 220 -143 -4 -23
-121 -32 -186 -14 -49 13 -115 73 -138 124 -17 37 -17 40 -1 47 17 6 36 4 105
-14z m-2603 -78 l0 -80 -315 0 -315 0 0 80 0 80 315 0 315 0 0 -80z m1630 6
c0 -70 -2 -75 -22 -78 -13 -2 -185 -2 -383 0 -402 5 -567 -2 -590 -25 -39 -39
-5 -83 64 -83 l47 0 104 -116 c58 -64 116 -130 129 -146 l23 -29 -25 -27 c-42
-45 -57 -86 -57 -155 0 -68 32 -192 74 -283 l25 -54 -27 -45 -27 -44 -94 -1
c-74 0 -98 -4 -113 -17 -22 -20 -23 -41 -1 -65 13 -15 32 -18 103 -18 l88 0 4
-62 c3 -35 5 -64 4 -64 -1 -1 -193 -4 -428 -7 l-428 -5 0 69 0 69 164 0 c159
0 165 1 180 22 20 29 20 34 -4 58 -18 18 -33 20 -180 20 l-160 0 0 85 0 85
225 0 225 0 16 25 c15 23 15 27 0 50 l-16 25 -225 0 -225 0 0 69 0 68 46 7
c26 3 96 6 155 6 100 0 109 2 120 21 8 16 8 28 0 45 -10 24 -12 24 -166 24
l-156 0 3 73 3 72 273 5 c228 4 274 7 282 20 15 23 12 38 -10 60 -19 19 -33
20 -285 20 l-265 0 0 70 0 70 103 0 c112 0 127 6 127 52 0 39 -25 48 -134 48
l-96 0 0 73 c0 41 3 77 7 80 3 4 348 7 765 7 l758 0 0 -74z m-320 -185 c0 -5
-19 -21 -43 -34 -44 -26 -82 -74 -107 -137 -17 -40 -40 -70 -55 -70 -9 0 -201
207 -218 237 -7 11 29 13 208 13 121 0 215 -4 215 -9z m320 -6 c0 -12 -7 -14
-27 -9 -62 15 -69 23 -20 23 36 1 47 -3 47 -14z m-1630 -65 l0 -70 -320 0
-320 0 0 24 c0 13 3 44 6 70 l7 46 313 0 314 0 0 -70z m-6640 -141 c90 -77
153 -160 152 -199 0 -16 3 -32 9 -35 5 -3 6 2 3 12 -5 15 -4 16 5 3 6 -8 11
-35 11 -60 0 -51 -32 -154 -45 -142 -4 4 -5 2 -1 -5 8 -15 -50 -119 -65 -115
-7 2 -9 -4 -5 -14 4 -10 -3 -29 -19 -50 -14 -18 -25 -37 -25 -41 0 -5 -15 -24
-32 -43 -18 -18 -27 -30 -19 -25 10 6 12 4 7 -4 -5 -7 -14 -10 -22 -7 -7 3
-16 0 -20 -6 -4 -7 -3 -8 4 -4 7 4 12 2 12 -4 0 -16 -42 -70 -54 -70 -6 0 -5
5 2 12 7 7 12 17 12 23 0 5 -4 4 -9 -4 -10 -16 -31 -6 -31 15 0 8 -5 14 -11
14 -6 0 -8 7 -5 15 15 37 16 48 3 26 l-14 -23 -21 37 c-23 37 -30 62 -11 35 9
-13 10 -13 6 0 -2 8 -9 14 -16 13 -6 -2 -29 33 -51 78 -22 44 -34 77 -27 73 6
-4 1 4 -12 19 -12 14 -20 30 -16 36 3 6 2 11 -3 11 -5 0 -13 15 -17 33 -5 17
-10 39 -12 47 -11 45 -14 110 -4 110 6 0 7 7 4 17 -4 10 -2 14 4 10 6 -4 16 0
23 8 11 13 10 14 -5 9 -16 -7 -16 -5 -1 25 9 17 21 29 26 26 6 -4 7 1 3 11 -4
12 -3 15 5 10 8 -4 12 -1 12 10 0 18 127 144 145 144 5 0 2 -7 -9 -15 -18 -13
-18 -14 2 -12 12 0 19 7 17 17 -3 19 13 40 31 40 7 0 45 -27 84 -61z m8015 18
c105 -43 146 -91 144 -174 -1 -55 -20 -118 -37 -118 -15 0 -141 106 -197 166
-50 53 -51 62 -23 131 12 32 25 31 113 -5z m-1655 -53 c0 -9 -110 -145 -164
-202 -46 -49 -50 -51 -65 -35 -122 136 -131 149 -131 197 l0 46 180 0 c99 0
180 -2 180 -6z m280 -69 l0 -75 -130 0 -130 0 56 75 56 75 74 0 74 0 0 -75z
m-7132 -161 c32 -13 42 -29 20 -36 -8 -3 -8 -9 1 -24 11 -16 12 -16 7 -1 -4
12 -2 16 5 11 7 -4 9 -23 6 -48 -3 -22 -3 -35 0 -28 3 8 16 -17 28 -55 13 -37
21 -72 17 -78 -3 -5 -2 -7 3 -3 11 10 47 -71 38 -85 -3 -5 -2 -8 3 -5 5 3 23
-18 40 -47 17 -29 26 -52 20 -51 -6 2 -8 1 -3 -2 11 -6 70 -93 65 -97 -6 -6
-258 15 -300 25 -24 6 -56 13 -73 16 -86 16 -174 81 -206 153 -20 47 -25 65
-9 41 6 -9 10 -10 10 -3 0 7 -6 16 -14 20 -29 16 -50 243 -23 243 8 0 7 3 -3
10 -12 7 -11 10 5 15 11 4 30 11 43 16 13 5 28 7 33 4 5 -4 9 -2 9 3 0 5 6 9
13 10 6 1 37 5 67 10 64 11 151 5 198 -14z m1052 5 c25 -6 62 -15 84 -20 l39
-10 -5 -121 c-4 -79 -9 -123 -17 -128 -7 -4 -11 -13 -10 -21 5 -23 -12 -60
-23 -53 -6 4 -8 1 -6 -7 9 -25 -24 -70 -47 -64 -11 3 -14 2 -7 -1 17 -8 15
-27 -3 -21 -8 4 -17 1 -21 -5 -4 -7 -3 -8 4 -4 7 4 12 5 12 2 0 -3 -18 -15
-40 -26 -63 -32 -203 -61 -306 -63 -52 -1 -94 -5 -94 -9 0 -5 -18 -8 -40 -8
-45 0 -49 8 -19 36 12 10 27 31 35 46 8 16 19 27 25 25 7 -1 14 5 16 13 4 13
3 13 -6 0 -6 -8 -11 -12 -11 -8 0 4 18 35 40 69 21 33 42 70 45 80 4 11 10 17
15 14 9 -6 23 25 15 33 -3 3 -5 -1 -5 -8 0 -7 -2 -11 -5 -8 -3 2 4 23 15 45
11 23 25 63 32 90 6 26 18 55 25 64 7 8 13 20 13 25 0 5 -5 2 -10 -6 -8 -12
-10 -9 -10 11 0 28 25 47 34 26 2 -7 5 -5 5 5 2 28 115 31 231 7z m5516 -101
c25 -27 50 -48 55 -48 28 0 80 33 122 79 l48 51 169 0 170 0 0 -70 0 -70 -344
0 -344 0 18 38 c10 20 21 52 25 71 7 33 8 34 22 16 7 -11 34 -41 59 -67z
m-4072 -165 l77 -6 -3 -351 -3 -351 -28 -57 c-53 -107 -132 -156 -276 -168
-152 -14 -233 -51 -319 -145 -65 -71 -99 -141 -114 -237 l-13 -78 -457 0
c-252 0 -458 4 -458 8 0 5 41 235 90 513 50 277 90 518 88 535 -2 27 6 39 55
84 62 56 111 144 123 218 l7 42 577 0 c317 0 612 -3 654 -7z m4636 -79 l0 -86
-344 8 -344 7 -15 -24 c-19 -28 -13 -65 11 -74 10 -4 169 -9 355 -12 l337 -6
0 -68 c0 -64 -2 -69 -22 -69 -45 0 -76 -58 -46 -88 7 -7 25 -12 40 -12 l28 0
0 -70 0 -70 -228 0 c-247 0 -272 -5 -272 -55 0 -50 25 -55 271 -55 l227 0 1
-205 0 -205 -412 0 c-308 0 -416 -3 -425 -12 -19 -19 -15 -66 7 -78 13 -6 165
-10 425 -10 l406 0 0 -40 0 -40 -1417 2 -1418 3 -3 42 -3 43 172 2 c149 3 173
5 183 20 7 11 7 26 0 45 l-9 28 -173 3 -172 2 0 74 0 74 128 7 c70 4 290 5
490 3 387 -6 392 -6 392 42 0 56 -65 62 -613 59 l-392 -2 -3 72 -3 71 85 0
c74 0 87 3 96 19 30 57 0 81 -101 81 l-79 0 0 75 0 75 263 0 262 0 56 -61 c75
-84 98 -84 183 0 57 57 65 61 107 61 25 0 50 5 57 12 17 17 15 53 -3 68 -22
18 -20 24 36 95 l51 65 73 0 c54 0 78 4 89 16 20 19 20 44 2 70 -14 18 -32 19
-468 22 -249 1 -510 2 -580 2 l-128 0 0 71 0 71 978 -6 c824 -5 982 -4 1012 8
28 11 119 14 443 15 l407 1 0 -86z m-3067 69 l127 -6 0 -689 0 -688 -53 0 -53
0 -11 71 c-26 165 -139 302 -296 356 -23 8 -81 19 -129 23 -47 5 -106 17 -131
28 -83 37 -154 131 -172 227 -4 22 -4 185 0 363 l8 322 291 0 c160 0 348 -3
419 -7z m11147 -153 c0 -5 -5 -10 -11 -10 -5 0 -7 5 -4 10 3 6 8 10 11 10 2 0
4 -4 4 -10z m-10548 -164 c31 -33 57 -64 58 -68 0 -5 -97 -8 -215 -8 l-215 0
0 68 c0 38 2 71 6 74 3 3 73 3 157 1 l152 -5 57 -62z m508 66 c0 -9 -161 -211
-187 -235 -20 -17 -23 -14 -132 107 -61 69 -111 127 -111 130 0 3 97 6 215 6
118 0 215 -3 215 -8z m-1928 -220 c-4 -184 5 -258 42 -336 61 -132 181 -210
348 -225 57 -6 115 -18 142 -29 89 -40 175 -143 192 -230 l7 -32 -654 0 c-360
0 -819 3 -1021 7 -420 7 -389 -2 -338 101 59 117 159 178 313 192 51 5 112 16
137 24 97 35 201 140 236 240 14 41 18 92 22 254 l4 202 286 0 287 0 -3 -168z
m-2275 33 l-10 -55 -573 0 -572 0 -11 50 c-6 28 -11 53 -11 55 0 3 267 5 593
5 l594 0 -10 -55z m7013 -97 c-100 -126 -161 -198 -168 -197 -4 0 -56 56 -115
125 l-108 124 216 0 217 0 -42 -52z m-505 26 c8 -9 79 -87 157 -175 77 -87
149 -161 159 -164 43 -14 119 57 267 248 87 112 69 112 147 1 22 -31 96 -110
164 -175 l124 -119 -65 0 c-36 0 -69 -5 -76 -12 -16 -16 -15 -53 1 -66 6 -6
74 -13 151 -18 l139 -7 58 -40 c52 -36 59 -45 59 -74 l0 -33 -81 0 c-95 0
-119 -10 -119 -48 0 -45 16 -52 112 -52 l88 0 0 -45 0 -45 -765 0 -765 0 0 40
0 40 136 0 c74 0 144 5 155 10 12 7 19 21 19 40 0 19 -7 33 -19 40 -11 5 -81
10 -155 10 l-136 0 0 85 0 85 199 0 c168 0 202 2 215 16 19 19 21 60 4 71 -7
4 -103 10 -213 13 l-200 5 0 70 0 70 105 5 105 5 3 31 c2 17 -3 36 -11 42 -7
6 -56 13 -108 14 l-94 3 -3 59 c-2 32 -1 65 2 72 8 22 219 20 241 -2z m-6535
-77 c0 -1 -31 -177 -70 -391 -38 -214 -70 -393 -70 -398 0 -4 -187 -8 -415 -8
l-415 0 -5 23 c-9 40 -135 753 -135 765 0 9 139 12 555 12 305 0 555 -1 555
-3z m14508 -1322 c7 -14 12 -34 12 -45 0 -10 16 -69 36 -132 86 -274 113 -457
94 -638 -6 -58 -14 -150 -17 -206 -9 -173 24 -289 201 -708 139 -327 194 -499
220 -694 l6 -42 -1577 2 -1578 3 -7 50 c-22 141 -74 389 -113 540 -76 293
-136 434 -228 527 -75 76 -130 110 -350 218 -191 93 -224 115 -250 167 -19 36
-47 49 -76 34 -30 -17 -34 -46 -12 -89 33 -65 96 -109 290 -203 275 -134 338
-183 405 -316 66 -133 145 -415 206 -741 16 -90 30 -170 30 -178 0 -12 -165
-14 -1124 -14 l-1125 0 -6 58 c-20 197 -61 475 -101 689 -118 639 -120 661
-89 1078 13 176 27 367 30 425 3 58 8 120 11 138 l5 33 43 -39 c56 -52 82 -65
246 -122 350 -124 876 -221 1405 -260 178 -13 605 -13 755 0 278 24 585 76
830 141 181 47 480 145 655 214 275 108 308 114 700 124 507 13 460 15 473
-14z"/>
<path d="M5962 17558 c-9 -9 -12 -115 -12 -415 0 -388 1 -403 19 -413 13 -6
157 -10 401 -10 244 0 388 4 401 10 18 10 19 25 19 413 0 300 -3 406 -12 415
-17 17 -799 17 -816 0z m736 -410 l-3 -323 -325 0 -325 0 -3 323 -2 322 330 0
330 0 -2 -322z"/>
<path d="M6545 17370 c-3 -5 1 -10 9 -10 9 0 13 -6 10 -14 -3 -8 -1 -17 5 -21
7 -4 8 0 4 11 -4 12 -3 15 6 10 9 -6 9 -3 -1 13 -14 23 -24 26 -33 11z"/>
<path d="M6596 17372 c-2 -4 2 -16 10 -27 8 -10 14 -14 14 -8 0 7 -5 15 -11
19 -8 4 -7 9 2 15 10 6 10 9 2 9 -6 0 -14 -3 -17 -8z"/>
<path d="M6515 17329 c-4 -5 -3 -8 2 -7 8 3 13 -5 13 -23 0 -6 -7 -9 -15 -6
-8 4 -17 3 -19 -2 -3 -4 0 -8 7 -8 7 0 21 -4 32 -8 12 -4 15 -4 8 2 -8 6 -9
14 -3 23 6 8 10 18 10 21 0 12 -29 18 -35 8z"/>
<path d="M6565 17270 c-10 -11 -16 -22 -14 -24 2 -2 12 7 22 20 22 29 17 32
-8 4z"/>
<path d="M6456 17252 c-3 -5 1 -9 9 -9 8 0 12 4 9 9 -3 4 -7 8 -9 8 -2 0 -6
-4 -9 -8z"/>
<path d="M6510 17249 c0 -5 5 -7 10 -4 6 3 10 8 10 11 0 2 -4 4 -10 4 -5 0
-10 -5 -10 -11z"/>
<path d="M6451 17217 c-8 -10 -7 -14 2 -14 8 0 14 6 14 14 0 7 -1 13 -2 13 -2
0 -8 -6 -14 -13z"/>
<path d="M6489 17173 c-13 -16 -12 -17 4 -4 16 13 21 21 13 21 -2 0 -10 -8
-17 -17z"/>
<path d="M6378 17163 c-25 -30 -29 -41 -13 -39 8 1 18 6 22 11 4 4 2 5 -4 1
-18 -10 -16 4 4 26 9 10 14 18 11 18 -3 0 -12 -8 -20 -17z"/>
<path d="M6440 17148 c0 -4 7 -8 15 -8 8 0 15 4 15 8 0 5 -7 9 -15 9 -8 0 -15
-4 -15 -9z"/>
<path d="M6413 17115 c0 -8 4 -12 9 -9 5 3 6 10 3 15 -9 13 -12 11 -12 -6z"/>
<path d="M6104 17101 c0 -11 5 -17 13 -14 10 4 11 9 2 19 -15 18 -15 18 -15
-5z"/>
<path d="M6150 17090 c0 -5 5 -10 11 -10 5 0 7 5 4 10 -3 6 -8 10 -11 10 -2 0
-4 -4 -4 -10z"/>
<path d="M6180 17089 c0 -5 5 -7 10 -4 6 3 10 8 10 11 0 2 -4 4 -10 4 -5 0
-10 -5 -10 -11z"/>
<path d="M6175 17059 c3 -4 13 -6 23 -4 9 1 24 -2 32 -8 12 -9 13 -9 2 3 -13
15 -65 23 -57 9z"/>
<path d="M6302 17044 c9 -9 21 -15 27 -13 6 2 -2 10 -17 17 -25 11 -25 11 -10
-4z"/>
<path d="M6145 17026 c10 -14 19 -26 22 -26 7 0 -17 39 -28 46 -6 3 -3 -5 6
-20z"/>
<path d="M6259 17013 c-13 -16 -12 -17 4 -4 16 13 21 21 13 21 -2 0 -10 -8
-17 -17z"/>
<path d="M6184 16982 c1 -17 19 -17 24 0 3 10 1 10 -6 -1 -9 -12 -11 -12 -14
0 -3 9 -5 10 -4 1z"/>
<path d="M6326 16988 c3 -5 10 -6 15 -3 13 9 11 12 -6 12 -8 0 -12 -4 -9 -9z"/>
<path d="M6243 16963 c4 -3 -1 -16 -10 -27 -18 -21 -18 -21 4 -2 20 16 23 36
6 36 -4 0 -3 -3 0 -7z"/>
<path d="M6299 16946 c-13 -13 -30 -22 -38 -18 -13 4 -14 2 -3 -9 10 -11 18
-8 44 19 18 18 30 32 26 32 -3 0 -16 -11 -29 -24z"/>
<path d="M9526 17554 c-14 -13 -16 -65 -16 -409 l0 -394 22 -15 c19 -14 75
-16 403 -16 328 0 384 2 403 16 l22 15 0 394 c0 344 -2 396 -16 409 -13 14
-65 16 -409 16 -344 0 -396 -2 -409 -16z m734 -409 l0 -325 -325 0 -325 0 0
325 0 325 325 0 325 0 0 -325z"/>
<path d="M10162 17361 c-3 -35 11 -47 29 -25 10 12 9 18 -7 35 -20 19 -20 19
-22 -10z m20 -23 c-9 -9 -12 -7 -12 12 0 19 3 21 12 12 9 -9 9 -15 0 -24z"/>
<path d="M10090 17339 c0 -5 5 -7 10 -4 6 3 10 8 10 11 0 2 -4 4 -10 4 -5 0
-10 -5 -10 -11z"/>
<path d="M10140 17312 c0 -5 7 -9 15 -9 8 0 12 4 9 9 -3 4 -9 8 -15 8 -5 0 -9
-4 -9 -8z"/>
<path d="M10045 17290 c-3 -5 -2 -10 4 -10 5 0 13 5 16 10 3 6 2 10 -4 10 -5
0 -13 -4 -16 -10z"/>
<path d="M10118 17273 c7 -3 16 -2 19 1 4 3 -2 6 -13 5 -11 0 -14 -3 -6 -6z"/>
<path d="M10068 17258 c-5 -11 -2 -15 10 -13 9 1 24 -3 32 -9 13 -10 13 -9 1
6 -7 10 -17 16 -21 13 -5 -3 -10 0 -12 7 -3 8 -6 6 -10 -4z"/>
<path d="M9985 17214 c-9 -15 -12 -23 -6 -20 11 7 35 46 28 46 -3 0 -12 -12
-22 -26z"/>
<path d="M10014 17182 c18 -21 29 -23 27 -5 -1 4 -4 8 -8 8 -5 0 -15 4 -23 9
-9 6 -7 1 4 -12z"/>
<path d="M9946 17164 c-5 -14 -4 -15 9 -4 17 14 19 20 6 20 -5 0 -12 -7 -15
-16z"/>
<path d="M9990 17141 c0 -5 6 -11 12 -13 8 -3 2 -14 -16 -31 -16 -15 -27 -30
-24 -33 10 -9 57 56 52 71 -7 16 -24 21 -24 6z"/>
<path d="M9913 17129 c-6 -6 -9 -18 -6 -27 4 -9 2 -13 -4 -9 -6 4 -17 -1 -24
-11 -12 -15 -12 -15 1 -5 21 16 32 17 40 3 4 -6 6 5 6 24 -1 20 -1 36 -1 36
-1 0 -6 -5 -12 -11z"/>
<path d="M9736 17028 c3 -4 11 -5 19 -1 21 7 19 12 -4 10 -11 0 -18 -5 -15 -9z"/>
<path d="M9800 17024 c0 -1 6 -7 14 -13 10 -9 15 -8 19 2 3 8 -3 13 -14 13
-11 0 -19 -1 -19 -2z"/>
<path d="M9871 16992 c-6 -2 -11 -9 -11 -15 0 -8 3 -8 11 0 6 6 17 9 24 7 7
-3 15 -2 18 3 6 9 -21 12 -42 5z"/>
<path d="M9830 16963 c0 -6 5 -15 10 -18 6 -3 10 -11 10 -16 0 -6 -4 -7 -10
-4 -5 3 -10 1 -10 -4 0 -18 19 -12 30 8 7 13 7 22 0 26 -5 3 -10 3 -10 -2 0
-4 -5 -1 -10 7 -6 9 -10 10 -10 3z"/>
<path d="M9765 16950 c-3 -6 1 -7 9 -4 18 7 21 14 7 14 -6 0 -13 -4 -16 -10z"/>
<path d="M9780 16931 c0 -5 5 -13 10 -16 6 -3 10 -2 10 4 0 5 -4 13 -10 16 -5
3 -10 2 -10 -4z"/>
<path d="M4008 17188 c-24 -20 -28 -44 -12 -67 l15 -21 823 0 c626 0 825 3
834 12 18 18 15 53 -6 71 -17 16 -89 17 -828 17 -633 0 -814 -3 -826 -12z"/>
<path d="M7608 17189 c-21 -12 -24 -59 -6 -77 17 -17 1649 -17 1666 0 19 19
15 66 -7 78 -27 14 -1629 13 -1653 -1z"/>
<path d="M5962 15898 c-9 -9 -12 -115 -12 -415 0 -388 1 -403 19 -413 13 -6
157 -10 401 -10 244 0 388 4 401 10 18 10 19 26 19 415 0 389 -1 405 -19 415
-30 15 -793 14 -809 -2z m738 -413 l0 -325 -330 0 -330 0 0 325 0 325 330 0
330 0 0 -325z"/>
<path d="M6593 15719 c9 -5 17 -19 17 -30 0 -13 -4 -18 -12 -13 -7 4 -8 3 -4
-5 10 -15 26 -4 26 18 0 19 -19 41 -34 41 -6 0 -3 -5 7 -11z"/>
<path d="M6515 15664 c-16 -20 -23 -35 -16 -33 12 4 57 69 48 69 -2 0 -17 -16
-32 -36z"/>
<path d="M6566 15653 c-6 -14 -5 -15 5 -6 7 7 10 15 7 18 -3 3 -9 -2 -12 -12z"/>
<path d="M6467 15606 c-4 -10 -1 -13 8 -9 8 3 12 9 9 14 -7 12 -11 11 -17 -5z"/>
<path d="M6553 15595 c0 -8 4 -12 9 -9 5 3 6 10 3 15 -9 13 -12 11 -12 -6z"/>
<path d="M6440 15574 c0 -5 4 -16 10 -24 6 -9 5 -17 -3 -22 -7 -4 -3 -6 10 -6
20 2 20 3 5 28 -22 34 -22 35 -22 24z"/>
<path d="M6500 15558 c0 -14 18 -17 28 -5 8 10 6 13 -9 13 -10 0 -19 -4 -19
-8z"/>
<path d="M6480 15505 c-18 -19 -26 -22 -32 -13 -6 10 -10 10 -18 -2 -5 -8 -9
-19 -9 -25 0 -5 3 -4 6 3 8 19 26 14 18 -5 -3 -10 -3 -13 2 -8 4 6 21 25 37
43 35 37 31 44 -4 7z"/>
<path d="M6363 15478 c-16 -17 -16 -20 1 -36 13 -12 20 -13 23 -5 2 7 12 9 21
6 13 -4 12 -2 -3 10 -11 8 -24 13 -29 10 -5 -3 -6 0 -4 8 3 8 12 13 22 11 9
-2 16 1 16 6 0 15 -29 9 -47 -10z m27 -24 c0 -8 -19 -13 -24 -6 -3 5 1 9 9 9
8 0 15 -2 15 -3z"/>
<path d="M6127 15465 c-21 -15 -22 -22 -2 -22 8 0 12 4 9 9 -8 13 31 9 45 -4
11 -10 12 -10 7 -1 -13 24 -40 32 -59 18z"/>
<path d="M6337 15429 c4 -13 8 -18 11 -10 2 7 -1 18 -6 23 -8 8 -9 4 -5 -13z"/>
<path d="M6414 15418 l-19 -23 23 19 c21 18 27 26 19 26 -2 0 -12 -10 -23 -22z"/>
<path d="M6111 15419 c-1 -9 7 -23 17 -30 15 -12 16 -12 6 1 -6 8 -14 22 -17
30 -5 13 -6 12 -6 -1z"/>
<path d="M6200 15412 c0 -5 10 -17 22 -28 l21 -19 -18 28 c-18 28 -25 33 -25
19z"/>
<path d="M6300 15404 c-11 -12 -10 -18 5 -32 18 -16 18 -16 6 1 -11 14 -11 20
-1 32 7 8 10 15 7 15 -2 0 -10 -7 -17 -16z"/>
<path d="M6140 15366 c0 -2 8 -10 18 -17 15 -13 16 -12 3 4 -13 16 -21 21 -21
13z"/>
<path d="M6175 15331 c-3 -5 -2 -12 3 -15 5 -3 9 1 9 9 0 17 -3 19 -12 6z"/>
<path d="M6334 15318 l-19 -23 23 19 c21 18 27 26 19 26 -2 0 -12 -10 -23 -22z"/>
<path d="M6211 15273 c23 -37 89 -38 89 -1 0 5 -7 2 -16 -6 -17 -17 -39 -22
-29 -7 3 5 0 13 -6 17 -8 4 -9 3 -5 -4 11 -18 -5 -14 -27 6 -19 16 -19 16 -6
-5z"/>
<path d="M9526 15894 c-14 -13 -16 -64 -16 -408 0 -368 1 -394 18 -409 17 -15
60 -17 409 -17 365 0 391 1 406 18 15 17 17 60 17 409 0 365 -1 391 -18 406
-17 15 -60 17 -410 17 -342 0 -393 -2 -406 -16z m734 -409 l0 -325 -325 0
-325 0 0 325 0 325 325 0 325 0 0 -325z"/>
<path d="M10112 15708 c-7 -7 -12 -23 -12 -37 0 -30 8 -24 13 10 3 15 11 23
21 23 9 -1 13 2 10 7 -7 12 -18 11 -32 -3z"/>
<path d="M10145 15684 l-20 -16 20 4 c14 2 20 -2 18 -16 -1 -13 2 -15 10 -7 7
7 7 14 -1 24 -7 8 -9 17 -5 20 12 12 -2 7 -22 -9z"/>
<path d="M10060 15645 c-7 -9 -8 -15 -2 -15 5 0 12 7 16 15 3 8 4 15 2 15 -2
0 -9 -7 -16 -15z"/>
<path d="M10099 15591 c-1 -3 -2 -13 -3 -21 0 -8 -7 -14 -14 -12 -8 1 -11 -2
-7 -8 9 -14 11 -13 34 18 16 22 17 29 5 29 -7 0 -15 -3 -15 -6z"/>
<path d="M9985 15549 c-4 -6 -5 -12 -2 -15 2 -3 7 2 10 11 7 17 1 20 -8 4z"/>
<path d="M10010 15521 c0 -6 4 -12 8 -15 5 -3 9 1 9 9 0 8 -4 15 -9 15 -4 0
-8 -4 -8 -9z"/>
<path d="M9949 15503 c-13 -16 -12 -17 4 -4 16 13 21 21 13 21 -2 0 -10 -8
-17 -17z"/>
<path d="M10035 15490 c-4 -6 -11 -8 -16 -5 -5 3 -6 -1 -3 -10 4 -9 7 -15 8
-13 1 2 8 11 15 21 7 9 11 17 8 17 -3 0 -9 -5 -12 -10z"/>
<path d="M9715 15461 c-3 -5 -2 -12 3 -15 5 -3 9 1 9 9 0 17 -3 19 -12 6z"/>
<path d="M9901 15446 c-9 -11 -9 -16 1 -22 7 -4 10 -4 6 1 -4 4 -3 14 3 22 6
7 9 13 6 13 -2 0 -10 -6 -16 -14z"/>
<path d="M9935 15420 c9 -10 14 -23 10 -29 -3 -7 0 -8 9 -5 9 3 14 10 11 14
-3 5 5 16 17 24 12 9 17 16 11 16 -7 0 -15 -5 -18 -10 -4 -6 -12 -7 -18 -3
-26 16 -39 12 -22 -7z"/>
<path d="M9870 15412 c0 -5 7 -9 15 -9 8 0 12 4 9 9 -3 4 -9 8 -15 8 -5 0 -9
-4 -9 -8z"/>
<path d="M9913 15393 c-3 -10 -8 -22 -11 -27 -3 -5 0 -6 5 -3 11 7 25 47 17
47 -3 0 -7 -8 -11 -17z"/>
<path d="M9695 15390 c3 -5 8 -10 11 -10 2 0 4 5 4 10 0 6 -5 10 -11 10 -5 0
-7 -4 -4 -10z"/>
<path d="M9835 15371 c-3 -5 -2 -12 3 -15 5 -3 9 1 9 9 0 17 -3 19 -12 6z"/>
<path d="M9720 15346 c7 -7 13 -7 20 0 6 6 3 10 -10 10 -13 0 -16 -4 -10 -10z"/>
<path d="M9887 15323 c-4 -3 -7 -11 -7 -17 0 -6 5 -5 12 2 6 6 9 14 7 17 -3 3
-9 2 -12 -2z"/>
<path d="M9860 15275 c-7 -8 -17 -12 -23 -8 -6 4 -7 1 -3 -6 6 -9 13 -8 27 5
10 9 19 19 19 21 0 7 -8 2 -20 -12z"/>
<path d="M9787 15259 c7 -7 15 -10 18 -7 3 3 -2 9 -12 12 -14 6 -15 5 -6 -5z"/>
<path d="M4008 15518 c-24 -20 -28 -44 -12 -67 l15 -21 823 0 c626 0 825 3
834 12 17 17 15 54 -4 72 -14 14 -103 16 -828 16 -635 0 -816 -3 -828 -12z"/>
<path d="M7608 15519 c-21 -12 -24 -59 -6 -77 17 -17 1649 -17 1666 0 19 19
15 66 -7 78 -27 14 -1629 13 -1653 -1z"/>
<path d="M5968 14239 c-17 -9 -18 -40 -18 -414 0 -389 1 -405 19 -415 13 -6
157 -10 401 -10 244 0 388 4 401 10 18 10 19 26 19 415 0 389 -1 405 -19 415
-27 14 -779 13 -803 -1z m732 -414 l0 -325 -330 0 -330 0 0 325 0 325 330 0
330 0 0 -325z"/>
<path d="M6556 14057 c-16 -12 -16 -14 -3 -14 9 0 18 6 21 14 3 7 4 13 3 13
-2 0 -11 -6 -21 -13z"/>
<path d="M6606 14047 c3 -10 9 -15 12 -12 3 3 0 11 -7 18 -10 9 -11 8 -5 -6z"/>
<path d="M6561 14009 c-1 -9 7 -23 17 -30 15 -12 16 -12 6 1 -6 8 -14 22 -17
30 -5 13 -6 12 -6 -1z"/>
<path d="M6496 13981 c-4 -7 -5 -15 -2 -18 9 -9 19 4 14 18 -4 11 -6 11 -12 0z"/>
<path d="M6455 13934 c-9 -15 -12 -23 -6 -20 11 7 35 46 28 46 -3 0 -12 -12
-22 -26z"/>
<path d="M6492 13899 c-11 -17 -11 -24 -1 -33 9 -8 10 -8 4 2 -4 8 0 21 11 33
9 10 13 19 8 19 -5 0 -15 -10 -22 -21z"/>
<path d="M6440 13875 c-7 -9 -10 -18 -7 -21 3 -3 10 4 17 15 13 25 8 27 -10 6z"/>
<path d="M6390 13855 c-14 -17 -4 -39 15 -31 7 2 19 -1 26 -7 11 -10 11 -9 0
5 -7 9 -19 14 -27 11 -17 -6 -18 9 -2 25 7 7 9 12 6 12 -3 0 -11 -7 -18 -15z"/>
<path d="M6455 13810 c-14 -15 -21 -17 -32 -9 -7 6 -13 9 -13 6 0 -2 6 -10 13
-16 11 -8 19 -5 37 14 13 14 21 25 18 25 -3 0 -13 -9 -23 -20z"/>
<path d="M6350 13805 c-7 -9 -11 -17 -9 -20 3 -2 10 5 17 15 14 24 10 26 -8 5z"/>
<path d="M6154 13799 c-5 -8 -3 -9 6 -4 10 6 12 4 7 -9 -4 -9 -3 -15 2 -12 13
9 34 -21 25 -36 -4 -7 -3 -10 1 -5 5 4 17 -1 28 -10 11 -10 6 2 -12 29 -37 55
-47 63 -57 47z"/>
<path d="M6110 13766 c0 -10 4 -15 9 -11 5 3 12 -3 14 -12 4 -15 5 -15 6 -2 0
9 -6 22 -14 29 -12 10 -15 9 -15 -4z"/>
<path d="M6404 13748 l-19 -23 23 19 c12 11 22 21 22 23 0 8 -8 2 -26 -19z"/>
<path d="M6295 13739 c-4 -6 -5 -12 -2 -15 2 -3 7 2 10 11 7 17 1 20 -8 4z"/>
<path d="M6349 13728 c-12 -23 -12 -23 10 -4 23 21 26 26 11 26 -5 0 -15 -10
-21 -22z"/>
<path d="M6315 13720 c3 -5 8 -10 11 -10 2 0 4 5 4 10 0 6 -5 10 -11 10 -5 0
-7 -4 -4 -10z"/>
<path d="M6206 13693 c-6 -14 -5 -15 5 -6 7 7 10 15 7 18 -3 3 -9 -2 -12 -12z"/>
<path d="M6260 13700 c-9 -6 -10 -10 -3 -10 6 0 15 5 18 10 8 12 4 12 -15 0z"/>
<path d="M6290 13684 c0 -8 5 -12 10 -9 6 4 8 11 5 16 -9 14 -15 11 -15 -7z"/>
<path d="M6156 13678 c3 -5 10 -6 15 -3 13 9 11 12 -6 12 -8 0 -12 -4 -9 -9z"/>
<path d="M6226 13674 c-3 -8 -11 -12 -17 -8 -8 4 -8 0 0 -15 14 -25 23 -28 14
-4 -5 12 -3 14 7 8 8 -5 11 -4 6 3 -3 5 -1 12 6 14 8 3 9 6 1 11 -6 4 -14 0
-17 -9z"/>
<path d="M6343 13678 c-15 -20 -25 -38 -20 -38 3 0 12 11 21 25 17 26 16 35
-1 13z"/>
<path d="M6280 13636 c0 -19 17 -29 25 -16 3 5 1 10 -5 10 -6 0 -8 5 -5 10 3
6 1 10 -4 10 -6 0 -11 -6 -11 -14z"/>
<path d="M6222 13613 c-6 -2 -10 -9 -6 -14 8 -14 21 -11 21 6 0 8 -1 15 -1 14
-1 0 -7 -3 -14 -6z"/>
<path d="M6250 13588 c0 -11 12 -10 30 2 12 7 10 9 -8 7 -12 0 -22 -5 -22 -9z"/>
<path d="M4008 13849 c-21 -12 -24 -59 -6 -77 17 -17 1649 -17 1666 0 19 19
15 66 -7 78 -27 14 -1629 13 -1653 -1z"/>
<path d="M7608 13849 c-21 -12 -24 -59 -6 -77 17 -17 1649 -17 1666 0 19 19
15 66 -7 78 -27 14 -1629 13 -1653 -1z"/>
<path d="M5968 12579 c-17 -9 -18 -40 -18 -412 0 -300 3 -406 12 -415 17 -17
799 -17 816 0 9 9 12 115 12 415 0 388 -1 403 -19 413 -27 14 -779 13 -803 -1z
m730 -416 l2 -323 -330 0 -330 0 0 325 0 325 328 -2 327 -3 3 -322z"/>
<path d="M6515 12323 c-21 -26 -33 -43 -25 -38 8 5 21 17 28 27 7 10 18 15 24
12 7 -4 8 -2 4 5 -4 6 -2 18 4 26 7 8 11 15 8 15 -2 0 -21 -21 -43 -47z"/>
<path d="M6570 12350 c-9 -6 -10 -10 -3 -10 6 0 15 5 18 10 8 12 4 12 -15 0z"/>
<path d="M6591 12307 c-13 -21 -12 -21 5 -5 10 10 16 20 13 22 -3 3 -11 -5
-18 -17z"/>
<path d="M6520 12289 c0 -5 5 -7 10 -4 6 3 10 8 10 11 0 2 -4 4 -10 4 -5 0
-10 -5 -10 -11z"/>
<path d="M6546 12281 c-3 -5 1 -11 9 -15 8 -3 15 -1 15 4 0 13 -18 22 -24 11z"/>
<path d="M6445 12234 c-15 -19 -25 -37 -24 -39 2 -2 17 14 32 36 35 49 29 52
-8 3z"/>
<path d="M6516 12232 c-2 -4 4 -8 14 -8 10 0 16 4 14 8 -3 4 -9 8 -14 8 -5 0
-11 -4 -14 -8z"/>
<path d="M6515 12201 c-3 -6 -14 -8 -25 -6 -14 3 -17 -1 -13 -12 5 -12 3 -14
-8 -8 -11 7 -12 6 -2 -7 7 -8 9 -19 5 -24 -4 -4 1 -3 10 5 10 7 14 19 11 28
-4 10 -2 14 4 10 6 -4 16 0 23 8 7 8 10 15 7 15 -3 0 -8 -4 -12 -9z"/>
<path d="M6395 12179 c-4 -6 -5 -12 -2 -15 2 -3 7 2 10 11 7 17 1 20 -8 4z"/>
<path d="M6437 12163 c10 -3 9 -8 -3 -20 -17 -17 -14 -35 7 -41 12 -3 12 -2
-1 7 -12 8 -12 12 3 29 17 18 14 33 -7 31 -6 0 -6 -3 1 -6z"/>
<path d="M6114 12109 c-3 -6 -2 -15 4 -21 6 -6 12 -6 17 3 6 8 4 10 -5 4 -10
-6 -12 -4 -7 8 7 19 2 23 -9 6z"/>
<path d="M6170 12100 c0 -5 5 -10 11 -10 5 0 7 5 4 10 -3 6 -8 10 -11 10 -2 0
-4 -4 -4 -10z"/>
<path d="M6357 12100 c7 -8 20 -15 29 -16 9 -1 13 1 9 4 -4 4 -10 7 -13 7 -4
0 -14 4 -22 9 -12 7 -13 6 -3 -4z"/>
<path d="M6413 12078 c-15 -20 -25 -38 -20 -38 3 0 12 11 21 25 17 26 16 35
-1 13z"/>
<path d="M6120 12051 c0 -6 5 -13 10 -16 6 -3 10 1 10 9 0 9 -4 16 -10 16 -5
0 -10 -4 -10 -9z"/>
<path d="M6294 12027 c1 -29 23 -32 36 -5 10 21 10 21 -3 6 -19 -24 -30 -23
-18 0 7 14 6 19 -3 19 -7 0 -13 -9 -12 -20z"/>
<path d="M6230 12028 c0 -3 6 -11 14 -17 10 -9 17 -7 27 6 12 16 12 17 -2 6
-12 -10 -18 -10 -27 -1 -7 7 -12 9 -12 6z"/>
<path d="M6217 11997 c-3 -8 1 -14 8 -14 7 0 11 6 8 14 -3 7 -6 13 -8 13 -2 0
-5 -6 -8 -13z"/>
<path d="M6185 11990 c-6 -9 11 -50 21 -50 2 0 0 9 -6 20 -6 11 -8 25 -5 30 3
6 4 10 1 10 -3 0 -8 -4 -11 -10z"/>
<path d="M6340 11990 c-9 -6 -10 -10 -3 -10 6 0 15 5 18 10 8 12 4 12 -15 0z"/>
<path d="M6310 11971 c0 -6 4 -13 10 -16 6 -3 7 1 4 9 -7 18 -14 21 -14 7z"/>
<path d="M6210 11926 c0 -2 8 -10 18 -17 15 -13 16 -12 3 4 -13 16 -21 21 -21
13z"/>
<path d="M6265 11910 c-16 -7 -17 -9 -3 -9 9 -1 20 4 23 9 7 11 7 11 -20 0z"/>
<path d="M4008 12249 c-21 -12 -24 -59 -6 -77 17 -17 1649 -17 1666 0 19 19
15 66 -7 78 -27 14 -1629 13 -1653 -1z"/>
<path d="M7608 12249 c-21 -12 -24 -59 -6 -77 17 -17 1649 -17 1666 0 19 19
15 66 -7 78 -27 14 -1629 13 -1653 -1z"/>
<path d="M10243 13715 c0 -7 6 -11 14 -8 7 3 13 6 13 8 0 2 -6 5 -13 8 -8 3
-14 -1 -14 -8z"/>
<path d="M10805 13389 c-14 -22 27 -35 45 -14 8 9 8 15 0 20 -6 4 -9 1 -8 -5
2 -7 -5 -14 -15 -15 -13 -2 -17 1 -13 11 6 16 0 19 -9 3z"/>
<path d="M10895 13290 c-3 -5 -1 -10 4 -10 6 0 11 5 11 10 0 6 -2 10 -4 10 -3
0 -8 -4 -11 -10z"/>
<path d="M10945 13180 c4 -6 11 -8 16 -5 14 9 11 15 -7 15 -8 0 -12 -5 -9 -10z"/>
<path d="M10918 13163 c7 -3 16 -2 19 1 4 3 -2 6 -13 5 -11 0 -14 -3 -6 -6z"/>
<path d="M10742 13016 c15 -30 16 -30 14 -3 0 13 -6 24 -13 24 -9 0 -9 -6 -1
-21z"/>
<path d="M10520 13006 c0 -2 7 -9 15 -16 13 -11 14 -10 9 4 -5 14 -24 23 -24
12z"/>
<path d="M10606 12877 c3 -10 9 -15 12 -12 3 3 0 11 -7 18 -10 9 -11 8 -5 -6z"/>
<path d="M10676 12789 c4 -8 30 -6 38 2 3 3 -5 5 -19 5 -13 0 -22 -3 -19 -7z"/>
<path d="M11510 12513 c0 -10 4 -14 8 -8 4 6 11 13 16 18 5 4 2 7 -7 7 -10 0
-17 -8 -17 -17z"/>
<path d="M11560 12462 c0 -12 19 -26 26 -19 2 2 -2 10 -11 17 -9 8 -15 8 -15
2z"/>
<path d="M11600 12433 c0 -5 10 -18 23 -29 l22 -19 -20 25 c-11 14 -21 27 -22
29 -2 2 -3 0 -3 -6z"/>
<path d="M11790 12170 c0 -5 5 -10 11 -10 5 0 7 5 4 10 -3 6 -8 10 -11 10 -2
0 -4 -4 -4 -10z"/>
<path d="M11845 12089 c-4 -6 -5 -12 -2 -15 2 -3 7 2 10 11 7 17 1 20 -8 4z"/>
<path d="M11886 12057 c3 -10 9 -15 12 -12 3 3 0 11 -7 18 -10 9 -11 8 -5 -6z"/>
<path d="M12086 11771 c-3 -4 6 -7 19 -7 14 0 22 2 19 5 -8 8 -34 10 -38 2z"/>
<path d="M12170 11716 c0 -2 8 -10 18 -17 15 -13 16 -12 3 4 -13 16 -21 21
-21 13z"/>
<path d="M12206 11645 c4 -8 8 -15 10 -15 2 0 4 7 4 15 0 8 -4 15 -10 15 -5 0
-7 -7 -4 -15z"/>
<path d="M12326 11448 c3 -5 10 -6 15 -3 13 9 11 12 -6 12 -8 0 -12 -4 -9 -9z"/>
<path d="M11665 11430 c3 -5 8 -10 11 -10 2 0 4 5 4 10 0 6 -5 10 -11 10 -5 0
-7 -4 -4 -10z"/>
<path d="M11745 11350 c3 -5 8 -10 11 -10 2 0 4 5 4 10 0 6 -5 10 -11 10 -5 0
-7 -4 -4 -10z"/>
<path d="M12420 11315 c0 -5 5 -17 10 -25 5 -8 10 -10 10 -5 0 6 -5 17 -10 25
-5 8 -10 11 -10 5z"/>
<path d="M11825 11270 c3 -5 8 -10 11 -10 2 0 4 5 4 10 0 6 -5 10 -11 10 -5 0
-7 -4 -4 -10z"/>
<path d="M11905 11190 c3 -5 8 -10 11 -10 2 0 4 5 4 10 0 6 -5 10 -11 10 -5 0
-7 -4 -4 -10z"/>
<path d="M11985 11110 c3 -5 8 -10 11 -10 2 0 4 5 4 10 0 6 -5 10 -11 10 -5 0
-7 -4 -4 -10z"/>
<path d="M12324 11092 c0 -10 8 -18 18 -18 16 0 16 2 1 18 -9 10 -17 18 -17
18 -1 0 -2 -8 -2 -18z"/>
<path d="M12170 11020 c-13 -8 -12 -10 3 -10 9 0 17 5 17 10 0 12 -1 12 -20 0z"/>
<path d="M13918 9153 c6 -2 18 -2 25 0 6 3 1 5 -13 5 -14 0 -19 -2 -12 -5z"/>
<path d="M14358 9153 c7 -3 16 -2 19 1 4 3 -2 6 -13 5 -11 0 -14 -3 -6 -6z"/>
<path d="M13710 9089 c0 -5 5 -7 10 -4 6 3 10 8 10 11 0 2 -4 4 -10 4 -5 0
-10 -5 -10 -11z"/>
<path d="M14575 9081 c-3 -5 4 -13 16 -16 17 -6 19 -9 8 -16 -8 -5 -9 -9 -4
-9 6 0 17 5 25 10 13 9 13 10 0 11 -10 0 -9 3 5 10 16 8 15 8 -8 4 -19 -4 -26
-2 -22 5 3 5 2 10 -4 10 -5 0 -12 -4 -16 -9z"/>
<path d="M14725 9010 c-3 -6 1 -7 9 -4 18 7 21 14 7 14 -6 0 -13 -4 -16 -10z"/>
<path d="M13190 9000 c-18 -12 -2 -12 25 0 13 6 15 9 5 9 -8 0 -22 -4 -30 -9z"/>
<path d="M14827 8969 c7 -7 15 -10 18 -7 3 3 -2 9 -12 12 -14 6 -15 5 -6 -5z"/>
<path d="M14887 8939 c7 -7 15 -10 18 -7 3 3 -2 9 -12 12 -14 6 -15 5 -6 -5z"/>
<path d="M14886 8891 c-4 -5 3 -7 14 -4 23 6 26 13 6 13 -8 0 -17 -4 -20 -9z"/>
<path d="M16101 8774 c-7 -8 -11 -17 -9 -20 3 -2 13 5 23 16 10 11 14 20 9 20
-5 -1 -15 -8 -23 -16z"/>
<path d="M16139 8733 c-13 -16 -12 -17 4 -4 9 7 17 15 17 17 0 8 -8 3 -21 -13z"/>
<path d="M16248 8738 c5 -5 16 -8 23 -6 8 3 3 7 -10 11 -17 4 -21 3 -13 -5z"/>
<path d="M16315 8740 l-20 -9 20 0 c11 0 27 4 35 9 13 9 13 10 0 9 -8 0 -24
-4 -35 -9z"/>
<path d="M16015 8690 c-3 -5 -2 -10 4 -10 5 0 13 5 16 10 3 6 2 10 -4 10 -5 0
-13 -4 -16 -10z"/>
<path d="M12836 8671 c-3 -4 6 -6 19 -3 14 2 25 6 25 8 0 8 -39 4 -44 -5z"/>
<path d="M14960 8631 c0 -6 4 -13 10 -16 6 -3 7 1 4 9 -7 18 -14 21 -14 7z"/>
<path d="M14662 8523 c-2 -34 15 -76 51 -125 11 -14 16 -31 12 -37 -3 -6 -3
-10 2 -9 16 6 82 -64 76 -80 -4 -14 -3 -14 5 -3 8 12 15 10 41 -12 17 -14 40
-29 51 -32 11 -4 18 -11 14 -16 -3 -6 0 -10 7 -8 28 3 40 -1 33 -13 -4 -7 -4
-10 0 -6 5 4 19 2 33 -3 14 -5 42 -12 62 -15 20 -3 43 -8 51 -11 8 -4 53 -5
99 -4 66 2 82 0 76 -11 -4 -7 5 -1 18 14 14 15 27 25 30 22 2 -3 7 2 11 11 4
11 2 14 -6 9 -7 -5 -9 -2 -5 8 3 9 -4 25 -17 37 -18 17 -31 20 -75 16 -29 -2
-64 0 -78 6 -14 5 -45 11 -69 14 -24 2 -51 9 -61 15 -17 11 -17 11 0 6 11 -3
15 -2 12 4 -3 6 -17 7 -29 4 -18 -4 -28 1 -40 17 -9 13 -16 20 -16 16 0 -12
-38 12 -81 50 -30 27 -38 41 -34 57 4 14 3 17 -3 8 -11 -17 -47 21 -36 39 4 7
3 10 -3 6 -11 -7 -36 40 -28 53 2 4 -19 7 -48 7 -52 -1 -52 -1 -55 -34z"/>
<path d="M14778 8533 c7 -3 16 -2 19 1 4 3 -2 6 -13 5 -11 0 -14 -3 -6 -6z"/>
<path d="M15000 8530 c0 -5 5 -10 11 -10 5 0 7 5 4 10 -3 6 -8 10 -11 10 -2 0
-4 -4 -4 -10z"/>
<path d="M15771 8531 c-8 -5 -16 -17 -17 -25 -1 -9 2 -14 7 -10 5 3 7 10 4 15
-4 5 1 9 9 9 9 0 16 5 16 10 0 12 -1 12 -19 1z"/>
<path d="M15808 8483 c7 -3 16 -2 19 1 4 3 -2 6 -13 5 -11 0 -14 -3 -6 -6z"/>
<path d="M14850 8433 c0 -6 9 -21 21 -34 l20 -24 -17 30 c-24 39 -24 40 -24
28z"/>
<path d="M14920 8389 c0 -5 5 -7 10 -4 6 3 10 8 10 11 0 2 -4 4 -10 4 -5 0
-10 -5 -10 -11z"/>
<path d="M14907 8369 c7 -7 15 -10 18 -7 3 3 -2 9 -12 12 -14 6 -15 5 -6 -5z"/>
<path d="M17385 8360 c-3 -6 1 -7 9 -4 18 7 21 14 7 14 -6 0 -13 -4 -16 -10z"/>
<path d="M14760 8302 c0 -12 19 -26 26 -19 2 2 -2 10 -11 17 -9 8 -15 8 -15 2z"/>
<path d="M15160 8280 c-18 -12 -2 -12 25 0 13 6 15 9 5 9 -8 0 -22 -4 -30 -9z"/>
<path d="M15290 8270 c20 -13 33 -13 25 0 -3 6 -14 10 -23 10 -15 0 -15 -2 -2
-10z"/>
<path d="M14725 8250 c3 -5 8 -10 11 -10 2 0 4 5 4 10 0 6 -5 10 -11 10 -5 0
-7 -4 -4 -10z"/>
<path d="M15346 8227 c3 -10 9 -15 12 -12 3 3 0 11 -7 18 -10 9 -11 8 -5 -6z"/>
<path d="M17717 8199 c7 -7 15 -10 18 -7 3 3 -2 9 -12 12 -14 6 -15 5 -6 -5z"/>
<path d="M14910 8179 c0 -5 5 -7 10 -4 6 3 10 8 10 11 0 2 -4 4 -10 4 -5 0
-10 -5 -10 -11z"/>
<path d="M13580 8135 c-7 -9 -8 -15 -2 -15 5 0 12 7 16 15 3 8 4 15 2 15 -2 0
-9 -7 -16 -15z"/>
<path d="M13325 8109 c-11 -17 1 -21 15 -4 8 9 8 15 2 15 -6 0 -14 -5 -17 -11z"/>
<path d="M18040 8055 c0 -8 4 -15 10 -15 5 0 7 7 4 15 -4 8 -8 15 -10 15 -2 0
-4 -7 -4 -15z"/>
<path d="M13480 8046 c0 -2 7 -9 15 -16 9 -7 15 -8 15 -2 0 5 -7 12 -15 16 -8
3 -15 4 -15 2z"/>
<path d="M18080 8009 c0 -5 5 -7 10 -4 6 3 10 8 10 11 0 2 -4 4 -10 4 -5 0
-10 -5 -10 -11z"/>
<path d="M13390 7940 c-6 -11 -9 -20 -8 -20 2 0 11 9 21 20 9 11 13 20 7 20
-5 0 -14 -9 -20 -20z"/>
<path d="M18085 7950 c-3 -5 -1 -10 4 -10 6 0 11 5 11 10 0 6 -2 10 -4 10 -3
0 -8 -4 -11 -10z"/>
<path d="M18196 7857 c3 -10 9 -15 12 -12 3 3 0 11 -7 18 -10 9 -11 8 -5 -6z"/>
<path d="M13305 7819 c-4 -6 -5 -12 -2 -15 2 -3 7 2 10 11 7 17 1 20 -8 4z"/>
<path d="M18250 7744 c0 -6 7 -19 16 -30 14 -18 14 -18 3 6 -14 31 -19 36 -19
24z"/>
<path d="M13246 7675 c4 -8 8 -15 10 -15 2 0 4 7 4 15 0 8 -4 15 -10 15 -5 0
-7 -7 -4 -15z"/>
<path d="M18356 7583 c8 -18 19 -35 25 -38 17 -11 9 10 -16 40 l-25 30 16 -32z"/>
<path d="M16035 7490 c-3 -6 1 -7 9 -4 18 7 21 14 7 14 -6 0 -13 -4 -16 -10z"/>
<path d="M16005 7460 c-3 -5 -1 -10 4 -10 6 0 11 5 11 10 0 6 -2 10 -4 10 -3
0 -8 -4 -11 -10z"/>
<path d="M15942 7390 c0 -14 2 -19 5 -12 2 6 2 18 0 25 -3 6 -5 1 -5 -13z"/>
<path d="M18495 7190 c3 -5 8 -10 11 -10 2 0 4 5 4 10 0 6 -5 10 -11 10 -5 0
-7 -4 -4 -10z"/>
<path d="M15851 7164 c0 -11 3 -14 6 -6 3 7 2 16 -1 19 -3 4 -6 -2 -5 -13z"/>
<path d="M16041 7144 c0 -11 3 -14 6 -6 3 7 2 16 -1 19 -3 4 -6 -2 -5 -13z"/>
<path d="M15806 7074 c-5 -14 -4 -15 9 -4 17 14 19 20 6 20 -5 0 -12 -7 -15
-16z"/>
<path d="M15771 7024 c0 -11 3 -14 6 -6 3 7 2 16 -1 19 -3 4 -6 -2 -5 -13z"/>
<path d="M15786 7003 c-6 -14 -5 -15 5 -6 7 7 10 15 7 18 -3 3 -9 -2 -12 -12z"/>
<path d="M15980 6810 c0 -5 -5 -9 -12 -7 -6 1 -13 -7 -15 -18 -3 -18 -2 -18 5
-2 4 10 12 18 17 17 5 -1 11 3 13 9 2 6 1 11 -2 11 -3 0 -6 -4 -6 -10z"/>
<path d="M15936 6745 c-9 -26 -7 -32 5 -12 6 10 9 21 6 23 -2 3 -7 -2 -11 -11z"/>
<path d="M15870 6501 c0 -6 4 -13 10 -16 6 -3 7 1 4 9 -7 18 -14 21 -14 7z"/>
<path d="M15445 6469 c-4 -6 -5 -12 -2 -15 2 -3 7 2 10 11 7 17 1 20 -8 4z"/>
<path d="M15826 6443 c-6 -14 -5 -15 5 -6 7 7 10 15 7 18 -3 3 -9 -2 -12 -12z"/>
<path d="M18581 6384 c0 -11 3 -14 6 -6 3 7 2 16 -1 19 -3 4 -6 -2 -5 -13z"/>
<path d="M15775 6366 c-33 -37 -35 -43 -20 -43 8 0 13 3 10 5 -3 3 2 14 12 24
9 10 14 20 12 22 -2 2 -8 -1 -14 -8z"/>
<path d="M18562 6290 c0 -14 2 -19 5 -12 2 6 2 18 0 25 -3 6 -5 1 -5 -13z"/>
<path d="M15630 6203 c-30 -31 -48 -52 -39 -45 9 6 20 8 25 4 5 -4 6 -3 1 2
-10 13 43 67 57 59 6 -3 8 -3 4 2 -4 4 -3 14 3 22 28 33 -2 8 -51 -44z"/>
<path d="M15656 6202 c-3 -5 1 -9 9 -9 8 0 15 4 15 9 0 4 -4 8 -9 8 -6 0 -12
-4 -15 -8z"/>
<path d="M15630 6170 c0 -5 5 -10 11 -10 5 0 7 5 4 10 -3 6 -8 10 -11 10 -2 0
-4 -4 -4 -10z"/>
<path d="M15504 6084 c-18 -15 -18 -15 2 -5 12 6 25 7 29 3 5 -4 5 -1 1 6 -9
15 -8 15 -32 -4z"/>
<path d="M15465 6050 c-8 -12 12 -40 28 -40 6 0 2 7 -9 15 -16 13 -17 16 -4
25 9 6 10 10 3 10 -6 0 -15 -5 -18 -10z"/>
<path d="M18511 6034 c0 -11 3 -14 6 -6 3 7 2 16 -1 19 -3 4 -6 -2 -5 -13z"/>
<path d="M15399 5993 c-13 -16 -12 -17 4 -4 9 7 17 15 17 17 0 8 -8 3 -21 -13z"/>
<path d="M16651 5981 c-34 -34 -20 -90 22 -92 12 0 40 -7 62 -14 38 -14 38
-14 8 -12 -18 2 -30 0 -27 -5 3 -4 35 -7 72 -7 37 1 114 -7 172 -16 68 -10
162 -16 265 -15 185 1 263 10 281 35 13 17 12 100 -1 113 -4 4 -4 -3 0 -16 6
-20 4 -22 -17 -17 -29 7 -47 7 -128 -2 -64 -7 -144 -8 -257 -4 -55 2 -225 29
-328 52 -98 21 -103 21 -124 0z"/>
<path d="M17450 5990 c8 -5 20 -10 25 -10 6 0 3 5 -5 10 -8 5 -19 10 -25 10
-5 0 -3 -5 5 -10z"/>
<path d="M15341 5946 c-9 -11 -9 -16 1 -22 7 -4 10 -4 6 1 -4 4 -3 14 3 22 6
7 9 13 6 13 -2 0 -10 -6 -16 -14z"/>
<path d="M17328 5953 c6 -2 18 -2 25 0 6 3 1 5 -13 5 -14 0 -19 -2 -12 -5z"/>
<path d="M15316 5917 c3 -10 9 -15 12 -12 3 3 0 11 -7 18 -10 9 -11 8 -5 -6z"/>
<path d="M15249 5873 c-13 -16 -12 -17 4 -4 9 7 17 15 17 17 0 8 -8 3 -21 -13z"/>
<path d="M18446 5873 c-6 -14 -5 -15 5 -6 7 7 10 15 7 18 -3 3 -9 -2 -12 -12z"/>
<path d="M16658 5843 c7 -3 16 -2 19 1 4 3 -2 6 -13 5 -11 0 -14 -3 -6 -6z"/>
<path d="M16968 5813 c6 -2 18 -2 25 0 6 3 1 5 -13 5 -14 0 -19 -2 -12 -5z"/>
<path d="M17475 5810 c3 -5 8 -10 11 -10 2 0 4 5 4 10 0 6 -5 10 -11 10 -5 0
-7 -4 -4 -10z"/>
<path d="M15115 5770 c-3 -6 1 -7 9 -4 18 7 21 14 7 14 -6 0 -13 -4 -16 -10z"/>
<path d="M17437 5769 c7 -7 15 -10 18 -7 3 3 -2 9 -12 12 -14 6 -15 5 -6 -5z"/>
<path d="M15084 5719 c0 -22 12 -25 19 -5 3 8 0 16 -6 19 -7 3 -13 -3 -13 -14z"/>
<path d="M15560 5586 c0 -2 9 -6 20 -9 11 -3 18 -1 14 4 -5 9 -34 13 -34 5z"/>
<path d="M18290 5489 c0 -5 5 -7 10 -4 6 3 10 8 10 11 0 2 -4 4 -10 4 -5 0
-10 -5 -10 -11z"/>
<path d="M15718 5473 c7 -3 16 -2 19 1 4 3 -2 6 -13 5 -11 0 -14 -3 -6 -6z"/>
<path d="M15840 5410 c8 -5 20 -10 25 -10 6 0 3 5 -5 10 -8 5 -19 10 -25 10
-5 0 -3 -5 5 -10z"/>
<path d="M15964 5349 c-5 -8 -3 -9 6 -4 7 4 16 2 22 -6 8 -12 9 -12 6 0 -6 20
-24 25 -34 10z"/>
<path d="M16190 5145 c0 -8 4 -15 10 -15 5 0 7 7 4 15 -4 8 -8 15 -10 15 -2 0
-4 -7 -4 -15z"/>
<path d="M16260 5065 c7 -9 15 -13 17 -11 7 7 -7 26 -19 26 -6 0 -6 -6 2 -15z"/>
<path d="M18090 5040 c0 -4 7 -7 15 -6 23 3 26 12 5 13 -11 1 -20 -2 -20 -7z"/>
<path d="M17560 4990 c-13 -8 -13 -10 2 -10 9 0 20 5 23 10 8 13 -5 13 -25 0z"/>
<path d="M16375 4930 c-3 -5 -1 -10 4 -10 6 0 11 5 11 10 0 6 -2 10 -4 10 -3
0 -8 -4 -11 -10z"/>
<path d="M18047 4833 c-4 -3 -7 -13 -7 -22 1 -13 3 -13 11 2 11 19 8 33 -4 20z"/>
<path d="M17397 4765 c3 -8 9 -12 14 -9 12 7 11 11 -5 17 -10 4 -13 1 -9 -8z"/>
<path d="M18017 4763 c-4 -3 -7 -11 -7 -17 0 -6 5 -5 12 2 6 6 9 14 7 17 -3 3
-9 2 -12 -2z"/>
<path d="M17550 4711 c-12 -24 -13 -34 -1 -27 9 6 22 46 15 46 -2 0 -8 -9 -14
-19z"/>
<path d="M17315 4630 c3 -5 8 -10 11 -10 2 0 4 5 4 10 0 6 -5 10 -11 10 -5 0
-7 -4 -4 -10z"/>
<path d="M17966 4594 c-5 -14 -4 -15 9 -4 17 14 19 20 6 20 -5 0 -12 -7 -15
-16z"/>
<path d="M17506 4573 c-6 -14 -5 -15 5 -6 7 7 10 15 7 18 -3 3 -9 -2 -12 -12z"/>
<path d="M17921 4494 c0 -11 3 -14 6 -6 3 7 2 16 -1 19 -3 4 -6 -2 -5 -13z"/>
<path d="M17121 4454 c0 -11 3 -14 6 -6 3 7 2 16 -1 19 -3 4 -6 -2 -5 -13z"/>
<path d="M17330 4395 c-11 -13 -11 -18 0 -28 10 -9 11 -9 6 1 -4 7 -2 19 4 27
7 8 10 15 7 15 -2 0 -10 -7 -17 -15z"/>
<path d="M17290 4341 c0 -6 4 -13 10 -16 6 -3 7 1 4 9 -7 18 -14 21 -14 7z"/>
<path d="M17345 4340 c3 -5 8 -10 11 -10 2 0 4 5 4 10 0 6 -5 10 -11 10 -5 0
-7 -4 -4 -10z"/>
<path d="M16600 4291 c0 -5 5 -13 10 -16 6 -3 10 -2 10 4 0 5 -4 13 -10 16 -5
3 -10 2 -10 -4z"/>
<path d="M17250 4281 c0 -5 5 -13 10 -16 6 -3 10 -2 10 4 0 5 -4 13 -10 16 -5
3 -10 2 -10 -4z"/>
<path d="M17810 4198 c-12 -22 -12 -22 6 -6 10 10 15 20 12 24 -4 3 -12 -5
-18 -18z"/>
<path d="M16976 4163 c-6 -14 -5 -15 5 -6 7 7 10 15 7 18 -3 3 -9 -2 -12 -12z"/>
<path d="M17775 4120 c3 -5 8 -10 11 -10 2 0 4 5 4 10 0 6 -5 10 -11 10 -5 0
-7 -4 -4 -10z"/>
<path d="M16925 4109 c-4 -6 -4 -13 -1 -16 3 -4 6 -1 6 5 0 6 8 13 18 15 15 4
15 5 0 6 -9 0 -20 -4 -23 -10z"/>
<path d="M16701 4044 c0 -11 3 -14 6 -6 3 7 2 16 -1 19 -3 4 -6 -2 -5 -13z"/>
<path d="M16800 3977 c1 -20 2 -20 11 -4 6 9 16 14 22 11 7 -4 8 -3 4 1 -16
18 -37 13 -37 -8z"/>
<path d="M16755 3895 c0 -13 3 -21 8 -18 4 2 7 10 7 18 0 8 -3 16 -7 18 -5 3
-8 -5 -8 -18z"/>
<path d="M16726 3883 c-6 -14 -5 -15 5 -6 7 7 10 15 7 18 -3 3 -9 -2 -12 -12z"/>
<path d="M16721 3838 c-14 -23 -14 -23 8 -4 22 20 25 26 13 26 -4 0 -13 -10
-21 -22z"/>
<path d="M16866 3707 c3 -10 9 -15 12 -12 3 3 0 11 -7 18 -10 9 -11 8 -5 -6z"/>
<path d="M16670 3570 c0 -5 5 -10 10 -10 6 0 10 5 10 10 0 6 -4 10 -10 10 -5
0 -10 -4 -10 -10z"/>
<path d="M16290 3560 c0 -6 7 -10 15 -10 8 0 15 2 15 4 0 2 -7 6 -15 10 -8 3
-15 1 -15 -4z"/>
<path d="M16108 3483 c7 -3 16 -2 19 1 4 3 -2 6 -13 5 -11 0 -14 -3 -6 -6z"/>
<path d="M17540 3419 c-7 -11 -9 -23 -6 -27 3 -3 6 0 6 7 0 7 4 10 8 7 4 -2 8
4 8 15 0 24 -3 24 -16 -2z"/>
<path d="M15795 3390 c-3 -5 -2 -10 4 -10 5 0 13 5 16 10 3 6 2 10 -4 10 -5 0
-13 -4 -16 -10z"/>
<path d="M15748 3373 c6 -2 18 -2 25 0 6 3 1 5 -13 5 -14 0 -19 -2 -12 -5z"/>
<path d="M15418 3293 c7 -3 16 -2 19 1 4 3 -2 6 -13 5 -11 0 -14 -3 -6 -6z"/>
<path d="M15018 3223 c7 -3 16 -2 19 1 4 3 -2 6 -13 5 -11 0 -14 -3 -6 -6z"/>
<path d="M17596 3163 c-6 -14 -5 -15 5 -6 7 7 10 15 7 18 -3 3 -9 -2 -12 -12z"/>
<path d="M14688 3153 c6 -2 18 -2 25 0 6 3 1 5 -13 5 -14 0 -19 -2 -12 -5z"/>
<path d="M14538 3143 c7 -3 16 -2 19 1 4 3 -2 6 -13 5 -11 0 -14 -3 -6 -6z"/>
<path d="M14648 3143 c7 -3 16 -2 19 1 4 3 -2 6 -13 5 -11 0 -14 -3 -6 -6z"/>
<path d="M17381 3100 c0 -8 4 -22 9 -30 12 -18 12 -2 0 25 -6 13 -9 15 -9 5z"/>
<path d="M12458 3043 c7 -3 16 -2 19 1 4 3 -2 6 -13 5 -11 0 -14 -3 -6 -6z"/>
<path d="M17720 3006 c0 -2 7 -9 15 -16 13 -11 14 -10 9 4 -5 14 -24 23 -24
12z"/>
<path d="M13468 2933 c7 -3 16 -2 19 1 4 3 -2 6 -13 5 -11 0 -14 -3 -6 -6z"/>
<path d="M13295 2906 c-16 -16 -21 -30 -18 -50 7 -32 23 -42 88 -51 28 -4 54
-10 59 -13 5 -3 23 -6 40 -8 161 -13 218 -23 209 -37 -5 -9 -3 -9 8 0 11 9 39
10 110 3 93 -9 509 -13 579 -6 19 2 51 7 70 11 26 5 31 4 20 -4 -13 -9 -13
-11 3 -11 9 0 17 7 17 15 0 10 10 15 30 15 36 0 61 32 57 76 -3 38 -17 40
-152 19 -163 -26 -590 -23 -709 5 -22 5 -43 7 -47 5 -3 -3 -48 2 -100 11 -52
8 -112 17 -134 20 -22 3 -55 9 -73 14 -29 8 -37 5 -57 -14z"/>
<path d="M12302 2840 c0 -14 2 -19 5 -12 2 6 2 18 0 25 -3 6 -5 1 -5 -13z"/>
<path d="M12260 2826 c0 -8 4 -17 9 -20 5 -4 7 3 4 14 -6 23 -13 26 -13 6z"/>
<path d="M17771 2734 c0 -11 3 -14 6 -6 3 7 2 16 -1 19 -3 4 -6 -2 -5 -13z"/>
<path d="M16290 2613 c8 -3 20 -10 26 -14 6 -5 11 -4 11 4 0 7 -12 13 -26 14
-14 1 -19 -1 -11 -4z"/>
<path d="M16115 2530 c3 -5 8 -10 11 -10 2 0 4 5 4 10 0 6 -5 10 -11 10 -5 0
-7 -4 -4 -10z"/>
<path d="M12330 2520 c0 -6 7 -10 15 -10 8 0 15 2 15 4 0 2 -7 6 -15 10 -8 3
-15 1 -15 -4z"/>
<path d="M16045 2509 c-4 -6 -4 -13 -1 -16 3 -4 6 -1 6 5 0 6 8 13 18 15 15 4
15 5 0 6 -9 0 -20 -4 -23 -10z"/>
<path d="M12380 2479 c0 -5 5 -7 10 -4 6 3 10 8 10 11 0 2 -4 4 -10 4 -5 0
-10 -5 -10 -11z"/>
<path d="M12506 2461 c-4 -5 3 -7 14 -4 23 6 26 13 6 13 -8 0 -17 -4 -20 -9z"/>
<path d="M12715 2391 c-3 -5 -2 -12 3 -15 5 -3 9 1 9 9 0 17 -3 19 -12 6z"/>
<path d="M15695 2380 c-3 -6 1 -7 9 -4 18 7 21 14 7 14 -6 0 -13 -4 -16 -10z"/>
<path d="M13168 2303 c6 -2 18 -2 25 0 6 3 1 5 -13 5 -14 0 -19 -2 -12 -5z"/>
<path d="M14948 2203 c7 -3 16 -2 19 1 4 3 -2 6 -13 5 -11 0 -14 -3 -6 -6z"/>
<path d="M5025 7829 c-249 -33 -494 -199 -610 -414 l-30 -54 -350 -3 c-337 -3
-351 -4 -391 -25 -22 -12 -57 -40 -77 -62 -70 -77 -68 -48 -65 -997 l3 -849
22 -41 c12 -22 38 -57 59 -77 74 -71 -29 -67 1542 -67 1064 0 1425 3 1454 12
53 16 131 87 154 140 18 40 19 83 22 644 l3 601 42 13 c154 46 292 179 349
335 30 83 36 236 13 325 -68 265 -335 441 -608 402 -167 -24 -324 -134 -402
-284 l-36 -68 -124 0 -124 0 -31 59 c-148 278 -495 452 -815 410z m298 -123
c36 -11 55 -22 50 -28 -4 -7 0 -9 10 -5 16 6 121 -45 112 -55 -3 -3 1 -8 10
-12 11 -4 14 -2 9 6 -4 6 25 -15 65 -47 71 -57 97 -88 87 -103 -3 -4 5 -14 17
-22 21 -12 21 -12 7 6 -14 18 -14 18 2 5 13 -10 15 -18 8 -31 -15 -28 -12 -36
5 -14 10 13 14 15 15 5 0 -8 7 -19 16 -25 12 -9 -2 -12 -66 -14 -78 -3 -81 -2
-75 16 3 11 1 23 -5 27 -6 4 -10 3 -9 -2 4 -26 -4 -24 -33 7 -18 19 -31 38
-30 43 1 4 -4 7 -11 7 -8 0 -22 9 -32 20 -18 20 -18 21 0 14 13 -5 16 -4 11 5
-4 6 -16 9 -26 6 -10 -3 -34 4 -54 16 -34 20 -35 22 -19 36 17 13 16 13 -3 4
-16 -8 -43 -5 -105 10 -70 18 -98 20 -188 14 -58 -3 -119 -7 -134 -7 -17 -1
-24 -4 -17 -8 8 -5 -2 -12 -26 -20 -22 -7 -44 -17 -51 -22 -7 -5 -18 -6 -24
-2 -8 5 -9 3 -4 -6 6 -9 4 -12 -7 -8 -8 4 -21 2 -29 -4 -11 -8 -9 -9 6 -4 16
4 15 2 -5 -12 -14 -9 -41 -31 -60 -47 -67 -58 -70 -59 -65 -35 2 13 1 19 -3
16 -4 -4 -7 -11 -7 -14 0 -4 -4 -13 -9 -21 -6 -10 -5 -12 2 -7 7 4 12 1 12 -8
0 -13 -12 -16 -61 -16 -58 0 -60 1 -55 23 l6 22 -11 -22 c-7 -13 -18 -23 -26
-23 -10 0 -7 9 9 33 13 17 26 34 31 35 4 2 7 9 7 16 0 17 66 76 76 68 4 -4 4
-2 1 4 -9 15 19 38 34 28 7 -4 9 -3 6 3 -4 6 10 23 30 39 24 18 38 24 41 16 2
-7 8 -12 14 -12 7 0 6 5 -1 14 -10 12 -8 17 8 26 12 6 21 8 21 5 0 -4 7 0 15
8 12 13 138 57 200 71 47 10 253 -2 308 -18z m1439 -106 c197 -61 323 -231
321 -435 -1 -130 -46 -228 -147 -323 -218 -205 -568 -138 -703 136 -37 75 -38
78 -38 191 0 106 2 121 27 175 62 130 147 209 276 253 85 29 178 30 264 3z
m-1547 -111 c88 -16 254 -103 234 -123 -3 -4 -152 -5 -330 -4 l-324 3 50 37
c106 80 241 111 370 87z m874 -316 l-2 -88 -1126 -5 -1126 -5 1126 -3 c1008
-2 1127 -4 1133 -18 4 -9 2 -13 -5 -8 -6 3 -3 -5 6 -20 10 -15 13 -26 6 -26
-6 0 -11 -5 -11 -11 0 -5 4 -8 10 -4 11 7 53 -82 45 -96 -4 -5 -1 -8 5 -7 7 2
20 -12 30 -30 10 -19 27 -40 37 -47 17 -13 17 -14 -2 -29 -11 -9 -26 -13 -32
-11 -7 2 -13 0 -13 -5 0 -6 5 -10 11 -10 6 0 -3 -13 -19 -30 -17 -16 -35 -30
-41 -30 -6 0 -11 -5 -11 -11 0 -14 -55 -69 -69 -69 -6 0 -11 -5 -11 -11 0 -14
-55 -69 -69 -69 -6 0 -11 -5 -11 -11 0 -14 -55 -69 -69 -69 -6 0 -11 -5 -11
-11 0 -14 -55 -69 -69 -69 -6 0 -11 -5 -11 -11 0 -14 -55 -69 -69 -69 -6 0
-11 -5 -11 -11 0 -21 -42 -50 -64 -44 -12 3 -15 2 -8 -1 6 -3 12 -13 12 -21 0
-13 -3 -13 -15 -3 -13 11 -14 10 -8 -5 5 -15 3 -17 -11 -12 -9 4 -15 3 -11 -3
3 -5 -2 -15 -10 -22 -9 -7 -21 -18 -28 -23 -28 -25 -110 -64 -120 -58 -6 3 -7
1 -3 -5 4 -7 1 -12 -7 -12 -8 0 -36 -9 -61 -21 -26 -11 -54 -18 -62 -15 -8 3
-14 2 -14 -2 0 -21 -247 -26 -333 -7 -82 18 -129 34 -123 44 2 3 -7 7 -20 7
-28 2 -115 55 -108 66 3 4 -1 5 -9 2 -7 -2 -33 14 -58 36 -24 23 -31 32 -15
21 31 -23 46 -26 46 -12 0 5 -10 11 -22 13 -13 2 -22 8 -21 14 1 6 -7 11 -18
10 -13 -1 -156 136 -449 429 -237 236 -430 431 -430 433 0 2 5 0 10 -3 6 -3
10 -1 10 5 0 7 -8 9 -19 5 -15 -4 -32 6 -67 41 -53 52 -52 62 6 102 l33 22
1189 0 1189 0 -2 -87z m-1564 -1057 c0 -10 7 -21 15 -24 13 -5 13 -3 1 11 -20
25 3 20 25 -5 10 -12 13 -18 5 -13 -10 5 -12 4 -7 -3 4 -7 14 -12 22 -12 9 0
34 -13 57 -28 23 -16 62 -39 87 -51 25 -12 53 -32 63 -44 14 -18 16 -19 11 -3
-6 15 -4 17 12 9 10 -6 33 -13 49 -16 17 -3 44 -11 60 -17 17 -7 55 -14 85
-16 90 -8 269 -9 258 -3 -8 5 51 19 84 20 4 0 24 7 43 15 20 8 40 12 45 9 6
-4 10 -2 10 3 0 10 57 37 62 31 2 -2 18 7 36 19 28 21 35 22 50 10 15 -12 16
-11 3 5 -7 9 -11 17 -7 17 3 0 8 0 11 1 2 0 18 13 36 30 17 16 35 29 39 29 4
0 29 21 55 47 38 39 48 45 56 33 9 -13 10 -13 6 1 -7 21 11 39 32 32 13 -4 13
-3 2 5 -11 8 -9 14 9 32 18 18 24 20 32 9 8 -11 9 -11 5 2 -7 21 11 39 32 32
13 -4 13 -3 2 5 -11 8 -9 14 9 32 18 18 24 20 32 9 8 -11 9 -11 5 2 -7 21 11
39 32 32 13 -4 13 -3 2 5 -11 8 -9 14 9 32 18 18 24 20 32 9 8 -11 9 -11 5 2
-7 21 11 39 32 32 13 -4 13 -3 2 5 -11 8 -9 14 9 32 18 18 24 20 32 9 8 -11 9
-11 5 2 -7 21 11 39 32 32 13 -4 13 -3 2 5 -11 8 -9 14 9 32 18 18 24 20 32 9
8 -11 9 -11 5 2 -7 21 11 39 32 32 13 -4 13 -3 2 5 -11 8 -9 14 9 32 18 18 24
20 32 9 8 -11 9 -11 5 2 -8 25 12 40 37 28 20 -10 20 -10 2 5 -23 19 -16 30
13 21 12 -3 18 -11 15 -17 -4 -7 -2 -8 4 -4 6 4 28 -2 49 -12 21 -11 64 -27
95 -36 31 -9 60 -21 63 -26 3 -6 12 -10 18 -10 7 0 6 4 -3 10 -11 7 -2 10 32
10 l48 0 0 -579 c0 -636 2 -612 -62 -666 -23 -20 -38 -25 -57 -20 -20 4 -22 3
-11 -5 10 -6 -434 -10 -1383 -10 -1211 0 -1402 2 -1433 15 -27 11 -34 19 -30
33 4 13 1 19 -9 19 -8 0 -15 -5 -15 -11 0 -6 -4 -4 -9 4 -12 17 -4 33 13 27 7
-3 13 4 13 14 2 17 0 18 -14 4 -21 -22 -37 -14 -44 21 -4 16 -7 380 -8 809
l-1 780 463 -460 c294 -292 463 -467 462 -479z"/>
<path d="M5400 7650 c20 -13 33 -13 25 0 -3 6 -14 10 -23 10 -15 0 -15 -2 -2
-10z"/>
<path d="M5438 7613 c7 -3 16 -2 19 1 4 3 -2 6 -13 5 -11 0 -14 -3 -6 -6z"/>
<path d="M5549 7547 c-15 -21 -15 -23 0 -23 10 0 17 9 17 23 2 28 3 28 -17 0z"/>
<path d="M4616 7448 c3 -5 10 -6 15 -3 13 9 11 12 -6 12 -8 0 -12 -4 -9 -9z"/>
<path d="M6765 7290 c-3 -5 -1 -10 4 -10 6 0 11 5 11 10 0 6 -2 10 -4 10 -3 0
-8 -4 -11 -10z"/>
<path d="M6740 7255 c-7 -9 -11 -17 -9 -20 3 -2 10 5 17 15 14 24 10 26 -8 5z"/>
<path d="M6806 7228 c3 -5 10 -6 15 -3 13 9 11 12 -6 12 -8 0 -12 -4 -9 -9z"/>
<path d="M6479 7207 c6 -8 7 -18 3 -22 -4 -5 -1 -5 6 -1 10 6 10 11 1 22 -6 8
-14 14 -16 14 -3 0 0 -6 6 -13z"/>
<path d="M6445 7189 c-4 -6 -5 -12 -2 -15 2 -3 7 2 10 11 7 17 1 20 -8 4z"/>
<path d="M6735 7179 c10 -10 22 -16 27 -13 12 8 -6 27 -28 30 -14 2 -14 0 1
-17z"/>
<path d="M6456 7165 c-9 -26 -7 -32 5 -12 6 10 9 21 6 23 -2 3 -7 -2 -11 -11z"/>
<path d="M6492 7168 c-7 -7 -12 -17 -12 -22 0 -6 5 -3 11 7 12 20 31 13 22 -8
-3 -8 -3 -15 0 -15 3 0 7 6 10 14 8 21 -16 39 -31 24z"/>
<path d="M6666 7164 c-5 -14 -4 -15 9 -4 17 14 19 20 6 20 -5 0 -12 -7 -15
-16z"/>
<path d="M6425 7150 c3 -5 8 -10 11 -10 2 0 4 5 4 10 0 6 -5 10 -11 10 -5 0
-7 -4 -4 -10z"/>
<path d="M6685 7149 c-4 -6 -5 -12 -2 -15 2 -3 7 2 10 11 7 17 1 20 -8 4z"/>
<path d="M6710 7143 c0 -15 18 -35 23 -27 3 5 -1 15 -9 22 -8 7 -14 9 -14 5z"/>
<path d="M6636 7131 c-3 -5 2 -15 12 -22 15 -12 16 -12 5 2 -7 9 -10 19 -6 22
3 4 4 7 0 7 -3 0 -8 -4 -11 -9z"/>
<path d="M6667 7119 c7 -7 15 -10 18 -7 3 3 -2 9 -12 12 -14 6 -15 5 -6 -5z"/>
<path d="M6599 7083 c-13 -16 -12 -17 4 -4 9 7 17 15 17 17 0 8 -8 3 -21 -13z"/>
<path d="M6667 7049 c-16 -21 -26 -39 -24 -39 7 0 59 71 56 75 -2 2 -17 -14
-32 -36z"/>
<path d="M6490 7070 c0 -4 9 -10 21 -13 12 -3 19 -1 17 5 -5 13 -38 20 -38 8z"/>
<path d="M6615 7040 c-3 -6 1 -7 9 -4 18 7 21 14 7 14 -6 0 -13 -4 -16 -10z"/>
<path d="M6560 6999 c0 -5 5 -7 10 -4 6 3 10 8 10 11 0 2 -4 4 -10 4 -5 0 -10
-5 -10 -11z"/>
<path d="M6585 6990 c-3 -5 -1 -10 4 -10 6 0 11 5 11 10 0 6 -2 10 -4 10 -3 0
-8 -4 -11 -10z"/>
<path d="M6616 6984 c-23 -23 -20 -30 4 -9 11 10 20 20 20 22 0 7 -9 2 -24
-13z"/>
<path d="M3800 7060 c-13 -8 -12 -10 3 -10 9 0 17 5 17 10 0 12 -1 12 -20 0z"/>
<path d="M3860 6985 c7 -9 15 -13 17 -11 7 7 -7 26 -19 26 -6 0 -6 -6 2 -15z"/>
<path d="M6115 6919 c-4 -6 -5 -12 -2 -15 2 -3 7 2 10 11 7 17 1 20 -8 4z"/>
<path d="M3940 6905 c7 -9 15 -13 17 -11 7 7 -7 26 -19 26 -6 0 -6 -6 2 -15z"/>
<path d="M4020 6825 c7 -9 15 -13 17 -11 7 7 -7 26 -19 26 -6 0 -6 -6 2 -15z"/>
<path d="M6195 6789 c-4 -6 -5 -12 -2 -15 2 -3 7 2 10 11 7 17 1 20 -8 4z"/>
<path d="M4100 6745 c7 -9 15 -13 17 -11 7 7 -7 26 -19 26 -6 0 -6 -6 2 -15z"/>
<path d="M6085 6709 c-11 -16 -1 -19 13 -3 7 8 8 14 3 14 -5 0 -13 -5 -16 -11z"/>
<path d="M4180 6665 c7 -9 15 -13 17 -11 7 7 -7 26 -19 26 -6 0 -6 -6 2 -15z"/>
<path d="M6005 6629 c-11 -16 -1 -19 13 -3 7 8 8 14 3 14 -5 0 -13 -5 -16 -11z"/>
<path d="M4260 6585 c7 -9 15 -13 17 -11 7 7 -7 26 -19 26 -6 0 -6 -6 2 -15z"/>
<path d="M5925 6549 c-11 -16 -1 -19 13 -3 7 8 8 14 3 14 -5 0 -13 -5 -16 -11z"/>
<path d="M4340 6505 c7 -9 15 -13 17 -11 7 7 -7 26 -19 26 -6 0 -6 -6 2 -15z"/>
<path d="M5128 6489 c-9 -5 -29 -10 -47 -11 -17 -1 -31 -6 -31 -11 0 -5 -10
-5 -22 -2 -16 4 -19 3 -9 -3 11 -8 10 -13 -5 -30 -11 -14 -21 -18 -25 -11 -4
7 -9 4 -12 -6 -4 -9 -3 -13 3 -10 13 8 13 3 -1 -32 -17 -44 -1 -120 32 -158
20 -23 25 -35 17 -38 -15 -5 6 -7 127 -11 50 -1 82 -1 71 2 -15 3 -11 8 19 26
20 13 36 25 35 27 -1 2 4 18 11 34 6 17 11 43 10 59 -2 16 3 33 11 37 10 7 10
9 1 9 -7 0 -13 6 -13 13 -1 46 -135 137 -172 116z"/>
<path d="M4975 6470 c3 -5 8 -10 11 -10 2 0 4 5 4 10 0 6 -5 10 -11 10 -5 0
-7 -4 -4 -10z"/>
<path d="M5845 6469 c-11 -16 -1 -19 13 -3 7 8 8 14 3 14 -5 0 -13 -5 -16 -11z"/>
<path d="M4420 6425 c7 -9 15 -13 17 -11 7 7 -7 26 -19 26 -6 0 -6 -6 2 -15z"/>
<path d="M5765 6389 c-11 -16 -1 -19 13 -3 7 8 8 14 3 14 -5 0 -13 -5 -16 -11z"/>
<path d="M5336 6365 c-9 -26 -7 -32 5 -12 6 10 9 21 6 23 -2 3 -7 -2 -11 -11z"/>
<path d="M4500 6345 c7 -9 15 -13 17 -11 7 7 -7 26 -19 26 -6 0 -6 -6 2 -15z"/>
<path d="M5337 6313 c-4 -3 -7 -11 -7 -17 0 -6 5 -5 12 2 6 6 9 14 7 17 -3 3
-9 2 -12 -2z"/>
<path d="M5685 6309 c-11 -16 -1 -19 13 -3 7 8 8 14 3 14 -5 0 -13 -5 -16 -11z"/>
<path d="M4580 6265 c7 -9 15 -13 17 -11 7 7 -7 26 -19 26 -6 0 -6 -6 2 -15z"/>
<path d="M4748 6133 c7 -3 16 -2 19 1 4 3 -2 6 -13 5 -11 0 -14 -3 -6 -6z"/>
<path d="M5465 6130 c4 -6 11 -8 16 -5 14 9 11 15 -7 15 -8 0 -12 -5 -9 -10z"/>
<path d="M5275 6070 c-3 -6 1 -7 9 -4 18 7 21 14 7 14 -6 0 -13 -4 -16 -10z"/>
<path d="M4968 6053 c7 -3 16 -2 19 1 4 3 -2 6 -13 5 -11 0 -14 -3 -6 -6z"/>
<path d="M3630 6995 c7 -9 15 -13 17 -11 7 7 -7 26 -19 26 -6 0 -6 -6 2 -15z"/>
<path d="M3710 6915 c7 -9 15 -13 17 -11 7 7 -7 26 -19 26 -6 0 -6 -6 2 -15z"/>
<path d="M3790 6835 c7 -9 15 -13 17 -11 7 7 -7 26 -19 26 -6 0 -6 -6 2 -15z"/>
<path d="M3870 6755 c7 -9 15 -13 17 -11 7 7 -7 26 -19 26 -6 0 -6 -6 2 -15z"/>
<path d="M3950 6675 c7 -9 15 -13 17 -11 7 7 -7 26 -19 26 -6 0 -6 -6 2 -15z"/>
<path d="M4030 6595 c7 -9 15 -13 17 -11 7 7 -7 26 -19 26 -6 0 -6 -6 2 -15z"/>
<path d="M6518 6593 c6 -2 18 -2 25 0 6 3 1 5 -13 5 -14 0 -19 -2 -12 -5z"/>
<path d="M4110 6515 c7 -9 15 -13 17 -11 7 7 -7 26 -19 26 -6 0 -6 -6 2 -15z"/>
<path d="M4190 6435 c7 -9 15 -13 17 -11 7 7 -7 26 -19 26 -6 0 -6 -6 2 -15z"/>
<path d="M4270 6355 c7 -9 15 -13 17 -11 7 7 -7 26 -19 26 -6 0 -6 -6 2 -15z"/>
<path d="M4350 6275 c7 -9 15 -13 17 -11 7 7 -7 26 -19 26 -6 0 -6 -6 2 -15z"/>
<path d="M4430 6195 c7 -9 15 -13 17 -11 7 7 -7 26 -19 26 -6 0 -6 -6 2 -15z"/>
<path d="M5744 6102 c5 -8 -1 -12 -16 -13 -18 -1 -19 -2 -4 -6 23 -6 43 12 25
22 -8 5 -10 4 -5 -3z"/>
<path d="M5669 6078 c-6 -20 -6 -39 0 -42 4 -3 7 6 7 20 0 20 -4 32 -7 22z"/>
<path d="M5635 6051 c-3 -5 -2 -12 3 -15 5 -3 9 1 9 9 0 17 -3 19 -12 6z"/>
<path d="M4585 6040 c-3 -6 1 -7 9 -4 18 7 21 14 7 14 -6 0 -13 -4 -16 -10z"/>
<path d="M4838 5923 c7 -3 16 -2 19 1 4 3 -2 6 -13 5 -11 0 -14 -3 -6 -6z"/>
<path d="M5238 5853 c7 -3 16 -2 19 1 4 3 -2 6 -13 5 -11 0 -14 -3 -6 -6z"/>
<path d="M6580 5396 c7 -7 13 -7 20 0 6 6 3 10 -10 10 -13 0 -16 -4 -10 -10z"/>
<path d="M2367 4926 c10 -13 19 -23 21 -21 5 5 -22 45 -31 45 -4 0 0 -11 10
-24z"/>
<path d="M2180 4930 c-9 -6 -10 -10 -3 -10 6 0 15 5 18 10 8 12 4 12 -15 0z"/>
<path d="M2491 4624 c0 -11 3 -14 6 -6 3 7 2 16 -1 19 -3 4 -6 -2 -5 -13z"/>
<path d="M2041 4594 c0 -11 3 -14 6 -6 3 7 2 16 -1 19 -3 4 -6 -2 -5 -13z"/>
<path d="M2435 4449 c-4 -6 -5 -12 -2 -15 2 -3 7 2 10 11 7 17 1 20 -8 4z"/>
<path d="M2090 4446 c0 -2 7 -9 15 -16 13 -11 14 -10 9 4 -5 14 -24 23 -24 12z"/>
<path d="M2134 4419 c-3 -6 -2 -15 3 -20 5 -5 9 -1 9 11 0 23 -2 24 -12 9z"/>
<path d="M1798 4693 c7 -3 16 -2 19 1 4 3 -2 6 -13 5 -11 0 -14 -3 -6 -6z"/>
<path d="M1845 4659 c-11 -16 -1 -19 13 -3 7 8 8 14 3 14 -5 0 -13 -5 -16 -11z"/>
<path d="M1931 4434 c0 -11 3 -14 6 -6 3 7 2 16 -1 19 -3 4 -6 -2 -5 -13z"/>
<path d="M1961 4400 c0 -8 4 -22 9 -30 12 -18 12 -2 0 25 -6 13 -9 15 -9 5z"/>
<path d="M2010 4291 c0 -6 4 -13 10 -16 6 -3 7 1 4 9 -7 18 -14 21 -14 7z"/>
<path d="M1728 4203 c7 -3 16 -2 19 1 4 3 -2 6 -13 5 -11 0 -14 -3 -6 -6z"/>
<path d="M1770 4200 c8 -5 20 -10 25 -10 6 0 3 5 -5 10 -8 5 -19 10 -25 10 -5
0 -3 -5 5 -10z"/>
<path d="M1818 4183 c7 -3 16 -2 19 1 4 3 -2 6 -13 5 -11 0 -14 -3 -6 -6z"/>
<path d="M2991 4464 c0 -11 3 -14 6 -6 3 7 2 16 -1 19 -3 4 -6 -2 -5 -13z"/>
<path d="M2983 4390 c-1 -11 2 -22 6 -24 4 -3 7 4 6 14 -2 27 -10 33 -12 10z"/>
<path d="M2510 4271 c0 -5 7 -15 17 -22 15 -13 15 -12 4 9 -12 23 -21 28 -21
13z"/>
<path d="M2430 4170 c0 -5 5 -10 11 -10 5 0 7 5 4 10 -3 6 -8 10 -11 10 -2 0
-4 -4 -4 -10z"/>
<path d="M8026 4014 c-19 -18 -21 -55 -4 -72 9 -9 90 -12 305 -12 279 0 293 1
303 19 14 27 13 47 -6 65 -13 14 -55 16 -299 16 -244 0 -286 -2 -299 -16z"/>
<path d="M7077 3780 c-401 -4 -469 -7 -477 -20 -13 -20 -12 -37 0 -61 10 -18
26 -19 488 -19 l478 0 158 -180 c196 -222 184 -218 301 -97 44 46 119 135 168
198 86 115 102 150 75 177 -13 13 -215 13 -1191 2z m1024 -132 c-51 -69 -171
-208 -179 -208 -5 0 -59 56 -121 125 l-112 125 221 0 222 0 -31 -42z"/>
<path d="M8286 3524 c-9 -8 -16 -24 -16 -34 0 -46 20 -50 220 -50 l190 0 16
25 c15 23 15 27 0 50 l-16 25 -190 0 c-158 0 -191 -3 -204 -16z"/>
<path d="M6788 3269 c-11 -6 -18 -22 -18 -39 0 -18 7 -33 18 -38 9 -5 128 -12
264 -15 268 -5 288 -2 288 48 0 51 -23 55 -290 55 -148 0 -252 -5 -262 -11z"/>
<path d="M9716 3254 c-22 -21 -20 -40 5 -65 21 -21 26 -22 203 -15 103 4 186
12 193 18 16 13 17 50 1 66 -8 8 -67 12 -199 12 -157 0 -190 -3 -203 -16z"/>
<path d="M16542 1999 c-12 -5 -24 -19 -28 -33 -8 -35 10 -194 36 -304 17 -74
27 -96 46 -109 20 -13 30 -14 49 -5 31 14 32 38 5 135 -11 39 -23 117 -27 172
-3 55 -9 110 -14 121 -9 25 -36 34 -67 23z"/>
<path d="M13500 16429 c-110 -22 -223 -110 -276 -216 l-29 -58 0 -1430 0
-1430 27 -57 c37 -80 107 -152 187 -191 l66 -32 540 -5 540 -5 683 -449 683
-448 56 4 c48 4 61 10 84 36 16 18 32 44 35 59 4 15 -15 185 -45 397 -29 204
-53 378 -54 386 -2 13 70 16 578 20 l580 5 58 27 c108 51 183 136 217 245 20
64 20 90 20 1432 0 1108 -3 1375 -14 1416 -41 155 -159 265 -316 295 -66 13
-3555 12 -3620 -1z m3682 -122 c61 -30 105 -74 140 -140 l23 -42 3 -1385 c3
-1535 7 -1431 -64 -1524 -24 -31 -54 -55 -101 -78 l-68 -33 -604 -5 c-546 -5
-605 -7 -614 -21 -8 -12 6 -131 49 -434 57 -404 58 -417 40 -430 -14 -11 -24
-12 -39 -3 -11 5 -321 208 -688 449 l-668 438 -538 3 c-525 3 -539 4 -584 24
-67 31 -124 87 -156 152 l-28 57 0 1385 0 1385 26 56 c41 86 115 148 204 170
17 4 836 6 1820 6 l1790 -2 57 -28z"/>
<path d="M14568 15949 c-15 -8 -18 -25 -18 -109 l0 -100 -157 0 c-145 0 -162
-2 -209 -24 -54 -25 -94 -69 -113 -125 -17 -51 -16 -1738 1 -1795 17 -56 82
-119 138 -134 35 -10 281 -12 1061 -10 l1015 3 42 28 c23 15 54 46 69 69 l28
42 3 875 c2 670 0 886 -10 921 -15 56 -78 121 -134 138 -25 7 -102 12 -193 12
l-151 0 0 95 c0 90 -1 95 -25 111 -23 15 -27 15 -50 0 -24 -16 -25 -21 -25
-111 l0 -95 -600 0 -600 0 0 94 c0 73 -4 98 -16 110 -18 18 -32 20 -56 5z
m-18 -397 c0 -93 8 -112 45 -112 37 0 45 19 45 112 l0 88 600 0 600 0 0 -81
c0 -95 10 -119 48 -119 45 0 52 16 52 112 l0 88 153 0 c134 0 156 -2 185 -20
18 -11 37 -32 42 -46 6 -14 10 -117 10 -230 l0 -204 -1085 0 -1085 0 0 204 c0
113 4 216 10 230 5 14 24 35 42 46 29 18 51 20 186 20 l152 0 0 -88z m1780
-1111 l0 -598 -23 -34 c-13 -19 -38 -39 -57 -46 -26 -9 -282 -12 -1008 -12
-1079 -1 -1020 -5 -1062 64 -19 31 -20 48 -20 629 l0 596 1085 0 1085 0 0
-599z"/>
<path d="M14593 14708 c-27 -6 -51 -19 -67 -38 -13 -16 -26 -25 -28 -19 -2 5
-4 -8 -4 -30 -1 -21 -4 -52 -8 -68 -5 -21 -4 -24 4 -13 8 13 10 12 11 -5 1
-11 2 -26 2 -33 -1 -7 1 -11 4 -8 3 3 19 -6 35 -19 23 -19 41 -25 78 -25 27 0
54 -2 62 -3 7 -2 10 -2 6 0 -4 3 5 15 20 28 17 15 29 19 34 13 3 -6 6 0 6 13
1 29 19 110 21 90 0 -8 3 -12 6 -9 8 8 -6 39 -15 33 -4 -3 -6 13 -3 35 4 24 2
40 -5 40 -5 0 -8 -10 -5 -22 4 -20 3 -21 -9 -8 -38 44 -86 60 -145 48z"/>
<path d="M14710 14709 c0 -5 5 -7 10 -4 6 3 10 8 10 11 0 2 -4 4 -10 4 -5 0
-10 -5 -10 -11z"/>
<path d="M15048 14715 c-3 -3 -21 -6 -41 -7 -20 -1 -34 -5 -31 -9 2 -4 -5 -13
-16 -19 -27 -14 -53 -78 -46 -112 3 -18 1 -27 -6 -25 -6 1 -13 -4 -16 -12 -3
-10 0 -12 11 -8 11 4 21 -1 28 -16 21 -37 38 -49 82 -53 23 -3 57 -7 76 -9 18
-2 31 -2 28 1 -7 7 35 50 46 47 4 -2 6 0 6 5 -3 18 2 33 10 28 7 -5 8 20 2 86
0 10 -15 33 -31 52 -21 23 -26 36 -18 39 7 2 2 4 -12 4 -14 -1 -34 2 -46 6
-11 4 -23 5 -26 2z"/>
<path d="M15410 14699 c-19 -10 -39 -14 -44 -11 -5 3 -6 -1 -1 -8 4 -7 2 -16
-6 -20 -26 -17 -30 -103 -6 -148 11 -21 19 -38 18 -40 -2 -2 1 -7 5 -10 4 -4
4 -1 -1 7 -5 9 -4 12 3 7 7 -4 12 -15 13 -24 0 -9 3 -12 5 -6 3 6 27 9 64 6
49 -4 64 -1 92 18 18 13 27 17 21 10 -17 -18 -17 -35 0 -18 15 15 17 27 22
121 2 46 0 65 -7 60 -7 -4 -9 2 -5 16 3 13 3 20 0 17 -3 -3 -21 4 -40 15 -42
26 -88 29 -133 8z"/>
<path d="M15541 14717 c2 -1 12 -9 22 -16 15 -12 17 -12 11 3 -3 9 -13 16 -22
16 -8 0 -13 -1 -11 -3z"/>
<path d="M15826 14708 c3 -4 -4 -12 -15 -17 -11 -6 -21 -8 -24 -3 -2 4 -2 1 0
-6 1 -8 -4 -23 -12 -35 -27 -39 -16 -137 19 -159 6 -4 7 -10 3 -14 -3 -4 -15
-1 -24 7 -15 11 -15 10 1 -9 14 -16 22 -19 27 -10 6 9 11 9 23 -1 11 -9 36
-12 76 -9 37 3 61 0 64 -6 2 -6 5 -3 5 6 1 9 6 20 13 24 7 5 8 2 3 -7 -5 -8
-4 -11 1 -6 5 5 9 12 10 15 0 4 6 20 13 37 16 40 12 125 -8 149 -27 30 -72 48
-127 50 -29 0 -50 -2 -48 -6z"/>
<path d="M14919 14673 c-13 -16 -12 -17 4 -4 16 13 21 21 13 21 -2 0 -10 -8
-17 -17z"/>
<path d="M15166 14668 c10 -14 21 -24 23 -22 3 3 -6 15 -18 27 l-24 22 19 -27z"/>
<path d="M14905 14639 c-4 -6 -5 -12 -2 -15 2 -3 7 2 10 11 7 17 1 20 -8 4z"/>
<path d="M15312 14570 c0 -14 2 -19 5 -12 2 6 2 18 0 25 -3 6 -5 1 -5 -13z"/>
<path d="M14767 14540 c-3 -11 -3 -20 -1 -20 2 0 8 9 14 20 6 11 7 20 2 20 -6
0 -12 -9 -15 -20z"/>
<path d="M14520 14466 c0 -8 7 -17 16 -20 23 -9 24 -4 2 17 -14 13 -18 14 -18
3z"/>
<path d="M15480 14430 c-11 -8 -8 -9 11 -4 15 3 30 1 33 -5 4 -6 12 -11 19
-11 6 0 2 7 -9 15 -23 17 -34 18 -54 5z"/>
<path d="M15855 14430 c27 -12 43 -12 25 0 -8 5 -22 9 -30 9 -10 0 -8 -3 5 -9z"/>
<path d="M14960 14426 c0 -3 9 -10 20 -16 11 -6 20 -8 20 -6 0 3 -9 10 -20 16
-11 6 -20 8 -20 6z"/>
<path d="M15766 14418 c3 -4 11 -5 19 -1 21 7 19 12 -4 10 -11 0 -18 -5 -15
-9z"/>
<path d="M15399 14410 c-9 -6 -6 -8 14 -6 32 3 43 11 18 13 -9 1 -24 -2 -32
-7z"/>
<path d="M15914 14413 c3 -4 18 -8 32 -9 14 -2 24 0 20 3 -3 3 -17 7 -32 9
-14 1 -23 0 -20 -3z"/>
<path d="M15020 14396 c0 -2 7 -7 16 -10 8 -3 12 -2 9 4 -6 10 -25 14 -25 6z"/>
<path d="M15418 14377 c12 -7 19 -17 15 -22 -4 -4 -2 -5 5 -1 17 10 -3 36 -27
36 -12 -1 -10 -4 7 -13z"/>
<path d="M15925 14377 c-15 -12 -16 -15 -4 -22 8 -5 10 -4 6 0 -4 5 3 15 15
22 13 7 18 12 12 13 -5 0 -18 -6 -29 -13z"/>
<path d="M15098 14363 c7 -3 16 -2 19 1 4 3 -2 6 -13 5 -11 0 -14 -3 -6 -6z"/>
<path d="M14615 14340 c-16 -4 -40 -12 -52 -19 -13 -6 -23 -8 -23 -4 -1 4 -8
-5 -16 -20 -8 -15 -20 -25 -26 -21 -7 4 -8 -1 -3 -16 4 -12 3 -20 -1 -17 -5 3
-9 -14 -9 -38 0 -24 3 -41 8 -38 4 2 7 -1 7 -7 0 -16 43 -75 57 -77 7 -2 29
-6 50 -11 51 -11 111 19 135 68 10 19 18 29 18 21 0 -8 2 -12 4 -10 10 10 -16
122 -32 138 -34 35 -86 57 -117 51z"/>
<path d="M14678 14343 c7 -3 16 -2 19 1 4 3 -2 6 -13 5 -11 0 -14 -3 -6 -6z"/>
<path d="M14978 14343 c7 -3 16 -2 19 1 4 3 -2 6 -13 5 -11 0 -14 -3 -6 -6z"/>
<path d="M15012 14334 c-18 -8 -38 -12 -43 -8 -6 3 -13 -3 -16 -15 -3 -11 -9
-19 -13 -16 -5 3 -14 -20 -20 -50 -10 -50 -9 -60 9 -97 18 -37 19 -43 4 -53
-14 -11 -14 -12 1 -12 9 0 16 4 16 8 0 4 17 1 37 -7 23 -10 51 -14 77 -10 23
3 49 6 59 7 9 0 15 4 12 8 -2 5 2 15 11 22 23 19 45 78 38 104 -3 13 -1 34 6
47 11 22 11 23 -6 3 -16 -20 -16 -20 -11 2 3 14 1 21 -7 20 -6 -1 -10 4 -8 11
1 8 -2 11 -8 7 -5 -3 -10 -1 -10 4 0 6 -6 10 -12 9 -7 -2 -12 2 -11 7 1 6 -8
10 -20 11 -12 0 -29 3 -37 7 -8 3 -30 -1 -48 -9z"/>
<path d="M15422 14329 c-58 -25 -82 -61 -82 -123 0 -29 6 -61 15 -72 8 -12 11
-24 8 -28 -3 -3 1 -6 11 -6 9 0 15 -3 13 -7 -13 -20 170 -20 190 0 4 5 -1 5
-10 1 -15 -5 -13 0 7 31 30 43 35 117 11 149 -8 10 -12 23 -9 28 3 5 2 8 -3 7
-14 -4 -64 21 -60 28 9 14 -52 8 -91 -8z"/>
<path d="M15846 14338 c6 -10 -28 -27 -51 -25 -22 2 -27 -14 -30 -112 -1 -61
0 -66 30 -92 41 -36 99 -46 149 -25 21 9 43 13 49 9 6 -3 7 -1 3 5 -4 6 5 29
19 52 14 22 20 40 14 40 -6 0 -9 13 -7 29 6 59 -68 121 -149 125 -17 1 -29 -2
-27 -6z m-46 -32 c0 -3 -4 -8 -10 -11 -5 -3 -10 -1 -10 4 0 6 5 11 10 11 6 0
10 -2 10 -4z"/>
<path d="M15991 14313 c7 -12 15 -20 18 -17 3 2 -3 12 -13 22 -17 16 -18 16
-5 -5z"/>
<path d="M14740 14316 c0 -2 7 -7 16 -10 8 -3 12 -2 9 4 -6 10 -25 14 -25 6z"/>
<path d="M14760 14261 c0 -6 4 -13 10 -16 6 -3 7 1 4 9 -7 18 -14 21 -14 7z"/>
<path d="M15295 14239 c-3 -4 2 -6 10 -5 21 3 28 13 10 13 -9 0 -18 -4 -20 -8z"/>
<path d="M16045 14239 c-4 -6 -5 -12 -2 -15 2 -3 7 2 10 11 7 17 1 20 -8 4z"/>
<path d="M15330 14131 c0 -6 4 -13 10 -16 6 -3 7 1 4 9 -7 18 -14 21 -14 7z"/>
<path d="M16016 14123 c-6 -14 -5 -15 5 -6 7 7 10 15 7 18 -3 3 -9 -2 -12 -12z"/>
<path d="M14495 14101 c-3 -5 -1 -12 5 -16 5 -3 10 1 10 9 0 18 -6 21 -15 7z"/>
<path d="M15166 14088 c3 -5 10 -6 15 -3 13 9 11 12 -6 12 -8 0 -12 -4 -9 -9z"/>
<path d="M14620 14046 c0 -2 7 -7 16 -10 8 -3 12 -2 9 4 -6 10 -25 14 -25 6z"/>
<path d="M16275 13830 c-3 -6 1 -7 9 -4 18 7 21 14 7 14 -6 0 -13 -4 -16 -10z"/>
<path d="M16265 13800 c-19 -8 -19 -9 3 -9 12 -1 22 4 22 9 0 6 -1 10 -2 9 -2
0 -12 -4 -23 -9z"/>
<path d="M12359 13007 c-9 -19 -6 -35 14 -83 79 -188 110 -335 111 -537 1
-170 5 -183 54 -170 36 9 45 60 39 232 -6 167 -20 248 -69 395 -50 149 -68
180 -106 184 -26 3 -34 -1 -43 -21z"/>
<path d="M12665 12910 c-17 -19 -17 -23 14 -116 24 -70 34 -122 37 -188 7
-121 10 -135 39 -148 21 -9 28 -8 45 7 16 14 20 31 20 76 0 142 -47 336 -91
372 -27 22 -42 22 -64 -3z"/>
<path d="M18654 10546 c-63 -28 -96 -105 -74 -172 9 -26 40 -57 132 -130 236
-188 341 -304 410 -454 54 -118 107 -183 174 -216 40 -19 62 -25 86 -20 118
22 168 148 119 294 -62 182 -272 460 -436 578 -152 108 -323 158 -411 120z"/>
<path d="M19330 9403 c-103 -53 -108 -202 -8 -263 62 -38 150 -17 188 45 24
39 27 113 5 155 -34 65 -122 95 -185 63z"/>
</g>
</svg>
