<?xml version="1.0" standalone="no"?>
<!DOCTYPE svg PUBLIC "-//W3C//DTD SVG 20010904//EN"
 "http://www.w3.org/TR/2001/REC-SVG-20010904/DTD/svg10.dtd">
<svg version="1.0" xmlns="http://www.w3.org/2000/svg"
 width="2000.000000pt" height="2000.000000pt" viewBox="0 0 2000.000000 2000.000000"
 preserveAspectRatio="xMidYMid meet">

<g transform="translate(0.000000,2000.000000) scale(0.100000,-0.100000)"
fill="#000000" stroke="none">
<path d="M14140 17713 c-387 -58 -629 -169 -881 -403 -221 -205 -380 -489
-446 -800 -26 -121 -26 -449 0 -570 68 -314 196 -551 416 -770 196 -195 424
-327 675 -391 282 -72 596 -60 861 33 91 31 175 70 175 79 0 5 -17 45 -37 89
-20 44 -84 187 -143 318 -58 130 -110 236 -116 235 -5 -2 -56 -19 -114 -39
-356 -125 -738 21 -927 354 -68 120 -98 237 -97 377 1 252 112 469 318 625 96
72 239 130 359 145 l57 7 0 359 0 359 -37 -1 c-21 -1 -49 -3 -63 -6z"/>
<path d="M9602 12688 l3 -2173 395 0 395 0 3 2173 2 2172 -400 0 -400 0 2
-2172z"/>
<path d="M6290 13973 l0 -708 -253 -250 c-335 -332 -377 -371 -476 -440 -134
-94 -178 -106 -419 -115 l-203 -8 -48 -45 c-52 -48 -92 -65 -183 -74 -97 -10
-122 0 -209 83 -43 41 -85 74 -94 74 -52 0 -773 -200 -904 -250 -228 -88 -380
-234 -495 -473 -35 -73 -78 -163 -96 -202 -18 -38 -71 -149 -118 -245 -296
-614 -296 -614 -377 -800 -79 -184 -94 -229 -104 -323 -44 -388 232 -842 824
-1358 66 -57 135 -115 153 -127 52 -38 53 -45 22 -192 -37 -171 -37 -170 -1
-170 17 0 32 -3 34 -7 3 -5 -8 -64 -24 -133 -73 -315 -234 -1109 -353 -1745
-295 -1569 -722 -4173 -690 -4205 6 -6 51 -19 100 -29 l89 -17 -150 -89 c-204
-121 -539 -330 -591 -368 -23 -18 -48 -43 -54 -57 -17 -35 -23 -132 -13 -215
l8 -70 110 -6 c68 -3 -7 -6 -197 -7 l-308 -2 0 -65 0 -65 8730 0 8730 0 0 65
0 65 -567 1 c-313 0 -557 4 -543 8 76 23 157 98 181 167 20 59 16 141 -11 202
-72 167 -302 211 -432 81 -104 -104 -104 -274 1 -379 27 -27 66 -54 92 -63 41
-14 5 -15 -521 -16 -484 0 -560 2 -527 13 73 26 142 95 166 165 20 61 14 151
-15 209 -30 61 -69 96 -143 130 -134 62 -301 -20 -351 -172 -17 -52 -8 -151
18 -203 28 -53 95 -110 152 -128 40 -12 -18 -14 -495 -14 -463 0 -535 2 -502
13 142 51 210 202 160 355 -20 64 -91 134 -154 152 -189 54 -359 -66 -359
-250 0 -116 63 -211 166 -251 48 -19 1 -19 -4096 -17 -2280 1 -4094 3 -4033 4
l113 4 7 27 c4 15 7 75 8 134 0 92 -3 110 -20 135 -28 39 -220 165 -540 356
-148 88 -277 166 -285 174 -12 11 -11 13 11 13 14 0 34 6 44 14 17 12 18 27
11 277 -35 1357 -243 4769 -346 5699 -14 121 -13 140 7 140 19 0 20 -15 -32
610 -50 614 -75 963 -75 1059 0 133 42 379 142 836 47 214 26 175 228 434 l95
121 3 -465 2 -465 395 0 395 0 0 1017 0 1016 39 51 c103 136 362 520 486 721
93 150 415 686 415 691 0 2 14 26 30 54 17 28 30 57 30 65 0 7 -19 27 -42 43
-24 15 -98 69 -166 118 -68 49 -181 130 -251 180 l-127 91 -91 -101 c-134
-148 -305 -331 -315 -334 -4 -2 -8 123 -8 277 l0 281 -395 0 -395 0 0 -707z
m-2813 -3603 c27 -120 28 -136 28 -377 0 -302 -1 -306 -77 -223 -63 69 -177
220 -211 280 -14 25 -29 62 -32 83 -6 33 -3 45 27 90 19 29 63 85 97 126 34
40 76 93 93 117 17 25 35 41 39 37 4 -5 20 -64 36 -133z m1136 -4502 c174
-830 547 -2746 703 -3603 14 -82 30 -154 34 -158 4 -5 35 -3 70 3 34 6 64 10
66 7 2 -2 8 -91 14 -198 6 -107 15 -223 21 -259 6 -36 14 -102 18 -148 4 -45
11 -85 15 -90 4 -4 53 -10 109 -13 56 -3 -535 -6 -1313 -6 -778 0 -1371 3
-1318 6 54 3 102 11 109 18 7 7 15 47 20 90 4 43 12 110 18 148 6 39 13 133
16 210 3 77 8 173 11 214 l6 74 122 -7 c96 -6 125 -4 133 6 24 29 168 531 688
2403 145 523 296 1070 337 1217 40 147 75 268 78 268 3 0 22 -82 43 -182z"/>
<path d="M4990 14584 c-184 -24 -402 -51 -485 -59 -253 -27 -496 -85 -628
-152 -107 -53 -168 -143 -204 -298 -28 -123 -25 -458 6 -615 46 -235 173 -561
255 -656 20 -24 57 -50 87 -63 72 -31 238 -67 374 -81 136 -14 383 -8 440 11
103 34 183 165 231 378 l24 106 -28 20 c-77 55 -120 120 -147 226 -27 103 -8
171 55 204 33 17 136 23 150 9 5 -5 12 -29 16 -53 7 -42 6 -43 -15 -31 -29 15
-73 5 -101 -25 -40 -43 -26 -145 22 -161 30 -9 32 2 4 29 -49 49 -22 137 42
137 38 -1 59 -20 67 -61 10 -52 18 -61 48 -54 22 6 28 16 41 73 18 76 42 231
52 342 5 61 14 89 45 147 71 129 77 158 85 401 7 215 7 219 -15 241 -11 11
-30 21 -40 21 -11 0 -25 2 -33 4 -7 2 -164 -16 -348 -40z"/>
<path d="M13038 13793 l-276 -308 76 -5 77 -5 3 -1482 2 -1483 395 0 395 0 0
1485 0 1485 75 0 c62 0 74 3 68 14 -4 7 -123 141 -263 297 -140 155 -260 289
-265 296 -8 11 -73 -55 -287 -294z"/>
<path d="M16801 12894 c-50 -42 -63 -108 -59 -286 l3 -150 -35 6 c-78 15 -260
18 -350 6 -52 -6 -144 -15 -205 -19 -165 -12 -261 -56 -369 -166 -89 -90 -187
-270 -211 -385 -4 -19 -23 -73 -42 -120 -39 -98 -87 -273 -102 -376 -50 -338
1 -570 149 -679 44 -32 162 -83 280 -121 58 -19 198 -31 280 -24 64 5 64 5 23
12 -63 9 -165 60 -218 109 -64 59 -103 119 -142 214 -32 78 -33 80 -72 86
-112 15 -231 177 -231 315 0 83 24 112 113 136 41 11 49 10 57 -2 15 -23 12
-80 -4 -80 -7 0 -25 -9 -39 -20 -50 -39 -44 -132 10 -167 34 -23 41 -8 11 25
-34 36 -39 56 -27 92 10 28 35 50 57 50 6 0 15 -14 21 -30 12 -37 37 -48 59
-27 12 12 19 55 28 174 19 242 15 234 129 278 117 45 367 171 417 209 l48 37
50 -40 c145 -115 364 -222 475 -233 26 -3 31 -8 37 -43 4 -22 7 -76 7 -120 2
-194 74 -240 102 -65 7 41 17 81 23 88 28 38 154 55 206 29 65 -33 85 -117 56
-239 -30 -127 -152 -243 -235 -221 -21 5 -22 3 -37 -112 -8 -67 -47 -167 -85
-220 -18 -24 -58 -63 -90 -87 -32 -23 -57 -43 -56 -45 6 -5 224 56 309 87 202
73 329 186 372 329 20 69 21 205 1 331 -40 259 -141 506 -290 705 l-61 81 96
47 c108 53 197 119 240 179 42 57 42 125 0 191 -68 108 -303 232 -518 273
-109 21 -145 18 -181 -12z"/>
<path d="M16620 11627 c-17 -9 -26 -22 -28 -43 -4 -39 10 -45 70 -32 37 9 56
8 94 -5 27 -9 50 -14 52 -12 14 13 -17 48 -61 68 -71 33 -98 38 -127 24z"/>
<path d="M15882 11579 c-46 -22 -62 -36 -62 -51 0 -16 4 -18 18 -12 9 5 58 9
107 9 90 0 90 0 93 26 7 64 -61 76 -156 28z"/>
<path d="M16287 11415 c4 -93 3 -135 -5 -135 -6 0 -24 -12 -41 -26 -24 -20
-31 -34 -31 -63 0 -61 53 -111 101 -96 31 10 21 25 -16 25 -26 0 -39 6 -50 24
-26 39 -16 77 28 105 l37 24 0 101 c0 109 -8 176 -20 176 -5 0 -6 -61 -3 -135z"/>
<path d="M17106 11509 c-14 -11 -26 -27 -26 -35 0 -18 16 -18 27 0 10 16 46
36 68 36 26 0 65 -46 65 -78 0 -16 -9 -41 -20 -55 -24 -30 -25 -37 -6 -37 25
0 46 42 46 91 0 40 -4 51 -31 73 -38 32 -86 34 -123 5z"/>
<path d="M16656 11438 c-20 -29 -20 -90 -1 -128 12 -23 22 -30 46 -30 25 0 32
6 45 37 27 64 -2 143 -52 143 -13 0 -30 -10 -38 -22z"/>
<path d="M15921 11416 c-16 -19 -25 -79 -17 -110 15 -60 75 -76 101 -26 25 48
16 119 -19 142 -18 12 -53 9 -65 -6z"/>
<path d="M17100 11410 c0 -5 11 -10 25 -10 21 0 25 -5 25 -32 0 -19 -9 -41
-22 -55 -29 -31 -15 -43 17 -13 50 47 41 120 -15 120 -17 0 -30 -4 -30 -10z"/>
<path d="M15696 11254 c-11 -29 -6 -62 13 -85 26 -32 36 -19 17 20 -10 18 -14
41 -10 56 7 27 -10 35 -20 9z"/>
<path d="M16799 10443 c0 -4 -2 -16 -4 -26 -2 -9 1 -15 6 -11 5 3 7 9 4 14 -3
4 0 10 7 12 9 3 9 6 0 12 -7 4 -12 4 -13 -1z"/>
<path d="M16771 10414 c0 -11 3 -14 6 -6 3 7 2 16 -1 19 -3 4 -6 -2 -5 -13z"/>
<path d="M16860 10414 c19 -8 48 -13 65 -11 26 3 25 4 -8 5 -21 1 -36 5 -34
10 3 4 -9 8 -26 9 l-32 2 35 -15z"/>
<path d="M16828 10403 c7 -3 16 -2 19 1 4 3 -2 6 -13 5 -11 0 -14 -3 -6 -6z"/>
<path d="M16178 10383 c7 -3 16 -2 19 1 4 3 -2 6 -13 5 -11 0 -14 -3 -6 -6z"/>
<path d="M16992 10364 c-37 -16 -42 -51 -7 -47 62 8 76 10 82 16 3 4 -1 7 -10
7 -9 0 -17 4 -17 10 0 5 8 6 18 3 16 -6 16 -6 0 10 -19 20 -23 20 -66 1z"/>
<path d="M16131 10359 c6 -3 -2 -10 -18 -14 -28 -7 -28 -7 -5 -16 13 -5 40 -7
60 -4 20 2 31 2 25 -1 -21 -9 -15 -33 6 -27 27 7 54 -56 46 -106 l-6 -36 15
39 c22 58 27 86 17 86 -5 0 -12 -10 -14 -22 -4 -21 -4 -21 -6 3 0 14 -6 30
-13 37 -6 6 -8 15 -4 19 4 4 11 1 16 -7 7 -11 10 -11 10 -2 0 20 -50 34 -100
29 l-45 -5 44 14 c33 10 48 11 58 2 7 -6 16 -8 20 -4 13 12 -9 20 -62 21 -30
0 -49 -2 -44 -6z"/>
<path d="M16770 10360 c0 -5 5 -10 11 -10 5 0 7 5 4 10 -3 6 -8 10 -11 10 -2
0 -4 -4 -4 -10z"/>
<path d="M16741 10344 c0 -11 3 -14 6 -6 3 7 2 16 -1 19 -3 4 -6 -2 -5 -13z"/>
<path d="M16790 10331 c0 -5 -8 -12 -17 -14 -14 -4 -12 -5 5 -6 13 -1 22 5 22
14 0 8 -2 15 -5 15 -3 0 -5 -4 -5 -9z"/>
<path d="M16056 10311 c-8 -13 21 -34 63 -46 l36 -11 1 -62 c1 -39 -2 -62 -9
-62 -7 0 -7 -4 1 -12 7 -7 12 -18 12 -26 0 -11 -2 -11 -15 0 -31 28 -44 38
-52 38 -4 0 -17 8 -28 16 -20 16 -19 16 4 9 16 -5 21 -4 17 4 -4 6 -14 11 -21
11 -8 0 -30 8 -49 17 -29 14 -35 20 -30 40 5 17 2 23 -10 23 -10 0 -13 -6 -9
-17 5 -14 3 -16 -7 -6 -10 9 -21 7 -49 -11 -20 -13 -94 -55 -165 -95 -240
-135 -278 -177 -366 -418 l-34 -93 -613 0 c-577 0 -613 -1 -613 -17 0 -10 28
-167 62 -348 l62 -331 74 -44 c74 -45 107 -85 96 -114 -3 -9 -12 -16 -20 -16
-20 0 -17 -13 6 -28 28 -17 27 -68 -1 -77 -20 -7 -19 -7 5 -30 29 -27 34 -70
9 -79 -14 -6 -15 -8 -1 -19 45 -35 23 -87 -38 -87 -19 0 -34 -3 -34 -8 0 -4
18 -104 41 -222 22 -118 47 -252 56 -297 l15 -83 198 0 198 0 89 -66 c122 -92
160 -108 258 -109 68 0 89 4 138 28 60 30 101 73 112 120 6 24 12 27 47 27
l41 0 -6 -57 c-4 -32 -9 -113 -13 -180 -4 -67 -10 -126 -13 -131 -4 -6 -141
-15 -341 -21 -675 -23 -1051 -58 -1198 -113 l-54 -20 -292 -442 c-282 -426
-482 -732 -671 -1025 -49 -77 -274 -425 -500 -773 -642 -992 -638 -987 -719
-1113 l-44 -69 59 -39 59 -39 -167 -105 c-93 -58 -197 -120 -233 -137 -59 -28
-73 -30 -155 -28 -50 1 -142 9 -205 18 -222 30 -227 30 -253 2 -29 -31 -67
-95 -67 -113 0 -7 8 -16 18 -20 297 -116 741 -276 756 -272 12 2 95 21 186 42
121 27 191 37 260 39 l95 1 0 -75 c0 -41 -4 -107 -9 -146 l-8 -71 77 -28 c57
-20 82 -25 94 -18 23 15 91 145 167 323 37 85 68 157 69 158 2 2 37 -19 79
-47 41 -28 79 -51 83 -51 5 0 25 19 44 43 20 23 144 170 275 327 131 157 334
398 449 535 116 137 221 263 235 281 14 17 106 127 204 244 l179 213 44 -129
c176 -516 639 -1759 662 -1773 9 -6 -83 -225 -138 -329 -54 -100 -92 -127
-391 -279 l-115 -59 -3 -74 c-1 -41 2 -82 8 -90 8 -13 65 -1 402 83 l393 99
85 95 c108 121 252 258 291 279 28 14 32 14 50 -2 10 -9 41 -60 68 -114 28
-53 56 -102 64 -108 16 -14 155 19 169 40 14 21 -20 251 -71 485 l-18 83 49 6
c38 5 48 10 44 23 -4 13 -354 1574 -543 2419 -20 89 -34 164 -32 166 2 2 234
13 514 25 1003 43 1391 61 1440 67 59 8 146 38 195 69 114 72 210 246 254 457
55 265 62 772 16 1073 -9 57 4 185 19 185 3 0 105 -20 225 -45 121 -25 239
-45 263 -45 63 0 159 36 223 82 96 71 160 171 195 303 19 75 20 237 1 296 -8
24 -53 168 -100 319 -401 1295 -421 1350 -503 1441 -74 82 -131 113 -588 324
-99 45 -97 45 -134 17 -27 -20 -35 -22 -43 -11 -8 11 -9 10 -4 -3 3 -12 -5
-24 -26 -39 -25 -18 -34 -20 -49 -11 -27 17 -33 15 -13 -5 16 -16 16 -18 -1
-28 -9 -5 -36 -25 -59 -42 -22 -18 -47 -33 -53 -33 -21 0 -15 20 10 30 18 8
15 9 -13 4 -39 -7 -51 -15 -33 -21 7 -2 10 -10 7 -17 -4 -10 20 -12 113 -8 65
2 115 1 112 -2 -4 -4 -40 -7 -81 -7 -58 0 -75 -3 -75 -15 0 -16 13 -19 22 -4
3 6 15 10 26 10 10 0 19 -4 19 -10 0 -5 5 -10 11 -10 5 0 7 5 4 10 -4 6 6 10
22 10 l28 0 -25 -20 c-17 -14 -35 -18 -55 -15 -20 3 -24 2 -12 -3 23 -10 15
-17 -58 -57 -27 -16 -73 -43 -101 -61 -28 -19 -56 -34 -63 -34 -6 0 -11 -4
-11 -10 0 -5 -4 -10 -10 -10 -5 0 -35 -16 -66 -36 -32 -21 -55 -30 -51 -22 3
8 2 21 -3 27 -5 9 -7 4 -7 -12 0 -26 -53 -83 -63 -68 -3 4 -21 18 -40 32 -30
21 -35 30 -38 69 -2 33 1 41 8 30 7 -11 10 -3 10 32 0 26 -5 50 -12 54 -8 5
-9 -4 -5 -32 6 -38 6 -38 -9 -14 -14 24 -14 23 -10 -22 3 -27 2 -48 0 -48 -3
0 -17 9 -33 21 -15 11 -48 23 -71 25 -24 2 -46 7 -49 12 -8 10 -82 57 -103 65
-10 3 -18 11 -18 17 0 5 -9 10 -20 10 -11 0 -20 5 -20 11 0 8 11 9 31 5 17 -3
51 -6 76 -6 24 0 42 -4 39 -9 -3 -5 1 -12 10 -15 22 -9 31 -7 16 3 -10 6 -5
10 17 14 35 7 41 23 12 32 -26 8 -29 20 -21 95 9 76 -6 140 -32 140 -9 0 -23
7 -32 15 -16 16 -52 20 -60 6z m201 -421 c20 -10 40 -25 45 -32 6 -10 10 -10
18 2 8 13 10 13 10 -2 0 -9 -3 -19 -8 -22 -6 -4 -102 51 -120 68 -13 13 21 5
55 -14z m-215 -1447 c53 -42 68 -60 72 -86 3 -17 8 -125 11 -239 l6 -206 -33
-8 c-114 -25 -423 21 -653 98 -70 23 -95 42 -95 73 0 34 25 37 107 14 123 -34
93 -14 -45 30 -139 45 -187 76 -162 106 18 21 38 19 199 -20 79 -20 146 -33
148 -31 3 3 -35 17 -83 31 -186 55 -249 79 -272 102 -20 20 -22 26 -11 40 18
20 97 13 232 -22 130 -33 138 -31 37 10 -111 46 -165 83 -165 115 0 23 4 25
41 23 23 -1 115 -19 205 -41 229 -56 278 -66 285 -60 3 3 -2 43 -10 88 -9 45
-16 88 -16 96 0 20 120 -47 202 -113z"/>
<path d="M15980 10295 c10 -12 10 -15 -4 -15 -9 0 -16 5 -16 10 0 7 -8 6 -22
-2 -13 -7 -26 -11 -30 -10 -5 1 -8 -2 -8 -7 0 -16 30 -21 55 -9 22 10 28 8 45
-10 11 -12 20 -28 20 -37 0 -8 3 -15 8 -15 4 0 17 -3 30 -6 13 -4 22 -2 22 5
0 6 -9 11 -19 11 -23 0 -40 22 -23 28 22 7 13 21 -15 24 -19 2 -27 8 -25 19 1
9 -5 20 -14 23 -14 5 -15 4 -4 -9z m-30 -25 c-20 -13 -33 -13 -25 0 3 6 14 10
23 10 15 0 15 -2 2 -10z"/>
<path d="M16680 10260 c-13 -27 -20 -53 -17 -56 4 -4 9 2 12 12 4 10 13 34 21
53 24 54 10 46 -16 -9z"/>
<path d="M16710 10264 c-13 -32 -13 -43 0 -24 6 10 10 11 10 3 0 -27 15 -11
16 17 1 37 -13 39 -26 4z"/>
<path d="M16696 10211 c-5 -7 -3 -18 3 -24 14 -14 20 -6 11 17 -5 15 -9 16
-14 7z"/>
<path d="M16272 10198 c-14 -14 -16 -38 -3 -38 5 0 11 11 13 25 6 29 6 29 -10
13z"/>
<path d="M16800 10200 c0 -5 7 -7 15 -4 8 4 15 8 15 10 0 2 -7 4 -15 4 -8 0
-15 -4 -15 -10z"/>
<path d="M16289 10170 c-3 -8 -2 -26 3 -39 6 -18 4 -27 -9 -37 -16 -12 -16
-13 -2 -14 22 0 47 29 32 38 -6 4 -13 21 -15 37 -2 19 -5 24 -9 15z"/>
<path d="M16626 10161 c-4 -5 -1 -20 4 -33 10 -22 10 -22 5 4 -4 23 -1 27 22
31 l28 4 -27 2 c-15 0 -29 -3 -32 -8z"/>
<path d="M16250 10131 c0 -10 -3 -28 -7 -38 -6 -17 -6 -17 10 -1 19 19 22 44
7 53 -5 3 -10 -3 -10 -14z"/>
<path d="M16606 10122 c-4 -7 0 -19 8 -28 17 -17 19 -11 7 20 -5 14 -10 16
-15 8z"/>
<path d="M16584 10074 c-4 -10 -9 -22 -11 -26 -2 -5 0 -8 6 -8 11 0 26 39 17
47 -3 3 -9 -3 -12 -13z"/>
<path d="M16758 10083 c7 -3 16 -2 19 1 4 3 -2 6 -13 5 -11 0 -14 -3 -6 -6z"/>
<path d="M16216 10066 c10 -8 21 -12 24 -10 5 6 -21 24 -34 24 -6 0 -1 -6 10
-14z"/>
<path d="M16607 10042 c-22 -24 -21 -37 6 -76 18 -28 24 -31 35 -20 7 8 8 14
2 14 -21 0 -9 30 13 31 20 1 20 2 2 6 -25 7 -36 23 -29 46 7 22 -8 22 -29 -1z
m23 -32 c0 -5 -5 -10 -11 -10 -5 0 -7 5 -4 10 3 6 8 10 11 10 2 0 4 -4 4 -10z"/>
<path d="M16322 10020 c0 -14 2 -19 5 -12 2 6 2 18 0 25 -3 6 -5 1 -5 -13z"/>
<path d="M16065 10010 c3 -5 8 -10 11 -10 2 0 4 5 4 10 0 6 -5 10 -11 10 -5 0
-7 -4 -4 -10z"/>
<path d="M16093 10005 c0 -8 4 -15 7 -15 4 0 13 7 20 15 10 12 9 15 -7 15 -11
0 -20 -7 -20 -15z"/>
<path d="M16198 10003 c7 -3 16 -2 19 1 4 3 -2 6 -13 5 -11 0 -14 -3 -6 -6z"/>
<path d="M16720 9990 c0 -5 -9 -10 -19 -10 -11 0 -23 -4 -26 -10 -9 -15 12
-12 45 5 33 17 38 25 15 25 -8 0 -15 -4 -15 -10z"/>
<path d="M16120 9981 c0 -5 7 -12 16 -15 24 -9 28 -7 14 9 -14 17 -30 20 -30
6z"/>
<path d="M16533 9968 c-12 -16 -24 -48 -18 -48 2 0 11 14 20 30 16 31 15 40
-2 18z"/>
<path d="M16542 9930 c-10 -17 -10 -20 2 -20 19 0 31 19 19 31 -5 5 -14 0 -21
-11z"/>
<path d="M16356 9884 c-8 -31 1 -64 17 -64 8 0 8 3 0 11 -6 6 -9 26 -6 45 7
40 -2 46 -11 8z"/>
<path d="M16496 9901 c-4 -7 -5 -15 -2 -18 9 -9 19 4 14 18 -4 11 -6 11 -12 0z"/>
<path d="M16535 9880 c-3 -5 -1 -10 4 -10 6 0 11 5 11 10 0 6 -2 10 -4 10 -3
0 -8 -4 -11 -10z"/>
</g>
</svg>
