<svg version="1.1" id="Layer_1" xmlns="http://www.w3.org/2000/svg" xmlns:xlink="http://www.w3.org/1999/xlink" x="0px" y="0px"
	 width="100%" viewBox="0 0 2669 1249" enable-background="new 0 0 2669 1249" xml:space="preserve">
<path fill="#000000" opacity="1.000000" stroke="none" 
	d="
M2340.000000,1250.000000 
	C1681.302368,1250.000000 1022.604858,1250.000000 363.394592,1249.575684 
	C363.726562,1248.774170 364.544250,1248.154541 365.419983,1248.057129 
	C374.915710,1247.000977 384.428619,1246.097534 393.921295,1245.015991 
	C415.711578,1242.533203 436.922760,1237.313354 457.831085,1230.897217 
	C485.025604,1222.552002 510.996948,1211.203491 534.901306,1195.807251 
	C547.725403,1187.547607 559.951233,1178.077759 571.289612,1167.868652 
	C583.684937,1156.707764 595.597900,1144.761841 606.148193,1131.870850 
	C616.937439,1118.687744 626.640259,1104.429321 635.322937,1089.756592 
	C645.566895,1072.445557 653.412964,1053.808105 656.927002,1033.820435 
	C660.397888,1014.078674 663.408264,994.239502 665.963684,974.358582 
	C667.854614,959.647278 669.803223,944.802551 669.828491,930.013977 
	C670.101929,769.868958 670.000366,609.723206 669.988831,449.577698 
	C669.988708,447.820312 669.824463,446.062897 669.740112,444.370422 
	C609.250732,444.370422 549.348694,444.370422 489.001007,444.370422 
	C489.001007,446.539459 489.013092,448.341461 488.999268,450.143250 
	C487.735565,614.847046 491.644745,779.573547 486.848572,944.257446 
	C486.510254,955.873840 485.034546,967.675903 482.308289,978.961792 
	C475.011627,1009.167908 459.316681,1034.369995 435.232635,1054.383179 
	C410.951935,1074.559814 382.758026,1084.367920 351.741028,1085.757446 
	C335.914032,1086.466431 319.822418,1085.783203 304.135010,1083.643188 
	C291.931732,1081.978394 279.723053,1078.152588 268.311707,1073.384766 
	C249.876389,1065.682251 233.912277,1054.069214 220.920013,1038.530029 
	C209.929703,1025.385254 200.991928,1011.132935 194.928833,995.091370 
	C190.236374,982.676147 187.729752,969.846985 186.898026,956.600403 
	C185.780518,938.802246 183.210297,921.028076 183.174362,903.239746 
	C182.870010,752.593567 183.000656,601.946533 183.000748,451.299744 
	C183.000748,449.028687 183.000748,446.757629 183.000748,444.000000 
	C121.875793,444.000000 61.437897,444.000000 1.000000,444.000000 
	C1.000000,337.302429 1.000000,230.604843 1.403957,123.371002 
	C2.193938,123.504875 2.856494,124.147926 2.925174,124.849136 
	C4.314998,139.038971 11.912921,148.715485 24.363483,155.147293 
	C34.600952,160.435852 45.384018,161.674713 56.730003,161.118912 
	C65.677696,160.680603 74.083336,158.723526 81.502449,153.881241 
	C96.072952,144.371368 101.716637,129.950485 101.924126,113.251869 
	C102.217903,89.609428 102.004066,65.960617 101.986572,42.314545 
	C101.985382,40.703876 101.811951,39.093334 101.717674,37.466362 
	C95.624496,37.466362 89.937180,37.466362 84.000862,37.466362 
	C84.000862,39.922901 84.000893,41.914001 84.000854,43.905098 
	C84.000397,68.716835 84.194099,93.530891 83.897934,118.339096 
	C83.789001,127.463821 80.333725,135.452148 72.084373,140.463806 
	C64.370567,145.150131 56.014175,146.278183 47.082100,145.087509 
	C29.135492,142.695160 20.001596,132.642838 20.000126,114.744514 
	C19.998167,90.931908 19.999535,67.119301 19.999474,43.306690 
	C19.999468,41.369854 19.999472,39.433022 19.999472,37.000000 
	C13.215896,37.000000 7.107948,37.000000 1.000000,37.000000 
	C1.000000,25.002676 1.000000,13.005351 1.000000,1.004014 
	C597.697571,1.000000 1194.395142,1.000000 1791.321289,1.305153 
	C1789.840210,2.070870 1788.140869,2.888624 1786.419312,2.938764 
	C1757.810669,3.772001 1731.349487,11.821059 1706.826172,26.441046 
	C1688.039673,37.640835 1671.457764,51.600342 1658.145020,68.859169 
	C1649.347656,80.264145 1641.062134,92.421440 1634.766846,105.324715 
	C1621.612915,132.286224 1616.980347,161.138947 1618.820190,191.210312 
	C1619.993652,210.387756 1623.695068,228.823029 1630.852417,246.573868 
	C1640.676147,270.937469 1656.022217,291.430817 1674.931763,309.504211 
	C1696.451660,330.072266 1721.320190,344.643372 1750.122803,352.217560 
	C1771.248413,357.772888 1792.718506,359.176697 1814.503784,357.067383 
	C1836.347900,354.952362 1857.015991,349.015259 1876.450317,338.965179 
	C1895.557861,329.084076 1911.939331,315.669250 1926.662476,299.981476 
	C1941.328979,284.353882 1952.960327,266.835876 1961.061646,247.097992 
	C1971.870117,220.764267 1975.573608,193.335205 1973.187134,164.904388 
	C1971.380005,143.373459 1966.231201,122.888344 1956.735840,103.527008 
	C1945.348999,80.308777 1929.261841,60.803375 1909.634033,44.040985 
	C1879.689331,18.467926 1845.289062,4.397856 1805.823120,2.918545 
	C1803.860962,2.845000 1801.940063,1.664878 1800.000000,1.000004 
	C2089.933594,1.000000 2379.867188,1.000000 2670.000000,1.000000 
	C2670.000000,304.030884 2670.000000,607.061829 2669.588379,910.692627 
	C2668.788574,910.449829 2668.166260,909.638611 2668.048096,908.759644 
	C2666.629883,898.203186 2665.769531,887.547241 2663.834229,877.089294 
	C2657.739990,844.160339 2645.592285,813.504089 2627.846680,784.604126 
	C2627.093750,784.177063 2626.602295,784.032410 2626.110840,784.032227 
	C2572.489502,784.014954 2518.868408,783.989868 2465.247070,784.073547 
	C2463.231445,784.076721 2461.217285,785.141663 2459.202393,785.711853 
	C2459.225098,786.169250 2459.248047,786.626709 2459.270996,787.084106 
	C2460.500000,787.760803 2461.729004,788.437500 2463.102539,789.419312 
	C2463.971924,790.404663 2464.620361,791.196838 2465.432373,791.748779 
	C2483.250244,803.863403 2499.216309,817.927795 2512.574219,834.970276 
	C2525.017822,850.845825 2534.758301,868.290039 2541.753906,887.016968 
	C2551.143799,912.152283 2553.671387,938.325989 2551.179199,965.149231 
	C2549.803955,979.950378 2547.097656,994.302246 2541.877197,1008.146240 
	C2534.627197,1027.373291 2523.978760,1044.612427 2509.868652,1059.541992 
	C2493.015869,1077.373779 2472.676514,1090.164917 2450.067383,1099.448486 
	C2429.605713,1107.850342 2408.275146,1112.901245 2386.229492,1113.839600 
	C2368.742188,1114.583984 2351.250000,1114.193848 2333.806885,1111.170898 
	C2312.201172,1107.426636 2292.214111,1099.780884 2273.413574,1088.842651 
	C2257.686279,1079.692139 2243.067627,1068.954102 2231.981445,1054.317017 
	C2224.393799,1044.299438 2216.611816,1034.160034 2210.893555,1023.057129 
	C2201.655762,1005.120361 2195.935059,985.837219 2193.906006,965.553040 
	C2192.019531,946.692017 2192.703613,928.051208 2196.746338,909.507568 
	C2202.730713,882.057007 2214.065918,856.961609 2231.250732,834.865784 
	C2239.507812,824.248901 2249.405273,814.816467 2259.191162,805.511475 
	C2265.912354,799.120789 2273.720215,793.872803 2281.371582,788.056824 
	C2282.148193,787.370972 2282.595459,786.742310 2283.269531,786.017395 
	C2283.331299,785.669922 2283.166016,785.418640 2282.677246,785.098511 
	C2281.915527,784.980713 2281.477539,784.931641 2280.899902,784.611694 
	C2280.173340,784.282776 2279.586426,784.224792 2278.535156,784.100342 
	C2244.991699,784.022644 2211.912354,783.989563 2178.833008,784.008301 
	C2158.888916,784.019531 2138.944580,784.111267 2118.618408,784.100891 
	C2117.118408,784.676697 2116.000488,785.318542 2114.613525,786.096130 
	C2114.191406,786.807373 2114.038330,787.382812 2113.573975,788.110474 
	C2103.285156,804.514282 2096.439697,822.158691 2089.885010,839.977173 
	C2079.973877,866.920898 2076.694092,895.060913 2075.226318,923.374084 
	C2074.343262,940.406311 2075.009033,957.597778 2076.179932,974.635132 
	C2077.336670,991.463806 2079.298828,1008.311218 2082.184326,1024.928711 
	C2086.050293,1047.191772 2092.885254,1068.706299 2102.653809,1089.149048 
	C2112.093018,1108.902100 2124.196045,1126.922852 2138.148193,1143.835449 
	C2151.900146,1160.505615 2167.211914,1175.510986 2184.321777,1188.554321 
	C2205.750488,1204.890015 2228.974609,1218.403564 2253.824951,1228.880493 
	C2272.548828,1236.774414 2292.053223,1242.206177 2312.223145,1244.990601 
	C2320.670166,1246.156738 2329.166260,1246.964722 2337.620605,1248.084106 
	C2338.483154,1248.198242 2339.210205,1249.336792 2340.000000,1250.000000 
M589.766113,98.372551 
	C589.882507,96.929016 589.998962,95.485474 590.782471,93.704811 
	C592.760620,93.061150 595.113770,92.899658 596.658264,91.698402 
	C610.376648,81.028503 611.385376,59.057281 599.430115,46.912926 
	C591.919983,39.284054 582.184387,37.428276 572.243591,37.121395 
	C557.264526,36.658974 542.260559,36.992451 527.267212,37.013588 
	C525.660034,37.015854 524.053101,37.190678 522.291748,37.294552 
	C522.291748,77.941795 522.291748,118.170044 522.291748,158.580505 
	C528.279480,158.580505 533.970520,158.580505 540.193054,158.580505 
	C540.193054,140.257980 540.193054,122.349579 540.193054,104.031372 
	C548.190674,104.031372 555.703491,103.520905 563.106140,104.204269 
	C568.361450,104.689407 573.933716,105.917435 578.524414,108.380081 
	C584.395447,111.529579 585.077454,118.211433 586.014526,124.311974 
	C587.609863,134.698593 589.213379,145.086334 591.070679,155.427399 
	C591.308594,156.751907 593.023315,158.741714 594.159241,158.816223 
	C599.598816,159.172913 605.074707,158.976273 609.608459,158.976273 
	C607.339905,144.452148 605.319580,130.186829 602.813354,116.007401 
	C601.462830,108.366440 598.578125,101.399834 589.766113,98.372551 
M852.999329,1049.500000 
	C852.999329,1115.569580 852.999329,1181.639282 852.999329,1247.600342 
	C913.798401,1247.600342 973.705322,1247.600342 1033.999756,1247.600342 
	C1033.999756,1244.893555 1033.999756,1242.583496 1033.999756,1240.273560 
	C1033.999756,1134.609497 1033.844849,1028.944946 1034.069824,923.281311 
	C1034.171753,875.429077 1032.241455,827.516785 1037.020874,779.760071 
	C1038.496338,765.016602 1039.777954,750.225708 1042.045898,735.595642 
	C1046.174072,708.965515 1053.744019,683.354553 1066.763550,659.550171 
	C1079.715576,635.869263 1098.078491,617.573303 1121.941650,605.122986 
	C1140.461792,595.460266 1160.776733,591.396545 1181.359741,590.253662 
	C1201.999634,589.107727 1222.740845,589.369995 1243.182129,593.951721 
	C1264.431030,598.714600 1282.940918,608.234192 1298.839233,623.229370 
	C1318.656494,641.920776 1329.210449,665.457642 1336.051880,691.192505 
	C1341.139160,710.328857 1341.809082,729.955688 1342.924927,749.521423 
	C1343.652344,762.279663 1343.950806,775.078430 1343.956543,787.859253 
	C1344.024048,938.855652 1344.000000,1089.852051 1344.000000,1240.848511 
	C1344.000000,1243.105591 1344.000000,1245.362549 1344.000000,1247.648071 
	C1404.702637,1247.648071 1464.609131,1247.648071 1524.999756,1247.648071 
	C1524.999756,1245.003906 1524.999756,1242.706421 1524.999756,1240.408813 
	C1524.999878,1078.245972 1525.025146,916.083191 1524.956177,753.920410 
	C1524.950073,739.639648 1524.386963,725.357422 1523.962524,711.079468 
	C1523.800537,705.626892 1523.459961,700.168762 1522.925903,694.740234 
	C1521.360474,678.832764 1519.827881,662.918518 1517.945557,647.046875 
	C1516.746460,636.935608 1515.457031,626.786011 1513.317871,616.845154 
	C1508.164551,592.898621 1500.070557,569.911560 1487.278564,548.944519 
	C1480.190186,537.326416 1472.709106,525.658875 1463.628052,515.621399 
	C1453.119507,504.006104 1441.205078,493.470795 1428.924561,483.692871 
	C1407.036987,466.265472 1382.869507,452.506042 1356.439941,443.009644 
	C1323.993774,431.351349 1290.211182,427.340302 1256.023071,426.101807 
	C1246.766479,425.766479 1237.466187,426.906433 1228.184570,426.938843 
	C1209.787109,427.003113 1191.669312,429.342621 1173.690063,433.000336 
	C1153.742432,437.058533 1134.244995,442.851227 1116.726562,453.274994 
	C1088.430298,470.111816 1061.833862,489.358093 1039.113525,513.471985 
	C1037.794067,514.872375 1037.122192,516.882874 1036.149048,518.609558 
	C1035.401489,518.074646 1034.654053,517.539734 1033.906494,517.004883 
	C1033.906494,492.813629 1033.906494,468.622406 1033.906494,444.324341 
	C973.348999,444.324341 913.442444,444.324341 852.999329,444.324341 
	C852.999329,645.932129 852.999329,847.216064 852.999329,1049.500000 
M1886.999512,1227.499756 
	C1886.999512,966.474243 1886.999512,705.448730 1886.999512,444.321289 
	C1826.337524,444.321289 1766.440674,444.321289 1706.382324,444.321289 
	C1706.382324,712.287354 1706.382324,979.932007 1706.382324,1247.678711 
	C1766.661987,1247.678711 1826.558838,1247.678711 1886.999512,1247.678711 
	C1886.999512,1241.080078 1886.999512,1234.789795 1886.999512,1227.499756 
M2242.369141,653.914856 
	C2259.072510,645.883667 2275.791992,637.885742 2292.475342,629.813049 
	C2315.225830,618.804565 2337.945068,607.730652 2360.685303,596.700684 
	C2382.536865,586.101807 2404.407715,575.543579 2426.251953,564.929871 
	C2449.281982,553.740051 2472.276855,542.478516 2495.311523,531.298523 
	C2517.602539,520.479370 2539.939209,509.754181 2562.229004,498.932892 
	C2588.956299,485.957367 2615.663818,472.940765 2642.360107,459.901581 
	C2648.121582,457.087616 2653.828369,454.157898 2659.503174,451.172821 
	C2662.444824,449.625488 2665.261475,447.840637 2668.985596,445.666077 
	C2666.235107,443.996216 2664.650879,442.845459 2662.914795,442.010010 
	C2648.287354,434.971649 2633.606201,428.044678 2618.991699,420.980286 
	C2596.531738,410.123718 2574.120850,399.165161 2551.671875,388.285767 
	C2529.374756,377.479889 2507.041992,366.747223 2484.750488,355.929413 
	C2461.715332,344.750549 2438.725586,333.477875 2415.688965,322.301666 
	C2393.987305,311.773041 2372.237549,301.343323 2350.532715,290.821228 
	C2327.641357,279.723816 2304.787842,268.547821 2281.899170,257.444519 
	C2260.197021,246.916962 2238.458252,236.465683 2216.759033,225.932144 
	C2193.725098,214.750702 2170.704834,203.540222 2147.704590,192.289810 
	C2127.348877,182.332993 2107.048584,172.262527 2086.678711,162.334991 
	C2081.355469,159.740662 2075.864014,157.491806 2070.000000,154.884308 
	C2070.000000,157.623611 2070.000000,159.616989 2070.000000,161.610352 
	C2070.000000,204.275543 2070.298096,246.944397 2069.772949,289.603119 
	C2069.653809,299.269470 2070.671631,306.403320 2081.583984,308.272522 
	C2082.357910,308.405090 2083.041016,309.018341 2083.789307,309.357300 
	C2097.360596,315.505188 2110.916992,321.686249 2124.513428,327.777924 
	C2149.154541,338.818085 2173.832764,349.775482 2198.471191,360.822021 
	C2216.099121,368.725372 2233.671143,376.753998 2251.296875,384.661896 
	C2276.532227,395.983856 2301.782227,407.272797 2327.049072,418.524414 
	C2341.247559,424.847382 2355.512451,431.021637 2369.706299,437.355164 
	C2375.576172,439.974426 2381.338135,442.835449 2388.161865,446.066040 
	C2383.247559,448.274506 2379.537109,449.925995 2375.839844,451.606537 
	C2361.081543,458.314240 2346.358643,465.100830 2331.564697,471.728729 
	C2307.072998,482.701385 2282.527344,493.553894 2258.022217,504.496368 
	C2244.120117,510.704102 2230.266113,517.019409 2216.367188,523.234436 
	C2192.766357,533.788025 2169.130859,544.264404 2145.540283,554.840637 
	C2121.787842,565.489380 2098.111816,576.309448 2074.298096,586.817810 
	C2070.758545,588.379578 2069.924561,590.388916 2069.932617,593.949768 
	C2070.034668,639.947998 2069.997559,685.946411 2070.010254,731.944824 
	C2070.010742,733.529175 2070.163086,735.113525 2070.265381,737.101685 
	C2078.117676,733.446228 2085.556396,730.096191 2092.897461,726.544617 
	C2114.465332,716.110352 2136.000488,705.607300 2157.537842,695.110229 
	C2185.574951,681.445374 2213.602051,667.760315 2242.369141,653.914856 
M207.103302,121.377220 
	C199.878128,109.213524 192.644150,97.055046 185.430054,84.884789 
	C176.788467,70.306351 168.199783,55.696304 159.480606,41.164501 
	C158.528961,39.578430 156.926254,37.318272 155.526215,37.244038 
	C148.130524,36.851936 140.703033,37.060120 133.378448,37.060120 
	C133.378448,78.107941 133.378448,118.342430 133.378448,158.669083 
	C138.667999,158.669083 143.575363,158.669083 149.087189,158.669083 
	C149.087189,125.697334 149.087189,93.050987 149.087189,60.404636 
	C153.840134,66.309471 157.570221,72.463470 161.265152,78.638519 
	C176.640839,104.334709 191.989807,130.046906 207.422089,155.709045 
	C208.198868,157.000732 209.624756,158.755783 210.811844,158.806351 
	C217.729202,159.101044 224.665527,158.950699 231.675873,158.950699 
	C231.675873,118.006760 231.675873,77.773010 231.675873,37.454224 
	C225.984940,37.454224 220.625748,37.454224 214.866013,37.454224 
	C214.866013,69.455391 214.866013,101.005127 214.866013,134.072495 
	C211.888962,129.193054 209.694489,125.596283 207.103302,121.377220 
M762.500000,339.000061 
	C767.498108,339.000061 772.506897,339.206360 777.491455,338.946533 
	C783.387268,338.639252 789.467163,338.712341 795.104248,337.235199 
	C807.714722,333.930817 817.220398,321.813629 817.923584,308.743256 
	C818.855713,291.417145 812.405396,281.710632 796.470398,275.498810 
	C797.440979,274.941010 798.260559,274.397705 799.138550,273.976074 
	C817.804382,265.011902 816.925720,241.086349 808.943604,229.796814 
	C801.958801,219.917953 791.543884,217.328308 780.403381,217.081757 
	C765.583008,216.753754 750.749817,217.000610 735.922180,217.000504 
	C734.347168,217.000504 732.772156,217.000504 731.309814,217.000504 
	C731.309814,258.084839 731.309814,298.333435 731.309814,339.000061 
	C741.575928,339.000061 751.537964,339.000061 762.500000,339.000061 
M1124.892334,66.803413 
	C1120.944702,59.349693 1116.760010,52.183590 1109.824951,46.869038 
	C1100.138306,39.445946 1088.807007,37.610512 1077.281006,37.133617 
	C1063.638794,36.569172 1049.955322,36.991718 1036.289795,37.013550 
	C1034.680298,37.016121 1033.071045,37.189747 1031.299927,37.293552 
	C1031.299927,77.937393 1031.299927,118.175888 1031.299927,158.286423 
	C1031.880127,158.568192 1032.169434,158.833618 1032.454956,158.829529 
	C1051.728394,158.554245 1071.029053,158.774643 1090.263184,157.748108 
	C1100.167603,157.219482 1109.028687,152.375458 1115.560425,144.679611 
	C1124.298950,134.383820 1128.656860,122.303452 1130.230713,108.754494 
	C1131.895630,94.421410 1129.955566,80.892166 1124.892334,66.803413 
M947.999146,267.747559 
	C947.327515,263.385834 947.005249,258.934875 945.918457,254.679184 
	C942.763489,242.324051 937.271118,231.423721 926.454529,223.737122 
	C912.994385,214.171799 898.119446,212.643066 882.335815,214.955063 
	C860.729492,218.119965 847.067383,230.850677 840.674988,251.015854 
	C834.833069,269.444489 835.138184,288.401276 840.585510,306.958710 
	C844.244812,319.424530 851.237000,329.673492 863.358704,335.774506 
	C876.062317,342.168457 889.351501,343.063751 903.168823,341.049683 
	C922.999146,338.159119 936.151428,327.429230 943.185486,308.640015 
	C948.053040,295.637726 948.216187,282.230865 947.999146,267.747559 
M874.484985,147.012177 
	C878.008972,142.272797 882.337341,137.930771 884.910706,132.721786 
	C893.692139,114.946434 894.008789,96.163567 889.543152,77.226646 
	C886.428711,64.019753 879.957825,52.720737 868.408997,44.962978 
	C859.618469,39.058105 849.447693,37.485718 839.246338,37.121281 
	C825.613403,36.634247 811.949890,36.991707 798.299500,37.013515 
	C796.690552,37.016083 795.081787,37.188885 793.422974,37.285686 
	C793.422974,78.013229 793.422974,118.338188 793.422974,158.027298 
	C811.923584,158.027298 829.995361,158.093033 848.066406,158.001328 
	C858.044983,157.950699 866.557312,154.021805 874.484985,147.012177 
M1375.158203,217.019897 
	C1359.566284,217.019897 1343.974487,217.019897 1328.385010,217.019897 
	C1328.385010,258.012299 1328.385010,298.372650 1328.385010,338.015991 
	C1347.183472,338.015991 1365.615356,338.599976 1383.993774,337.857544 
	C1403.767944,337.058746 1415.457275,324.927246 1422.264893,307.346558 
	C1429.128662,289.620300 1429.004272,271.396332 1423.569336,253.617004 
	C1418.335938,236.497208 1407.778198,223.444489 1389.173096,219.148315 
	C1384.883545,218.157791 1380.456177,217.763443 1375.158203,217.019897 
M1216.000000,255.500000 
	C1216.000000,283.245270 1216.000000,310.990540 1216.000000,338.709839 
	C1222.030273,338.709839 1227.289795,338.709839 1233.000000,338.709839 
	C1233.000000,329.634155 1233.000000,320.842102 1233.000000,312.050049 
	C1233.000000,303.125916 1233.000000,294.201813 1233.000000,285.008972 
	C1243.384521,285.008972 1253.040283,284.741913 1262.673340,285.095551 
	C1270.045288,285.366180 1275.392822,289.362427 1277.618408,296.433411 
	C1278.979614,300.758484 1279.274292,305.424072 1279.993286,309.945435 
	C1281.381470,318.674805 1282.647705,327.425171 1284.201538,336.124481 
	C1284.395264,337.208557 1285.990112,338.805817 1286.998535,338.854126 
	C1292.577881,339.121185 1298.176880,338.981964 1303.990967,338.981964 
	C1303.849854,337.700836 1303.825684,337.052032 1303.702271,336.422638 
	C1301.472046,325.057465 1299.050049,313.726318 1297.042725,302.322113 
	C1295.160522,291.629456 1293.764038,280.827484 1280.113037,277.689392 
	C1281.511597,276.936493 1282.321411,276.395477 1283.205811,276.039856 
	C1301.703613,268.600555 1307.164673,242.164124 1293.423584,227.807632 
	C1285.455688,219.482864 1275.267822,217.525208 1264.715820,217.128174 
	C1250.905396,216.608551 1237.060669,217.000458 1223.230713,217.000275 
	C1220.957642,217.000244 1218.684570,217.000259 1216.000000,217.000259 
	C1216.000000,229.908905 1216.000000,242.204453 1216.000000,255.500000 
M709.636414,151.113205 
	C713.090942,146.403931 717.856995,142.167679 719.757568,136.897964 
	C725.799194,120.146706 721.800842,101.635078 701.883118,95.025017 
	C689.130127,90.792709 675.969910,87.801117 663.056091,84.034355 
	C657.426147,82.392189 652.080200,79.972450 650.077576,73.695480 
	C646.953918,63.904690 653.888794,54.273827 661.906250,52.301983 
	C668.537659,50.671043 675.721741,49.576778 682.417969,50.349686 
	C690.950134,51.334492 698.733337,54.946175 700.158325,65.339478 
	C700.294373,66.331673 702.017029,67.801964 703.064453,67.855690 
	C708.177429,68.117905 713.311218,67.974380 718.338501,67.974380 
	C720.273865,56.768139 713.007507,43.802956 701.823730,39.506332 
	C683.788330,32.577400 665.663574,32.461998 648.191467,41.458275 
	C634.057617,48.735622 629.010925,61.114895 631.129822,76.282608 
	C632.840027,88.524467 641.042236,95.694382 652.455627,99.119415 
	C665.024597,102.891228 677.788757,106.012466 690.359436,109.779060 
	C699.064331,112.387344 704.305847,118.090569 703.876038,124.793343 
	C703.336731,133.202133 699.744873,140.650146 690.311035,144.107330 
	C682.294556,147.045120 674.111206,147.383682 666.065308,145.749863 
	C655.833069,143.672073 649.276855,139.764587 647.851562,126.852661 
	C647.700867,125.487633 645.995972,123.294098 644.878540,123.207397 
	C639.792480,122.812759 634.658569,123.034363 629.641296,123.034363 
	C627.201477,139.602219 636.505432,154.212524 652.765564,158.960510 
	C664.013123,162.244812 675.513123,163.098602 687.033691,160.896591 
	C694.969055,159.379883 702.710205,157.003540 709.636414,151.113205 
M973.453125,127.999031 
	C974.952942,127.999062 976.485474,128.199570 977.946411,127.961365 
	C982.251770,127.259430 984.324097,128.933884 985.780579,133.163651 
	C988.453125,140.924835 991.880981,148.431122 995.146912,155.977432 
	C995.654297,157.149826 996.935425,158.778183 997.921143,158.822937 
	C1003.810120,159.090378 1009.717407,158.955368 1016.076416,158.955368 
	C1014.991699,156.082855 1014.230652,153.937836 1013.378357,151.829697 
	C999.204773,116.768486 984.985474,81.725670 970.859619,46.645264 
	C966.996155,37.050652 967.121216,37.000023 956.448181,37.000820 
	C954.615051,37.000954 952.662109,36.609608 950.982788,37.118809 
	C949.340576,37.616734 947.217041,38.704067 946.609863,40.100246 
	C940.904602,53.219456 935.510803,66.473633 929.965820,79.663116 
	C922.443298,97.556442 914.849243,115.419731 907.321777,133.310989 
	C903.830994,141.607864 900.424805,149.940353 896.672302,159.000458 
	C901.537598,159.000458 905.693481,158.617477 909.745728,159.101532 
	C914.367126,159.653564 916.289185,157.315277 917.756287,153.572418 
	C920.636292,146.224854 923.979187,139.045120 926.543396,131.593872 
	C927.617126,128.473907 929.197205,127.951096 931.968994,127.966469 
	C945.467285,128.041321 958.966309,127.999542 973.453125,127.999031 
M610.525024,302.966644 
	C605.551636,314.751038 600.578247,326.535400 595.320374,338.993835 
	C601.461121,338.993835 606.453369,339.156830 611.421082,338.878815 
	C612.656677,338.809662 614.413391,337.575714 614.908752,336.433838 
	C618.483765,328.193237 621.830811,319.852600 625.170898,311.511963 
	C626.230591,308.865631 627.873352,307.895538 630.834351,307.925079 
	C646.659912,308.082886 662.489014,308.099487 678.313965,307.913483 
	C681.390137,307.877350 682.870300,309.088898 683.896545,311.642639 
	C687.246338,319.978363 690.602844,328.311829 694.059387,336.603424 
	C694.443237,337.524139 695.465332,338.816711 696.226257,338.840973 
	C702.088684,339.027588 707.959717,338.943665 714.654724,338.943665 
	C698.005066,297.726013 681.752319,257.490845 665.460510,217.159027 
	C659.109009,217.159027 652.806641,217.159027 646.573120,217.159027 
	C639.663879,233.575058 632.804810,249.824615 625.985229,266.090698 
	C620.931885,278.144104 615.929932,290.218964 610.525024,302.966644 
M1123.514404,217.000229 
	C1119.428711,217.000229 1115.343018,217.000229 1111.266846,217.000229 
	C1111.266846,258.009766 1111.266846,298.250671 1111.266846,338.665771 
	C1137.565796,338.665771 1163.597900,338.665771 1189.580811,338.665771 
	C1189.580811,333.279053 1189.580811,328.233459 1189.580811,322.792114 
	C1169.245483,322.792114 1149.325562,322.792114 1129.389160,322.792114 
	C1129.389160,309.665344 1129.389160,296.959656 1129.389160,283.845947 
	C1148.030029,283.845947 1166.284668,283.845947 1184.633423,283.845947 
	C1184.633423,278.714996 1184.633423,274.008514 1184.633423,268.891296 
	C1166.016479,268.891296 1147.762207,268.891296 1129.339600,268.891296 
	C1129.339600,256.434723 1129.339600,244.396240 1129.339600,231.770096 
	C1149.049072,231.770096 1168.424805,231.770096 1187.684082,231.770096 
	C1187.684082,226.580429 1187.684082,221.987015 1187.684082,217.000229 
	C1166.417358,217.000229 1145.463989,217.000229 1123.514404,217.000229 
M1171.749756,88.994652 
	C1170.508789,88.123131 1168.207520,87.274719 1168.187988,86.376579 
	C1167.942383,75.109108 1168.026855,63.834457 1168.026855,51.860352 
	C1187.966187,51.860352 1207.325317,51.860352 1226.624268,51.860352 
	C1226.624268,46.569836 1226.624268,41.997440 1226.624268,37.314507 
	C1201.017700,37.314507 1175.788330,37.314507 1150.417236,37.314507 
	C1150.417236,77.970032 1150.417236,118.310234 1150.417236,158.647400 
	C1176.399414,158.647400 1201.962646,158.647400 1227.695068,158.647400 
	C1227.695068,153.386322 1227.695068,148.480591 1227.695068,142.866241 
	C1207.709473,142.866241 1188.015381,142.866241 1168.368652,142.866241 
	C1168.368652,129.581879 1168.368652,117.012878 1168.368652,103.915619 
	C1186.968994,103.915619 1205.208252,103.915619 1223.563843,103.915619 
	C1223.563843,98.683174 1223.563843,93.990990 1223.563843,88.998032 
	C1206.319824,88.998032 1189.510986,88.998032 1171.749756,88.994652 
M435.999634,72.497543 
	C435.999634,65.752396 435.999634,59.007240 435.999634,51.762260 
	C456.125854,51.762260 475.363586,51.762260 494.665100,51.762260 
	C494.665100,46.654022 494.665100,42.081120 494.665100,37.448692 
	C468.980835,37.448692 443.634705,37.448692 418.371796,37.448692 
	C418.371796,78.118729 418.371796,118.339447 418.371796,158.694855 
	C444.305603,158.694855 469.867157,158.694855 495.565918,158.694855 
	C495.565918,153.358459 495.565918,148.333725 495.565918,142.787506 
	C475.567200,142.787506 455.997192,142.787506 436.318176,142.787506 
	C436.318176,129.683594 436.318176,117.115944 436.318176,103.841980 
	C454.985229,103.841980 473.345673,103.841980 491.616455,103.841980 
	C491.616455,98.553596 491.616455,93.980225 491.616455,88.883347 
	C473.001709,88.883347 454.763611,88.883347 435.999634,88.883347 
	C435.999634,83.405754 435.999634,78.450592 435.999634,72.497543 
M1447.000000,294.500000 
	C1447.000000,309.244720 1447.000000,323.989441 1447.000000,338.728271 
	C1473.344116,338.728271 1498.925659,338.728271 1524.645386,338.728271 
	C1524.645386,333.410706 1524.645386,328.369202 1524.645386,322.740631 
	C1504.255981,322.740631 1484.215454,322.740631 1464.325684,322.740631 
	C1464.325684,309.557159 1464.325684,296.968842 1464.325684,283.795898 
	C1483.353882,283.795898 1502.063721,283.795898 1520.694824,283.795898 
	C1520.694824,278.605621 1520.694824,274.013184 1520.694824,268.839233 
	C1501.689819,268.839233 1482.980591,268.839233 1464.277466,268.839233 
	C1464.277466,256.322998 1464.277466,244.401794 1464.277466,231.893814 
	C1483.921753,231.893814 1503.297119,231.893814 1522.746338,231.893814 
	C1522.746338,226.709381 1522.746338,222.117996 1522.746338,217.322845 
	C1497.459229,217.322845 1472.426514,217.322845 1447.000000,217.322845 
	C1447.000000,242.928894 1447.000000,268.214447 1447.000000,294.500000 
M539.859802,325.997314 
	C526.697937,324.070892 518.292053,316.640869 514.037170,304.104065 
	C510.500580,293.683807 510.927612,282.955414 511.002258,272.229980 
	C511.068573,262.705048 513.610229,253.856979 517.880432,245.357361 
	C527.330811,226.546997 554.754883,225.304474 565.059265,238.758133 
	C567.727173,242.241394 569.053040,246.752533 570.952209,250.701767 
	C576.866882,250.701767 582.817139,250.701767 589.067932,250.701767 
	C588.056641,238.537552 583.262878,228.893051 572.989807,222.543289 
	C563.216858,216.502716 552.340088,215.778763 541.099365,215.883545 
	C520.088989,216.079391 503.859009,228.671753 497.009094,247.646179 
	C490.016022,267.017181 489.981934,286.790070 495.370209,306.381775 
	C498.696381,318.475708 505.185364,329.071014 517.017029,334.947662 
	C535.985657,344.369080 554.880554,343.223480 573.024597,332.848755 
	C580.949341,328.317413 585.829895,320.797028 587.877808,311.796753 
	C588.674927,308.293304 587.987488,305.549042 583.155884,305.927246 
	C578.694275,306.276550 574.183716,306.001648 571.359009,306.001648 
	C567.253418,311.715302 564.332153,316.955292 560.293518,321.108704 
	C555.054932,326.496094 547.758728,326.209686 539.859802,325.997314 
M1002.003052,253.549393 
	C1011.105896,279.256989 1020.234863,304.955383 1029.296631,330.677490 
	C1032.218506,338.971558 1032.137695,339.000183 1041.109009,339.000000 
	C1043.608398,338.999939 1046.177734,339.350830 1048.582275,338.873047 
	C1050.153564,338.560852 1052.290039,337.355408 1052.802368,336.023010 
	C1058.603271,320.933411 1064.140625,305.742523 1069.745239,290.577515 
	C1076.368042,272.657288 1083.019287,254.747498 1089.591187,236.808640 
	C1091.922729,230.444626 1094.057007,224.008331 1096.425903,217.188766 
	C1089.956177,217.188766 1084.322998,217.188766 1078.462646,217.188766 
	C1066.719238,250.683975 1054.973389,284.186157 1042.928833,318.540375 
	C1042.342529,317.201385 1042.153076,316.846619 1042.027466,316.470581 
	C1031.357666,284.552551 1020.708557,252.627609 1009.973877,220.731415 
	C1009.514832,219.367264 1008.322632,217.259567 1007.380554,217.209290 
	C1001.354187,216.887680 995.302185,217.045334 988.799011,217.045334 
	C993.365662,229.485443 997.637451,241.122086 1002.003052,253.549393 
M352.996338,128.540298 
	C351.900330,131.689819 350.804321,134.839340 349.438599,138.763855 
	C337.941986,104.310654 326.722046,70.686554 315.605896,37.373608 
	C308.810852,37.373608 302.593140,37.373608 295.848663,37.373608 
	C301.398712,53.031223 306.783295,68.185440 312.142120,83.348778 
	C320.466248,106.902641 328.787079,130.457687 337.071014,154.025711 
	C338.275940,157.453781 339.917938,159.732773 344.185272,159.085617 
	C347.116699,158.641052 350.226746,158.634125 353.155609,159.087021 
	C357.479492,159.755615 359.239594,157.564301 360.527588,153.997910 
	C365.495422,140.242065 370.553040,126.518486 375.615143,112.796883 
	C384.601471,88.437996 393.620880,64.091316 402.590240,39.726189 
	C402.846344,39.030487 402.693237,38.184135 402.750549,37.004799 
	C397.841156,37.004799 393.167267,36.722355 388.561523,37.158901 
	C386.962128,37.310497 384.687469,38.936283 384.152649,40.408691 
	C377.868408,57.709503 371.889221,75.120789 365.761627,92.478951 
	C361.602966,104.259468 357.336853,116.002022 352.996338,128.540298 
M763.999817,86.500000 
	C763.999817,70.110962 763.999817,53.721928 763.999817,37.365559 
	C757.584473,37.365559 752.015808,37.365559 746.420044,37.365559 
	C746.420044,78.040810 746.420044,118.349396 746.420044,158.636810 
	C752.414612,158.636810 757.983582,158.636810 763.999817,158.636810 
	C763.999817,134.683792 763.999817,111.091896 763.999817,86.500000 
M274.354034,37.000736 
	C270.411835,37.000736 266.469604,37.000736 262.379639,37.000736 
	C262.379639,77.951004 262.379639,118.264366 262.379639,158.674515 
	C268.332825,158.674515 273.900330,158.674515 279.731384,158.674515 
	C279.731384,118.153671 279.731384,77.958595 279.731384,37.366261 
	C278.177887,37.238152 276.743713,37.119884 274.354034,37.000736 
z"/>
<path fill="#AC1F2D" opacity="1.000000" stroke="none" 
	d="
M1.000000,444.468658 
	C61.437897,444.000000 121.875793,444.000000 183.000748,444.000000 
	C183.000748,446.757629 183.000748,449.028687 183.000748,451.299744 
	C183.000656,601.946533 182.870010,752.593567 183.174362,903.239746 
	C183.210297,921.028076 185.780518,938.802246 186.898026,956.600403 
	C187.729752,969.846985 190.236374,982.676147 194.928833,995.091370 
	C200.991928,1011.132935 209.929703,1025.385254 220.920013,1038.530029 
	C233.912277,1054.069214 249.876389,1065.682251 268.311707,1073.384766 
	C279.723053,1078.152588 291.931732,1081.978394 304.135010,1083.643188 
	C319.822418,1085.783203 335.914032,1086.466431 351.741028,1085.757446 
	C382.758026,1084.367920 410.951935,1074.559814 435.232635,1054.383179 
	C459.316681,1034.369995 475.011627,1009.167908 482.308289,978.961792 
	C485.034546,967.675903 486.510254,955.873840 486.848572,944.257446 
	C491.644745,779.573547 487.735565,614.847046 488.999268,450.143250 
	C489.013092,448.341461 489.001007,446.539459 489.001007,444.370422 
	C549.348694,444.370422 609.250732,444.370422 669.740112,444.370422 
	C669.824463,446.062897 669.988708,447.820312 669.988831,449.577698 
	C670.000366,609.723206 670.101929,769.868958 669.828491,930.013977 
	C669.803223,944.802551 667.854614,959.647278 665.963684,974.358582 
	C663.408264,994.239502 660.397888,1014.078674 656.927002,1033.820435 
	C653.412964,1053.808105 645.566895,1072.445557 635.322937,1089.756592 
	C626.640259,1104.429321 616.937439,1118.687744 606.148193,1131.870850 
	C595.597900,1144.761841 583.684937,1156.707764 571.289612,1167.868652 
	C559.951233,1178.077759 547.725403,1187.547607 534.901306,1195.807251 
	C510.996948,1211.203491 485.025604,1222.552002 457.831085,1230.897217 
	C436.922760,1237.313354 415.711578,1242.533203 393.921295,1245.015991 
	C384.428619,1246.097534 374.915710,1247.000977 365.419983,1248.057129 
	C364.544250,1248.154541 363.726562,1248.774170 362.940948,1249.575684 
	C344.312439,1250.000000 325.624878,1250.000000 306.529907,1249.577637 
	C305.445404,1248.783447 304.797791,1248.161743 304.086700,1248.077881 
	C295.097046,1247.017212 286.085938,1246.133301 277.104340,1245.011475 
	C255.203690,1242.276489 233.905243,1236.795776 212.852066,1230.374023 
	C193.285416,1224.405518 174.824112,1215.803345 156.686691,1206.384155 
	C134.600357,1194.914429 114.573387,1180.526855 96.387787,1163.715942 
	C74.832024,1143.789673 55.781746,1121.630371 40.794292,1096.232422 
	C32.076004,1081.458252 24.204193,1066.230835 19.846182,1049.534912 
	C16.577297,1037.011597 13.421281,1024.409790 11.221949,1011.669067 
	C8.594674,996.449402 6.652925,981.082520 5.141662,965.707947 
	C3.880760,952.880188 3.711932,939.946655 2.913863,927.068970 
	C2.848271,926.010498 1.664317,925.021362 1.000002,924.000000 
	C1.000000,764.312439 1.000000,604.624878 1.000000,444.468658 
z"/>
<path fill="#818285" opacity="1.000000" stroke="none" 
	d="
M2628.108398,784.953857 
	C2645.592285,813.504089 2657.739990,844.160339 2663.834229,877.089294 
	C2665.769531,887.547241 2666.629883,898.203186 2668.048096,908.759644 
	C2668.166260,909.638611 2668.788574,910.449829 2669.588379,911.146240 
	C2670.000000,932.354248 2670.000000,953.708435 2669.583008,975.392090 
	C2668.778564,976.732727 2668.164795,977.716614 2668.039062,978.759399 
	C2666.622314,990.492126 2665.964355,1002.362854 2663.776611,1013.946106 
	C2659.347412,1037.396362 2653.042480,1060.304688 2643.459717,1082.341553 
	C2630.689209,1111.708496 2613.371582,1138.001221 2591.843262,1161.490723 
	C2575.304199,1179.536621 2556.649170,1195.252808 2535.981201,1208.498779 
	C2514.720947,1222.124268 2491.750488,1231.696777 2467.354980,1238.072021 
	C2448.623535,1242.967041 2429.744629,1246.854858 2410.375732,1248.088135 
	C2409.546631,1248.140869 2408.790283,1249.336670 2408.000000,1250.000000 
	C2385.645752,1250.000000 2363.291748,1250.000000 2340.468750,1250.000000 
	C2339.210205,1249.336792 2338.483154,1248.198242 2337.620605,1248.084106 
	C2329.166260,1246.964722 2320.670166,1246.156738 2312.223145,1244.990601 
	C2292.053223,1242.206177 2272.548828,1236.774414 2253.824951,1228.880493 
	C2228.974609,1218.403564 2205.750488,1204.890015 2184.321777,1188.554321 
	C2167.211914,1175.510986 2151.900146,1160.505615 2138.148193,1143.835449 
	C2124.196045,1126.922852 2112.093018,1108.902100 2102.653809,1089.149048 
	C2092.885254,1068.706299 2086.050293,1047.191772 2082.184326,1024.928711 
	C2079.298828,1008.311218 2077.336670,991.463806 2076.179932,974.635132 
	C2075.009033,957.597778 2074.343262,940.406311 2075.226318,923.374084 
	C2076.694092,895.060913 2079.973877,866.920898 2089.885010,839.977173 
	C2096.439697,822.158691 2103.285156,804.514282 2113.839600,787.980469 
	C2114.944336,787.132202 2115.472168,786.566040 2116.375000,786.000000 
	C2117.500000,786.000000 2118.250000,786.000000 2119.376953,786.166992 
	C2121.727295,786.555542 2123.700439,786.969177 2125.674072,786.970581 
	C2174.499512,787.006531 2223.325195,787.012268 2272.150635,786.956604 
	C2274.434082,786.953979 2276.716797,786.333069 2279.333252,786.000000 
	C2280.111084,786.000000 2280.555420,786.000000 2281.005371,786.352356 
	C2281.020996,787.174500 2281.031494,787.644287 2281.041992,788.114014 
	C2273.720215,793.872803 2265.912354,799.120789 2259.191162,805.511475 
	C2249.405273,814.816467 2239.507812,824.248901 2231.250732,834.865784 
	C2214.065918,856.961609 2202.730713,882.057007 2196.746338,909.507568 
	C2192.703613,928.051208 2192.019531,946.692017 2193.906006,965.553040 
	C2195.935059,985.837219 2201.655762,1005.120361 2210.893555,1023.057129 
	C2216.611816,1034.160034 2224.393799,1044.299438 2231.981445,1054.317017 
	C2243.067627,1068.954102 2257.686279,1079.692139 2273.413574,1088.842651 
	C2292.214111,1099.780884 2312.201172,1107.426636 2333.806885,1111.170898 
	C2351.250000,1114.193848 2368.742188,1114.583984 2386.229492,1113.839600 
	C2408.275146,1112.901245 2429.605713,1107.850342 2450.067383,1099.448486 
	C2472.676514,1090.164917 2493.015869,1077.373779 2509.868652,1059.541992 
	C2523.978760,1044.612427 2534.627197,1027.373291 2541.877197,1008.146240 
	C2547.097656,994.302246 2549.803955,979.950378 2551.179199,965.149231 
	C2553.671387,938.325989 2551.143799,912.152283 2541.753906,887.016968 
	C2534.758301,868.290039 2525.017822,850.845825 2512.574219,834.970276 
	C2499.216309,817.927795 2483.250244,803.863403 2465.432373,791.748779 
	C2464.620361,791.196838 2463.971924,790.404663 2463.338379,789.114929 
	C2465.959473,788.003784 2468.489014,787.068970 2471.019775,787.064453 
	C2519.836426,786.977661 2568.653320,787.042114 2617.469727,786.911194 
	C2621.017578,786.901672 2624.562256,785.635681 2628.108398,784.953857 
z"/>
<path fill="#121212" opacity="1.000000" stroke="none" 
	d="
M1799.555908,1.000004 
	C1801.940063,1.664878 1803.860962,2.845000 1805.823120,2.918545 
	C1845.289062,4.397856 1879.689331,18.467926 1909.634033,44.040985 
	C1929.261841,60.803375 1945.348999,80.308777 1956.735840,103.527008 
	C1966.231201,122.888344 1971.380005,143.373459 1973.187134,164.904388 
	C1975.573608,193.335205 1971.870117,220.764267 1961.061646,247.097992 
	C1952.960327,266.835876 1941.328979,284.353882 1926.662476,299.981476 
	C1911.939331,315.669250 1895.557861,329.084076 1876.450317,338.965179 
	C1857.015991,349.015259 1836.347900,354.952362 1814.503784,357.067383 
	C1792.718506,359.176697 1771.248413,357.772888 1750.122803,352.217560 
	C1721.320190,344.643372 1696.451660,330.072266 1674.931763,309.504211 
	C1656.022217,291.430817 1640.676147,270.937469 1630.852417,246.573868 
	C1623.695068,228.823029 1619.993652,210.387756 1618.820190,191.210312 
	C1616.980347,161.138947 1621.612915,132.286224 1634.766846,105.324715 
	C1641.062134,92.421440 1649.347656,80.264145 1658.145020,68.859169 
	C1671.457764,51.600342 1688.039673,37.640835 1706.826172,26.441046 
	C1731.349487,11.821059 1757.810669,3.772001 1786.419312,2.938764 
	C1788.140869,2.888624 1789.840210,2.070870 1791.774902,1.305153 
	C1794.370605,1.000000 1796.741089,1.000000 1799.555908,1.000004 
z"/>
<path fill="#000000" opacity="1.000000" stroke="none" 
	d="
M1.000002,924.468628 
	C1.664317,925.021362 2.848271,926.010498 2.913863,927.068970 
	C3.711932,939.946655 3.880760,952.880188 5.141662,965.707947 
	C6.652925,981.082520 8.594674,996.449402 11.221949,1011.669067 
	C13.421281,1024.409790 16.577297,1037.011597 19.846182,1049.534912 
	C24.204193,1066.230835 32.076004,1081.458252 40.794292,1096.232422 
	C55.781746,1121.630371 74.832024,1143.789673 96.387787,1163.715942 
	C114.573387,1180.526855 134.600357,1194.914429 156.686691,1206.384155 
	C174.824112,1215.803345 193.285416,1224.405518 212.852066,1230.374023 
	C233.905243,1236.795776 255.203690,1242.276489 277.104340,1245.011475 
	C286.085938,1246.133301 295.097046,1247.017212 304.086700,1248.077881 
	C304.797791,1248.161743 305.445404,1248.783447 306.061249,1249.577637 
	C204.403839,1250.000000 102.807678,1250.000000 1.000000,1250.000000 
	C1.000000,1141.645874 1.000000,1033.291626 1.000002,924.468628 
z"/>
<path fill="#000000" opacity="1.000000" stroke="none" 
	d="
M2408.468750,1250.000000 
	C2408.790283,1249.336670 2409.546631,1248.140869 2410.375732,1248.088135 
	C2429.744629,1246.854858 2448.623535,1242.967041 2467.354980,1238.072021 
	C2491.750488,1231.696777 2514.720947,1222.124268 2535.981201,1208.498779 
	C2556.649170,1195.252808 2575.304199,1179.536621 2591.843262,1161.490723 
	C2613.371582,1138.001221 2630.689209,1111.708496 2643.459717,1082.341553 
	C2653.042480,1060.304688 2659.347412,1037.396362 2663.776611,1013.946106 
	C2665.964355,1002.362854 2666.622314,990.492126 2668.039062,978.759399 
	C2668.164795,977.716614 2668.778564,976.732727 2669.583008,975.860718 
	C2670.000000,1067.258667 2670.000000,1158.517456 2670.000000,1250.000000 
	C2582.979248,1250.000000 2495.958496,1250.000000 2408.468750,1250.000000 
z"/>
<path fill="#AC1F2D" opacity="1.000000" stroke="none" 
	d="
M1.000000,37.468658 
	C7.107948,37.000000 13.215896,37.000000 19.999472,37.000000 
	C19.999472,39.433022 19.999468,41.369854 19.999474,43.306690 
	C19.999535,67.119301 19.998167,90.931908 20.000126,114.744514 
	C20.001596,132.642838 29.135492,142.695160 47.082100,145.087509 
	C56.014175,146.278183 64.370567,145.150131 72.084373,140.463806 
	C80.333725,135.452148 83.789001,127.463821 83.897934,118.339096 
	C84.194099,93.530891 84.000397,68.716835 84.000854,43.905098 
	C84.000893,41.914001 84.000862,39.922901 84.000862,37.466362 
	C89.937180,37.466362 95.624496,37.466362 101.717674,37.466362 
	C101.811951,39.093334 101.985382,40.703876 101.986572,42.314545 
	C102.004066,65.960617 102.217903,89.609428 101.924126,113.251869 
	C101.716637,129.950485 96.072952,144.371368 81.502449,153.881241 
	C74.083336,158.723526 65.677696,160.680603 56.730003,161.118912 
	C45.384018,161.674713 34.600952,160.435852 24.363483,155.147293 
	C11.912921,148.715485 4.314998,139.038971 2.925174,124.849136 
	C2.856494,124.147926 2.193938,123.504875 1.403957,122.917374 
	C1.000000,94.645775 1.000000,66.291542 1.000000,37.468658 
z"/>
<path fill="#AC1F2D" opacity="1.000000" stroke="none" 
	d="
M852.999329,1049.000000 
	C852.999329,847.216064 852.999329,645.932129 852.999329,444.324341 
	C913.442444,444.324341 973.348999,444.324341 1033.906494,444.324341 
	C1033.906494,468.622406 1033.906494,492.813629 1033.906494,517.004883 
	C1034.654053,517.539734 1035.401489,518.074646 1036.149048,518.609558 
	C1037.122192,516.882874 1037.794067,514.872375 1039.113525,513.471985 
	C1061.833862,489.358093 1088.430298,470.111816 1116.726562,453.274994 
	C1134.244995,442.851227 1153.742432,437.058533 1173.690063,433.000336 
	C1191.669312,429.342621 1209.787109,427.003113 1228.184570,426.938843 
	C1237.466187,426.906433 1246.766479,425.766479 1256.023071,426.101807 
	C1290.211182,427.340302 1323.993774,431.351349 1356.439941,443.009644 
	C1382.869507,452.506042 1407.036987,466.265472 1428.924561,483.692871 
	C1441.205078,493.470795 1453.119507,504.006104 1463.628052,515.621399 
	C1472.709106,525.658875 1480.190186,537.326416 1487.278564,548.944519 
	C1500.070557,569.911560 1508.164551,592.898621 1513.317871,616.845154 
	C1515.457031,626.786011 1516.746460,636.935608 1517.945557,647.046875 
	C1519.827881,662.918518 1521.360474,678.832764 1522.925903,694.740234 
	C1523.459961,700.168762 1523.800537,705.626892 1523.962524,711.079468 
	C1524.386963,725.357422 1524.950073,739.639648 1524.956177,753.920410 
	C1525.025146,916.083191 1524.999878,1078.245972 1524.999756,1240.408813 
	C1524.999756,1242.706421 1524.999756,1245.003906 1524.999756,1247.648071 
	C1464.609131,1247.648071 1404.702637,1247.648071 1344.000000,1247.648071 
	C1344.000000,1245.362549 1344.000000,1243.105591 1344.000000,1240.848511 
	C1344.000000,1089.852051 1344.024048,938.855652 1343.956543,787.859253 
	C1343.950806,775.078430 1343.652344,762.279663 1342.924927,749.521423 
	C1341.809082,729.955688 1341.139160,710.328857 1336.051880,691.192505 
	C1329.210449,665.457642 1318.656494,641.920776 1298.839233,623.229370 
	C1282.940918,608.234192 1264.431030,598.714600 1243.182129,593.951721 
	C1222.740845,589.369995 1201.999634,589.107727 1181.359741,590.253662 
	C1160.776733,591.396545 1140.461792,595.460266 1121.941650,605.122986 
	C1098.078491,617.573303 1079.715576,635.869263 1066.763550,659.550171 
	C1053.744019,683.354553 1046.174072,708.965515 1042.045898,735.595642 
	C1039.777954,750.225708 1038.496338,765.016602 1037.020874,779.760071 
	C1032.241455,827.516785 1034.171753,875.429077 1034.069824,923.281311 
	C1033.844849,1028.944946 1033.999756,1134.609497 1033.999756,1240.273560 
	C1033.999756,1242.583496 1033.999756,1244.893555 1033.999756,1247.600342 
	C973.705322,1247.600342 913.798401,1247.600342 852.999329,1247.600342 
	C852.999329,1181.639282 852.999329,1115.569580 852.999329,1049.000000 
z"/>
<path fill="#AC1F2D" opacity="1.000000" stroke="none" 
	d="
M1886.999512,1227.999634 
	C1886.999512,1234.789795 1886.999512,1241.080078 1886.999512,1247.678711 
	C1826.558838,1247.678711 1766.661987,1247.678711 1706.382324,1247.678711 
	C1706.382324,979.932007 1706.382324,712.287354 1706.382324,444.321289 
	C1766.440674,444.321289 1826.337524,444.321289 1886.999512,444.321289 
	C1886.999512,705.448730 1886.999512,966.474243 1886.999512,1227.999634 
z"/>
<path fill="#818285" opacity="1.000000" stroke="none" 
	d="
M2242.001465,653.999390 
	C2213.602051,667.760315 2185.574951,681.445374 2157.537842,695.110229 
	C2136.000488,705.607300 2114.465332,716.110352 2092.897461,726.544617 
	C2085.556396,730.096191 2078.117676,733.446228 2070.265381,737.101685 
	C2070.163086,735.113525 2070.010742,733.529175 2070.010254,731.944824 
	C2069.997559,685.946411 2070.034668,639.947998 2069.932617,593.949768 
	C2069.924561,590.388916 2070.758545,588.379578 2074.298096,586.817810 
	C2098.111816,576.309448 2121.787842,565.489380 2145.540283,554.840637 
	C2169.130859,544.264404 2192.766357,533.788025 2216.367188,523.234436 
	C2230.266113,517.019409 2244.120117,510.704102 2258.022217,504.496368 
	C2282.527344,493.553894 2307.072998,482.701385 2331.564697,471.728729 
	C2346.358643,465.100830 2361.081543,458.314240 2375.839844,451.606537 
	C2379.537109,449.925995 2383.247559,448.274506 2388.161865,446.066040 
	C2381.338135,442.835449 2375.576172,439.974426 2369.706299,437.355164 
	C2355.512451,431.021637 2341.247559,424.847382 2327.049072,418.524414 
	C2301.782227,407.272797 2276.532227,395.983856 2251.296875,384.661896 
	C2233.671143,376.753998 2216.099121,368.725372 2198.471191,360.822021 
	C2173.832764,349.775482 2149.154541,338.818085 2124.513428,327.777924 
	C2110.916992,321.686249 2097.360596,315.505188 2083.789307,309.357300 
	C2083.041016,309.018341 2082.357910,308.405090 2081.583984,308.272522 
	C2070.671631,306.403320 2069.653809,299.269470 2069.772949,289.603119 
	C2070.298096,246.944397 2070.000000,204.275543 2070.000000,161.610352 
	C2070.000000,159.616989 2070.000000,157.623611 2070.000000,154.884308 
	C2075.864014,157.491806 2081.355469,159.740662 2086.678711,162.334991 
	C2107.048584,172.262527 2127.348877,182.332993 2147.704590,192.289810 
	C2170.704834,203.540222 2193.725098,214.750702 2216.759033,225.932144 
	C2238.458252,236.465683 2260.197021,246.916962 2281.899170,257.444519 
	C2304.787842,268.547821 2327.641357,279.723816 2350.532715,290.821228 
	C2372.237549,301.343323 2393.987305,311.773041 2415.688965,322.301666 
	C2438.725586,333.477875 2461.715332,344.750549 2484.750488,355.929413 
	C2507.041992,366.747223 2529.374756,377.479889 2551.671875,388.285767 
	C2574.120850,399.165161 2596.531738,410.123718 2618.991699,420.980286 
	C2633.606201,428.044678 2648.287354,434.971649 2662.914795,442.010010 
	C2664.650879,442.845459 2666.235107,443.996216 2668.985596,445.666077 
	C2665.261475,447.840637 2662.444824,449.625488 2659.503174,451.172821 
	C2653.828369,454.157898 2648.121582,457.087616 2642.360107,459.901581 
	C2615.663818,472.940765 2588.956299,485.957367 2562.229004,498.932892 
	C2539.939209,509.754181 2517.602539,520.479370 2495.311523,531.298523 
	C2472.276855,542.478516 2449.281982,553.740051 2426.251953,564.929871 
	C2404.407715,575.543579 2382.536865,586.101807 2360.685303,596.700684 
	C2337.945068,607.730652 2315.225830,618.804565 2292.475342,629.813049 
	C2275.791992,637.885742 2259.072510,645.883667 2242.001465,653.999390 
z"/>
<path fill="#AC1F2D" opacity="1.000000" stroke="none" 
	d="
M207.301666,121.688370 
	C209.694489,125.596283 211.888962,129.193054 214.866013,134.072495 
	C214.866013,101.005127 214.866013,69.455391 214.866013,37.454224 
	C220.625748,37.454224 225.984940,37.454224 231.675873,37.454224 
	C231.675873,77.773010 231.675873,118.006760 231.675873,158.950699 
	C224.665527,158.950699 217.729202,159.101044 210.811844,158.806351 
	C209.624756,158.755783 208.198868,157.000732 207.422089,155.709045 
	C191.989807,130.046906 176.640839,104.334709 161.265152,78.638519 
	C157.570221,72.463470 153.840134,66.309471 149.087189,60.404636 
	C149.087189,93.050987 149.087189,125.697334 149.087189,158.669083 
	C143.575363,158.669083 138.667999,158.669083 133.378448,158.669083 
	C133.378448,118.342430 133.378448,78.107941 133.378448,37.060120 
	C140.703033,37.060120 148.130524,36.851936 155.526215,37.244038 
	C156.926254,37.318272 158.528961,39.578430 159.480606,41.164501 
	C168.199783,55.696304 176.788467,70.306351 185.430054,84.884789 
	C192.644150,97.055046 199.878128,109.213524 207.301666,121.688370 
z"/>
<path fill="#818285" opacity="1.000000" stroke="none" 
	d="
M762.000000,339.000061 
	C751.537964,339.000061 741.575928,339.000061 731.309814,339.000061 
	C731.309814,298.333435 731.309814,258.084839 731.309814,217.000504 
	C732.772156,217.000504 734.347168,217.000504 735.922180,217.000504 
	C750.749817,217.000610 765.583008,216.753754 780.403381,217.081757 
	C791.543884,217.328308 801.958801,219.917953 808.943604,229.796814 
	C816.925720,241.086349 817.804382,265.011902 799.138550,273.976074 
	C798.260559,274.397705 797.440979,274.941010 796.470398,275.498810 
	C812.405396,281.710632 818.855713,291.417145 817.923584,308.743256 
	C817.220398,321.813629 807.714722,333.930817 795.104248,337.235199 
	C789.467163,338.712341 783.387268,338.639252 777.491455,338.946533 
	C772.506897,339.206360 767.498108,339.000061 762.000000,339.000061 
M777.017944,324.919312 
	C778.448730,324.612274 779.998108,324.558258 781.289062,323.953003 
	C786.089294,321.702545 792.378174,320.470398 795.262512,316.686676 
	C804.652466,304.368866 799.013916,287.807648 784.834167,285.333344 
	C773.029968,283.273560 760.580566,284.911316 748.364136,284.911316 
	C748.364136,297.984894 748.364136,311.339569 748.364136,324.983704 
	C757.849792,324.983704 766.974243,324.983704 777.017944,324.919312 
M748.183472,267.133514 
	C749.748535,267.422638 751.310547,267.941010 752.879089,267.961395 
	C759.868225,268.052155 766.906067,268.494385 773.833801,267.835938 
	C778.903198,267.354095 784.353821,266.292999 788.710754,263.845520 
	C798.275269,258.472778 798.178223,241.343002 789.786743,236.051498 
	C786.843506,234.195557 783.295959,232.403900 779.947693,232.250031 
	C769.398987,231.765244 758.814026,232.071350 748.036621,232.071350 
	C748.036621,243.915878 748.036621,255.053574 748.183472,267.133514 
z"/>
<path fill="#AC1F2D" opacity="1.000000" stroke="none" 
	d="
M1124.950439,67.187515 
	C1129.955566,80.892166 1131.895630,94.421410 1130.230713,108.754494 
	C1128.656860,122.303452 1124.298950,134.383820 1115.560425,144.679611 
	C1109.028687,152.375458 1100.167603,157.219482 1090.263184,157.748108 
	C1071.029053,158.774643 1051.728394,158.554245 1032.454956,158.829529 
	C1032.169434,158.833618 1031.880127,158.568192 1031.299927,158.286423 
	C1031.299927,118.175888 1031.299927,77.937393 1031.299927,37.293552 
	C1033.071045,37.189747 1034.680298,37.016121 1036.289795,37.013550 
	C1049.955322,36.991718 1063.638794,36.569172 1077.281006,37.133617 
	C1088.807007,37.610512 1100.138306,39.445946 1109.824951,46.869038 
	C1116.760010,52.183590 1120.944702,59.349693 1124.950439,67.187515 
M1048.999756,107.500000 
	C1048.999756,119.568604 1048.999756,131.637207 1048.999756,144.481705 
	C1060.973145,143.952835 1072.116089,144.050171 1083.098022,142.768799 
	C1090.444824,141.911591 1096.893921,138.327072 1101.746826,131.982178 
	C1107.241577,124.798088 1109.930542,116.938110 1111.251953,108.076836 
	C1113.275513,94.507988 1110.864258,81.820282 1105.162842,69.693810 
	C1102.000488,62.968014 1096.722656,57.801006 1089.666748,55.084431 
	C1076.579712,50.045704 1062.952026,52.553806 1048.999756,51.978485 
	C1048.999756,70.618164 1048.999756,88.559082 1048.999756,107.500000 
z"/>
<path fill="#818285" opacity="1.000000" stroke="none" 
	d="
M947.999512,268.224243 
	C948.216187,282.230865 948.053040,295.637726 943.185486,308.640015 
	C936.151428,327.429230 922.999146,338.159119 903.168823,341.049683 
	C889.351501,343.063751 876.062317,342.168457 863.358704,335.774506 
	C851.237000,329.673492 844.244812,319.424530 840.585510,306.958710 
	C835.138184,288.401276 834.833069,269.444489 840.674988,251.015854 
	C847.067383,230.850677 860.729492,218.119965 882.335815,214.955063 
	C898.119446,212.643066 912.994385,214.171799 926.454529,223.737122 
	C937.271118,231.423721 942.763489,242.324051 945.918457,254.679184 
	C947.005249,258.934875 947.327515,263.385834 947.999512,268.224243 
M923.937622,246.761154 
	C920.701721,242.859955 918.122070,238.003616 914.102966,235.242477 
	C903.443359,227.919128 891.439087,227.120529 879.368835,231.375275 
	C868.005981,235.380692 860.372986,244.062469 857.813843,255.278076 
	C855.394287,265.881561 854.327271,276.918732 855.765259,288.204803 
	C857.812866,304.275665 865.749573,324.228210 887.166382,326.463776 
	C900.920166,327.899445 917.954529,321.252808 923.008240,308.976013 
	C931.384644,288.627258 931.485596,268.140442 923.937622,246.761154 
z"/>
<path fill="#AC1F2D" opacity="1.000000" stroke="none" 
	d="
M874.232788,147.267975 
	C866.557312,154.021805 858.044983,157.950699 848.066406,158.001328 
	C829.995361,158.093033 811.923584,158.027298 793.422974,158.027298 
	C793.422974,118.338188 793.422974,78.013229 793.422974,37.285686 
	C795.081787,37.188885 796.690552,37.016083 798.299500,37.013515 
	C811.949890,36.991707 825.613403,36.634247 839.246338,37.121281 
	C849.447693,37.485718 859.618469,39.058105 868.408997,44.962978 
	C879.957825,52.720737 886.428711,64.019753 889.543152,77.226646 
	C894.008789,96.163567 893.692139,114.946434 884.910706,132.721786 
	C882.337341,137.930771 878.008972,142.272797 874.232788,147.267975 
M863.514343,131.924881 
	C864.967224,129.734985 866.751099,127.694756 867.819763,125.331146 
	C875.355286,108.664825 874.913269,91.669533 868.848450,74.805611 
	C864.266663,62.065647 855.479553,53.827602 841.316223,52.969704 
	C832.228210,52.419231 823.114258,52.287106 814.010132,52.029945 
	C812.759521,51.994625 811.498657,52.321022 810.369751,52.463856 
	C810.369751,83.113968 810.369751,113.335213 810.369751,143.999664 
	C819.027832,143.999664 827.331543,144.234116 835.616638,143.940689 
	C846.121887,143.568634 855.817627,140.882812 863.514343,131.924881 
z"/>
<path fill="#818285" opacity="1.000000" stroke="none" 
	d="
M1375.625244,217.057327 
	C1380.456177,217.763443 1384.883545,218.157791 1389.173096,219.148315 
	C1407.778198,223.444489 1418.335938,236.497208 1423.569336,253.617004 
	C1429.004272,271.396332 1429.128662,289.620300 1422.264893,307.346558 
	C1415.457275,324.927246 1403.767944,337.058746 1383.993774,337.857544 
	C1365.615356,338.599976 1347.183472,338.015991 1328.385010,338.015991 
	C1328.385010,298.372650 1328.385010,258.012299 1328.385010,217.019897 
	C1343.974487,217.019897 1359.566284,217.019897 1375.625244,217.057327 
M1407.127197,268.339630 
	C1406.415894,264.825470 1406.082886,261.180695 1404.923340,257.821198 
	C1401.157349,246.909729 1395.335815,236.816467 1383.323364,234.483887 
	C1371.000977,232.091110 1358.209961,232.110809 1345.300049,231.047974 
	C1345.300049,262.863037 1345.300049,293.212372 1345.300049,322.984375 
	C1357.150146,322.984375 1368.750854,323.687408 1380.211914,322.725342 
	C1387.285400,322.131561 1393.652588,318.384369 1398.368530,312.337158 
	C1408.487915,299.361176 1408.885132,284.450928 1407.127197,268.339630 
z"/>
<path fill="#AC1F2D" opacity="1.000000" stroke="none" 
	d="
M590.047302,98.890228 
	C598.578125,101.399834 601.462830,108.366440 602.813354,116.007401 
	C605.319580,130.186829 607.339905,144.452148 609.608459,158.976273 
	C605.074707,158.976273 599.598816,159.172913 594.159241,158.816223 
	C593.023315,158.741714 591.308594,156.751907 591.070679,155.427399 
	C589.213379,145.086334 587.609863,134.698593 586.014526,124.311974 
	C585.077454,118.211433 584.395447,111.529579 578.524414,108.380081 
	C573.933716,105.917435 568.361450,104.689407 563.106140,104.204269 
	C555.703491,103.520905 548.190674,104.031372 540.193054,104.031372 
	C540.193054,122.349579 540.193054,140.257980 540.193054,158.580505 
	C533.970520,158.580505 528.279480,158.580505 522.291748,158.580505 
	C522.291748,118.170044 522.291748,77.941795 522.291748,37.294552 
	C524.053101,37.190678 525.660034,37.015854 527.267212,37.013588 
	C542.260559,36.992451 557.264526,36.658974 572.243591,37.121395 
	C582.184387,37.428276 591.919983,39.284054 599.430115,46.912926 
	C611.385376,59.057281 610.376648,81.028503 596.658264,91.698402 
	C595.113770,92.899658 592.760620,93.061150 590.071167,93.892700 
	C588.103821,95.341324 586.847717,96.602051 585.591614,97.862778 
	C587.076843,98.205261 588.562073,98.547745 590.047302,98.890228 
M588.687561,66.291069 
	C587.056152,59.640770 582.941406,54.278080 576.409546,53.495338 
	C564.185242,52.030449 551.780090,52.075161 539.325439,51.485970 
	C539.325439,64.670517 539.325439,76.568855 539.325439,88.938156 
	C550.589417,88.938156 561.538330,89.101715 572.476257,88.826492 
	C575.313354,88.755104 578.429199,87.841652 580.875549,86.397697 
	C588.208740,82.069275 589.627441,74.962471 588.687561,66.291069 
z"/>
<path fill="#818285" opacity="1.000000" stroke="none" 
	d="
M1216.000000,255.000000 
	C1216.000000,242.204453 1216.000000,229.908905 1216.000000,217.000259 
	C1218.684570,217.000259 1220.957642,217.000244 1223.230713,217.000275 
	C1237.060669,217.000458 1250.905396,216.608551 1264.715820,217.128174 
	C1275.267822,217.525208 1285.455688,219.482864 1293.423584,227.807632 
	C1307.164673,242.164124 1301.703613,268.600555 1283.205811,276.039856 
	C1282.321411,276.395477 1281.511597,276.936493 1280.113037,277.689392 
	C1293.764038,280.827484 1295.160522,291.629456 1297.042725,302.322113 
	C1299.050049,313.726318 1301.472046,325.057465 1303.702271,336.422638 
	C1303.825684,337.052032 1303.849854,337.700836 1303.990967,338.981964 
	C1298.176880,338.981964 1292.577881,339.121185 1286.998535,338.854126 
	C1285.990112,338.805817 1284.395264,337.208557 1284.201538,336.124481 
	C1282.647705,327.425171 1281.381470,318.674805 1279.993286,309.945435 
	C1279.274292,305.424072 1278.979614,300.758484 1277.618408,296.433411 
	C1275.392822,289.362427 1270.045288,285.366180 1262.673340,285.095551 
	C1253.040283,284.741913 1243.384521,285.008972 1233.000000,285.008972 
	C1233.000000,294.201813 1233.000000,303.125916 1233.000000,312.050049 
	C1233.000000,320.842102 1233.000000,329.634155 1233.000000,338.709839 
	C1227.289795,338.709839 1222.030273,338.709839 1216.000000,338.709839 
	C1216.000000,310.990540 1216.000000,283.245270 1216.000000,255.000000 
M1233.006348,234.759613 
	C1233.006348,246.014679 1233.006348,257.269745 1233.006348,268.968750 
	C1244.479248,268.968750 1255.467041,269.656860 1266.325073,268.765594 
	C1276.204468,267.954712 1282.762207,262.123199 1282.071411,249.130539 
	C1281.602783,240.317093 1275.821411,233.774490 1266.144043,233.074448 
	C1256.262451,232.359650 1246.332153,232.271225 1236.419922,232.087509 
	C1235.302979,232.066803 1234.164307,233.206512 1233.006348,234.759613 
z"/>
<path fill="#AC1F2D" opacity="1.000000" stroke="none" 
	d="
M709.337769,151.318375 
	C702.710205,157.003540 694.969055,159.379883 687.033691,160.896591 
	C675.513123,163.098602 664.013123,162.244812 652.765564,158.960510 
	C636.505432,154.212524 627.201477,139.602219 629.641296,123.034363 
	C634.658569,123.034363 639.792480,122.812759 644.878540,123.207397 
	C645.995972,123.294098 647.700867,125.487633 647.851562,126.852661 
	C649.276855,139.764587 655.833069,143.672073 666.065308,145.749863 
	C674.111206,147.383682 682.294556,147.045120 690.311035,144.107330 
	C699.744873,140.650146 703.336731,133.202133 703.876038,124.793343 
	C704.305847,118.090569 699.064331,112.387344 690.359436,109.779060 
	C677.788757,106.012466 665.024597,102.891228 652.455627,99.119415 
	C641.042236,95.694382 632.840027,88.524467 631.129822,76.282608 
	C629.010925,61.114895 634.057617,48.735622 648.191467,41.458275 
	C665.663574,32.461998 683.788330,32.577400 701.823730,39.506332 
	C713.007507,43.802956 720.273865,56.768139 718.338501,67.974380 
	C713.311218,67.974380 708.177429,68.117905 703.064453,67.855690 
	C702.017029,67.801964 700.294373,66.331673 700.158325,65.339478 
	C698.733337,54.946175 690.950134,51.334492 682.417969,50.349686 
	C675.721741,49.576778 668.537659,50.671043 661.906250,52.301983 
	C653.888794,54.273827 646.953918,63.904690 650.077576,73.695480 
	C652.080200,79.972450 657.426147,82.392189 663.056091,84.034355 
	C675.969910,87.801117 689.130127,90.792709 701.883118,95.025017 
	C721.800842,101.635078 725.799194,120.146706 719.757568,136.897964 
	C717.856995,142.167679 713.090942,146.403931 709.337769,151.318375 
z"/>
<path fill="#AC1F2D" opacity="1.000000" stroke="none" 
	d="
M972.959106,127.999031 
	C958.966309,127.999542 945.467285,128.041321 931.968994,127.966469 
	C929.197205,127.951096 927.617126,128.473907 926.543396,131.593872 
	C923.979187,139.045120 920.636292,146.224854 917.756287,153.572418 
	C916.289185,157.315277 914.367126,159.653564 909.745728,159.101532 
	C905.693481,158.617477 901.537598,159.000458 896.672302,159.000458 
	C900.424805,149.940353 903.830994,141.607864 907.321777,133.310989 
	C914.849243,115.419731 922.443298,97.556442 929.965820,79.663116 
	C935.510803,66.473633 940.904602,53.219456 946.609863,40.100246 
	C947.217041,38.704067 949.340576,37.616734 950.982788,37.118809 
	C952.662109,36.609608 954.615051,37.000954 956.448181,37.000820 
	C967.121216,37.000023 966.996155,37.050652 970.859619,46.645264 
	C984.985474,81.725670 999.204773,116.768486 1013.378357,151.829697 
	C1014.230652,153.937836 1014.991699,156.082855 1016.076416,158.955368 
	C1009.717407,158.955368 1003.810120,159.090378 997.921143,158.822937 
	C996.935425,158.778183 995.654297,157.149826 995.146912,155.977432 
	C991.880981,148.431122 988.453125,140.924835 985.780579,133.163651 
	C984.324097,128.933884 982.251770,127.259430 977.946411,127.961365 
	C976.485474,128.199570 974.952942,127.999062 972.959106,127.999031 
M962.891479,72.621597 
	C960.871216,67.334763 958.850952,62.047920 956.553101,56.034580 
	C948.935852,75.376076 941.638184,93.905914 934.181641,112.839172 
	C949.099060,112.839172 963.062195,112.839172 977.889648,112.839172 
	C972.858704,99.408752 967.983093,86.392952 962.891479,72.621597 
z"/>
<path fill="#818285" opacity="1.000000" stroke="none" 
	d="
M610.715088,302.625427 
	C615.929932,290.218964 620.931885,278.144104 625.985229,266.090698 
	C632.804810,249.824615 639.663879,233.575058 646.573120,217.159027 
	C652.806641,217.159027 659.109009,217.159027 665.460510,217.159027 
	C681.752319,257.490845 698.005066,297.726013 714.654724,338.943665 
	C707.959717,338.943665 702.088684,339.027588 696.226257,338.840973 
	C695.465332,338.816711 694.443237,337.524139 694.059387,336.603424 
	C690.602844,328.311829 687.246338,319.978363 683.896545,311.642639 
	C682.870300,309.088898 681.390137,307.877350 678.313965,307.913483 
	C662.489014,308.099487 646.659912,308.082886 630.834351,307.925079 
	C627.873352,307.895538 626.230591,308.865631 625.170898,311.511963 
	C621.830811,319.852600 618.483765,328.193237 614.908752,336.433838 
	C614.413391,337.575714 612.656677,338.809662 611.421082,338.878815 
	C606.453369,339.156830 601.461121,338.993835 595.320374,338.993835 
	C600.578247,326.535400 605.551636,314.751038 610.715088,302.625427 
M638.911255,277.382080 
	C636.914001,282.416504 634.916809,287.450958 632.867432,292.616882 
	C647.706909,292.616882 661.749634,292.616882 676.465454,292.616882 
	C669.417542,273.809143 662.579163,255.560532 655.290344,236.109955 
	C649.597900,250.342972 644.343262,263.481415 638.911255,277.382080 
z"/>
<path fill="#818285" opacity="1.000000" stroke="none" 
	d="
M1124.012573,217.000229 
	C1145.463989,217.000229 1166.417358,217.000229 1187.684082,217.000229 
	C1187.684082,221.987015 1187.684082,226.580429 1187.684082,231.770096 
	C1168.424805,231.770096 1149.049072,231.770096 1129.339600,231.770096 
	C1129.339600,244.396240 1129.339600,256.434723 1129.339600,268.891296 
	C1147.762207,268.891296 1166.016479,268.891296 1184.633423,268.891296 
	C1184.633423,274.008514 1184.633423,278.714996 1184.633423,283.845947 
	C1166.284668,283.845947 1148.030029,283.845947 1129.389160,283.845947 
	C1129.389160,296.959656 1129.389160,309.665344 1129.389160,322.792114 
	C1149.325562,322.792114 1169.245483,322.792114 1189.580811,322.792114 
	C1189.580811,328.233459 1189.580811,333.279053 1189.580811,338.665771 
	C1163.597900,338.665771 1137.565796,338.665771 1111.266846,338.665771 
	C1111.266846,298.250671 1111.266846,258.009766 1111.266846,217.000229 
	C1115.343018,217.000229 1119.428711,217.000229 1124.012573,217.000229 
z"/>
<path fill="#AC1F2D" opacity="1.000000" stroke="none" 
	d="
M1172.225952,88.996338 
	C1189.510986,88.998032 1206.319824,88.998032 1223.563843,88.998032 
	C1223.563843,93.990990 1223.563843,98.683174 1223.563843,103.915619 
	C1205.208252,103.915619 1186.968994,103.915619 1168.368652,103.915619 
	C1168.368652,117.012878 1168.368652,129.581879 1168.368652,142.866241 
	C1188.015381,142.866241 1207.709473,142.866241 1227.695068,142.866241 
	C1227.695068,148.480591 1227.695068,153.386322 1227.695068,158.647400 
	C1201.962646,158.647400 1176.399414,158.647400 1150.417236,158.647400 
	C1150.417236,118.310234 1150.417236,77.970032 1150.417236,37.314507 
	C1175.788330,37.314507 1201.017700,37.314507 1226.624268,37.314507 
	C1226.624268,41.997440 1226.624268,46.569836 1226.624268,51.860352 
	C1207.325317,51.860352 1187.966187,51.860352 1168.026855,51.860352 
	C1168.026855,63.834457 1167.942383,75.109108 1168.187988,86.376579 
	C1168.207520,87.274719 1170.508789,88.123131 1172.225952,88.996338 
z"/>
<path fill="#AC1F2D" opacity="1.000000" stroke="none" 
	d="
M435.999634,72.996483 
	C435.999634,78.450592 435.999634,83.405754 435.999634,88.883347 
	C454.763611,88.883347 473.001709,88.883347 491.616455,88.883347 
	C491.616455,93.980225 491.616455,98.553596 491.616455,103.841980 
	C473.345673,103.841980 454.985229,103.841980 436.318176,103.841980 
	C436.318176,117.115944 436.318176,129.683594 436.318176,142.787506 
	C455.997192,142.787506 475.567200,142.787506 495.565918,142.787506 
	C495.565918,148.333725 495.565918,153.358459 495.565918,158.694855 
	C469.867157,158.694855 444.305603,158.694855 418.371796,158.694855 
	C418.371796,118.339447 418.371796,78.118729 418.371796,37.448692 
	C443.634705,37.448692 468.980835,37.448692 494.665100,37.448692 
	C494.665100,42.081120 494.665100,46.654022 494.665100,51.762260 
	C475.363586,51.762260 456.125854,51.762260 435.999634,51.762260 
	C435.999634,59.007240 435.999634,65.752396 435.999634,72.996483 
z"/>
<path fill="#818285" opacity="1.000000" stroke="none" 
	d="
M1447.000000,294.000000 
	C1447.000000,268.214447 1447.000000,242.928894 1447.000000,217.322845 
	C1472.426514,217.322845 1497.459229,217.322845 1522.746338,217.322845 
	C1522.746338,222.117996 1522.746338,226.709381 1522.746338,231.893814 
	C1503.297119,231.893814 1483.921753,231.893814 1464.277466,231.893814 
	C1464.277466,244.401794 1464.277466,256.322998 1464.277466,268.839233 
	C1482.980591,268.839233 1501.689819,268.839233 1520.694824,268.839233 
	C1520.694824,274.013184 1520.694824,278.605621 1520.694824,283.795898 
	C1502.063721,283.795898 1483.353882,283.795898 1464.325684,283.795898 
	C1464.325684,296.968842 1464.325684,309.557159 1464.325684,322.740631 
	C1484.215454,322.740631 1504.255981,322.740631 1524.645386,322.740631 
	C1524.645386,328.369202 1524.645386,333.410706 1524.645386,338.728271 
	C1498.925659,338.728271 1473.344116,338.728271 1447.000000,338.728271 
	C1447.000000,323.989441 1447.000000,309.244720 1447.000000,294.000000 
z"/>
<path fill="#818285" opacity="1.000000" stroke="none" 
	d="
M540.316772,325.998413 
	C547.758728,326.209686 555.054932,326.496094 560.293518,321.108704 
	C564.332153,316.955292 567.253418,311.715302 571.359009,306.001648 
	C574.183716,306.001648 578.694275,306.276550 583.155884,305.927246 
	C587.987488,305.549042 588.674927,308.293304 587.877808,311.796753 
	C585.829895,320.797028 580.949341,328.317413 573.024597,332.848755 
	C554.880554,343.223480 535.985657,344.369080 517.017029,334.947662 
	C505.185364,329.071014 498.696381,318.475708 495.370209,306.381775 
	C489.981934,286.790070 490.016022,267.017181 497.009094,247.646179 
	C503.859009,228.671753 520.088989,216.079391 541.099365,215.883545 
	C552.340088,215.778763 563.216858,216.502716 572.989807,222.543289 
	C583.262878,228.893051 588.056641,238.537552 589.067932,250.701767 
	C582.817139,250.701767 576.866882,250.701767 570.952209,250.701767 
	C569.053040,246.752533 567.727173,242.241394 565.059265,238.758133 
	C554.754883,225.304474 527.330811,226.546997 517.880432,245.357361 
	C513.610229,253.856979 511.068573,262.705048 511.002258,272.229980 
	C510.927612,282.955414 510.500580,293.683807 514.037170,304.104065 
	C518.292053,316.640869 526.697937,324.070892 540.316772,325.998413 
z"/>
<path fill="#818285" opacity="1.000000" stroke="none" 
	d="
M1001.956116,253.154053 
	C997.637451,241.122086 993.365662,229.485443 988.799011,217.045334 
	C995.302185,217.045334 1001.354187,216.887680 1007.380554,217.209290 
	C1008.322632,217.259567 1009.514832,219.367264 1009.973877,220.731415 
	C1020.708557,252.627609 1031.357666,284.552551 1042.027466,316.470581 
	C1042.153076,316.846619 1042.342529,317.201385 1042.928833,318.540375 
	C1054.973389,284.186157 1066.719238,250.683975 1078.462646,217.188766 
	C1084.322998,217.188766 1089.956177,217.188766 1096.425903,217.188766 
	C1094.057007,224.008331 1091.922729,230.444626 1089.591187,236.808640 
	C1083.019287,254.747498 1076.368042,272.657288 1069.745239,290.577515 
	C1064.140625,305.742523 1058.603271,320.933411 1052.802368,336.023010 
	C1052.290039,337.355408 1050.153564,338.560852 1048.582275,338.873047 
	C1046.177734,339.350830 1043.608398,338.999939 1041.109009,339.000000 
	C1032.137695,339.000183 1032.218506,338.971558 1029.296631,330.677490 
	C1020.234863,304.955383 1011.105896,279.256989 1001.956116,253.154053 
z"/>
<path fill="#AC1F2D" opacity="1.000000" stroke="none" 
	d="
M353.057556,128.150925 
	C357.336853,116.002022 361.602966,104.259468 365.761627,92.478951 
	C371.889221,75.120789 377.868408,57.709503 384.152649,40.408691 
	C384.687469,38.936283 386.962128,37.310497 388.561523,37.158901 
	C393.167267,36.722355 397.841156,37.004799 402.750549,37.004799 
	C402.693237,38.184135 402.846344,39.030487 402.590240,39.726189 
	C393.620880,64.091316 384.601471,88.437996 375.615143,112.796883 
	C370.553040,126.518486 365.495422,140.242065 360.527588,153.997910 
	C359.239594,157.564301 357.479492,159.755615 353.155609,159.087021 
	C350.226746,158.634125 347.116699,158.641052 344.185272,159.085617 
	C339.917938,159.732773 338.275940,157.453781 337.071014,154.025711 
	C328.787079,130.457687 320.466248,106.902641 312.142120,83.348778 
	C306.783295,68.185440 301.398712,53.031223 295.848663,37.373608 
	C302.593140,37.373608 308.810852,37.373608 315.605896,37.373608 
	C326.722046,70.686554 337.941986,104.310654 349.438599,138.763855 
	C350.804321,134.839340 351.900330,131.689819 353.057556,128.150925 
z"/>
<path fill="#AC1F2D" opacity="1.000000" stroke="none" 
	d="
M763.999817,87.000000 
	C763.999817,111.091896 763.999817,134.683792 763.999817,158.636810 
	C757.983582,158.636810 752.414612,158.636810 746.420044,158.636810 
	C746.420044,118.349396 746.420044,78.040810 746.420044,37.365559 
	C752.015808,37.365559 757.584473,37.365559 763.999817,37.365559 
	C763.999817,53.721928 763.999817,70.110962 763.999817,87.000000 
z"/>
<path fill="#AC1F2D" opacity="1.000000" stroke="none" 
	d="
M274.831787,37.001175 
	C276.743713,37.119884 278.177887,37.238152 279.731384,37.366261 
	C279.731384,77.958595 279.731384,118.153671 279.731384,158.674515 
	C273.900330,158.674515 268.332825,158.674515 262.379639,158.674515 
	C262.379639,118.264366 262.379639,77.951004 262.379639,37.000736 
	C266.469604,37.000736 270.411835,37.000736 274.831787,37.001175 
z"/>
<path fill="#818285" opacity="1.000000" stroke="none" 
	d="
M2627.846680,784.604065 
	C2624.562256,785.635681 2621.017578,786.901672 2617.469727,786.911194 
	C2568.653320,787.042114 2519.836426,786.977661 2471.019775,787.064453 
	C2468.489014,787.068970 2465.959473,788.003784 2463.193848,788.809814 
	C2461.729004,788.437500 2460.500000,787.760803 2459.270996,787.084106 
	C2459.248047,786.626709 2459.225098,786.169250 2459.202393,785.711853 
	C2461.217285,785.141663 2463.231445,784.076721 2465.247070,784.073547 
	C2518.868408,783.989868 2572.489502,784.014954 2626.110840,784.032227 
	C2626.602295,784.032410 2627.093750,784.177063 2627.846680,784.604065 
z"/>
<path fill="#818285" opacity="1.000000" stroke="none" 
	d="
M2279.000000,786.000000 
	C2276.716797,786.333069 2274.434082,786.953979 2272.150635,786.956604 
	C2223.325195,787.012268 2174.499512,787.006531 2125.674072,786.970581 
	C2123.700439,786.969177 2121.727295,786.555542 2119.376953,785.861450 
	C2119.000000,784.981567 2119.000244,784.574219 2119.000488,784.166870 
	C2138.944580,784.111267 2158.888916,784.019531 2178.833008,784.008301 
	C2211.912354,783.989563 2244.991699,784.022644 2278.535645,784.405884 
	C2279.000000,785.185242 2279.000000,785.592590 2279.000000,786.000000 
z"/>
<path fill="#AC1F2D" opacity="1.000000" stroke="none" 
	d="
M589.906738,98.631393 
	C588.562073,98.547745 587.076843,98.205261 585.591614,97.862778 
	C586.847717,96.602051 588.103821,95.341324 589.737671,94.061264 
	C589.998962,95.485474 589.882507,96.929016 589.906738,98.631393 
z"/>
<path fill="#808284" opacity="1.000000" stroke="none" 
	d="
M2118.618408,784.100891 
	C2119.000244,784.574219 2119.000000,784.981567 2119.000000,785.694458 
	C2118.250000,786.000000 2117.500000,786.000000 2116.095703,785.990173 
	C2115.254883,785.973694 2115.068604,785.966980 2114.882568,785.960327 
	C2116.000488,785.318542 2117.118408,784.676697 2118.618408,784.100891 
z"/>
<path fill="#818285" opacity="1.000000" stroke="none" 
	d="
M2281.371582,788.056885 
	C2281.031494,787.644287 2281.020996,787.174500 2281.014160,786.072998 
	C2281.025146,785.255005 2281.032471,785.068848 2281.039551,784.882568 
	C2281.477539,784.931641 2281.915527,784.980713 2282.686523,785.335083 
	C2283.019531,785.640503 2283.042480,786.113586 2283.042480,786.113586 
	C2282.595459,786.742310 2282.148193,787.370972 2281.371582,788.056885 
z"/>
<path fill="#808284" opacity="1.000000" stroke="none" 
	d="
M2280.899902,784.611694 
	C2281.032471,785.068848 2281.025146,785.255005 2281.008789,785.720581 
	C2280.555420,786.000000 2280.111084,786.000000 2279.333252,786.000000 
	C2279.000000,785.592590 2279.000000,785.185242 2278.999756,784.472290 
	C2279.586426,784.224792 2280.173340,784.282776 2280.899902,784.611694 
z"/>
<path fill="#818285" opacity="1.000000" stroke="none" 
	d="
M2114.613525,786.096130 
	C2115.068604,785.966980 2115.254883,785.973694 2115.720703,785.990112 
	C2115.472168,786.566040 2114.944336,787.132202 2114.150879,787.828247 
	C2114.038330,787.382812 2114.191406,786.807373 2114.613525,786.096130 
z"/>
<path fill="#808284" opacity="1.000000" stroke="none" 
	d="
M2283.269531,786.017395 
	C2283.042480,786.113586 2283.019531,785.640503 2283.010254,785.403931 
	C2283.166016,785.418640 2283.331299,785.669922 2283.269531,786.017395 
z"/>
<path fill="#000000" opacity="1.000000" stroke="none" 
	d="
M776.558350,324.951508 
	C766.974243,324.983704 757.849792,324.983704 748.364136,324.983704 
	C748.364136,311.339569 748.364136,297.984894 748.364136,284.911316 
	C760.580566,284.911316 773.029968,283.273560 784.834167,285.333344 
	C799.013916,287.807648 804.652466,304.368866 795.262512,316.686676 
	C792.378174,320.470398 786.089294,321.702545 781.289062,323.953003 
	C779.998108,324.558258 778.448730,324.612274 776.558350,324.951508 
z"/>
<path fill="#000000" opacity="1.000000" stroke="none" 
	d="
M748.110046,266.662384 
	C748.036621,255.053574 748.036621,243.915878 748.036621,232.071350 
	C758.814026,232.071350 769.398987,231.765244 779.947693,232.250031 
	C783.295959,232.403900 786.843506,234.195557 789.786743,236.051498 
	C798.178223,241.343002 798.275269,258.472778 788.710754,263.845520 
	C784.353821,266.292999 778.903198,267.354095 773.833801,267.835938 
	C766.906067,268.494385 759.868225,268.052155 752.879089,267.961395 
	C751.310547,267.941010 749.748535,267.422638 748.110046,266.662384 
z"/>
<path fill="#000000" opacity="1.000000" stroke="none" 
	d="
M1048.999756,107.000000 
	C1048.999756,88.559082 1048.999756,70.618164 1048.999756,51.978485 
	C1062.952026,52.553806 1076.579712,50.045704 1089.666748,55.084431 
	C1096.722656,57.801006 1102.000488,62.968014 1105.162842,69.693810 
	C1110.864258,81.820282 1113.275513,94.507988 1111.251953,108.076836 
	C1109.930542,116.938110 1107.241577,124.798088 1101.746826,131.982178 
	C1096.893921,138.327072 1090.444824,141.911591 1083.098022,142.768799 
	C1072.116089,144.050171 1060.973145,143.952835 1048.999756,144.481705 
	C1048.999756,131.637207 1048.999756,119.568604 1048.999756,107.000000 
z"/>
<path fill="#000000" opacity="1.000000" stroke="none" 
	d="
M924.026245,247.137405 
	C931.485596,268.140442 931.384644,288.627258 923.008240,308.976013 
	C917.954529,321.252808 900.920166,327.899445 887.166382,326.463776 
	C865.749573,324.228210 857.812866,304.275665 855.765259,288.204803 
	C854.327271,276.918732 855.394287,265.881561 857.813843,255.278076 
	C860.372986,244.062469 868.005981,235.380692 879.368835,231.375275 
	C891.439087,227.120529 903.443359,227.919128 914.102966,235.242477 
	C918.122070,238.003616 920.701721,242.859955 924.026245,247.137405 
z"/>
<path fill="#000000" opacity="1.000000" stroke="none" 
	d="
M863.267883,132.188721 
	C855.817627,140.882812 846.121887,143.568634 835.616638,143.940689 
	C827.331543,144.234116 819.027832,143.999664 810.369751,143.999664 
	C810.369751,113.335213 810.369751,83.113968 810.369751,52.463856 
	C811.498657,52.321022 812.759521,51.994625 814.010132,52.029945 
	C823.114258,52.287106 832.228210,52.419231 841.316223,52.969704 
	C855.479553,53.827602 864.266663,62.065647 868.848450,74.805611 
	C874.913269,91.669533 875.355286,108.664825 867.819763,125.331146 
	C866.751099,127.694756 864.967224,129.734985 863.267883,132.188721 
z"/>
<path fill="#000000" opacity="1.000000" stroke="none" 
	d="
M1407.361572,268.727417 
	C1408.885132,284.450928 1408.487915,299.361176 1398.368530,312.337158 
	C1393.652588,318.384369 1387.285400,322.131561 1380.211914,322.725342 
	C1368.750854,323.687408 1357.150146,322.984375 1345.300049,322.984375 
	C1345.300049,293.212372 1345.300049,262.863037 1345.300049,231.047974 
	C1358.209961,232.110809 1371.000977,232.091110 1383.323364,234.483887 
	C1395.335815,236.816467 1401.157349,246.909729 1404.923340,257.821198 
	C1406.082886,261.180695 1406.415894,264.825470 1407.361572,268.727417 
z"/>
<path fill="#000000" opacity="1.000000" stroke="none" 
	d="
M588.801270,66.701691 
	C589.627441,74.962471 588.208740,82.069275 580.875549,86.397697 
	C578.429199,87.841652 575.313354,88.755104 572.476257,88.826492 
	C561.538330,89.101715 550.589417,88.938156 539.325439,88.938156 
	C539.325439,76.568855 539.325439,64.670517 539.325439,51.485970 
	C551.780090,52.075161 564.185242,52.030449 576.409546,53.495338 
	C582.941406,54.278080 587.056152,59.640770 588.801270,66.701691 
z"/>
<path fill="#000000" opacity="1.000000" stroke="none" 
	d="
M1233.020996,234.283859 
	C1234.164307,233.206512 1235.302979,232.066803 1236.419922,232.087509 
	C1246.332153,232.271225 1256.262451,232.359650 1266.144043,233.074448 
	C1275.821411,233.774490 1281.602783,240.317093 1282.071411,249.130539 
	C1282.762207,262.123199 1276.204468,267.954712 1266.325073,268.765594 
	C1255.467041,269.656860 1244.479248,268.968750 1233.006348,268.968750 
	C1233.006348,257.269745 1233.006348,246.014679 1233.020996,234.283859 
z"/>
<path fill="#000000" opacity="1.000000" stroke="none" 
	d="
M962.999512,72.999374 
	C967.983093,86.392952 972.858704,99.408752 977.889648,112.839172 
	C963.062195,112.839172 949.099060,112.839172 934.181641,112.839172 
	C941.638184,93.905914 948.935852,75.376076 956.553101,56.034580 
	C958.850952,62.047920 960.871216,67.334763 962.999512,72.999374 
z"/>
<path fill="#000000" opacity="1.000000" stroke="none" 
	d="
M638.999939,277.000977 
	C644.343262,263.481415 649.597900,250.342972 655.290344,236.109955 
	C662.579163,255.560532 669.417542,273.809143 676.465454,292.616882 
	C661.749634,292.616882 647.706909,292.616882 632.867432,292.616882 
	C634.916809,287.450958 636.914001,282.416504 638.999939,277.000977 
z"/>
</svg>